<svg 
          width="30.75" 
          height="31.71875" fill="none" 
          xmlns="http://www.w3.org/2000/svg">
          <path d="M 15.350930986556255 0.0028917406399922114 C 7.874499006111442 -0.15524722715666617 0.8979329698486265 6.193671408353753 0.12023141238715557 13.881866425000682 C -0.7016203798107419 20.38407061828018 2.7541351203641 27.24246531100451 8.519351453851629 30.076119976984707 C 13.963245444433005 32.901867719928674 21.02245146450997 32.05086615384265 25.537314472707465 27.762470338524906 C 30.09667627295976 23.631853126286554 32.001593766235516 16.60321200622351 29.892229005607856 10.683274755938996 C 27.952873314538753 4.848341377442979 22.528737957130403 0.4045510404806181 16.529337723576315 0.04902994168439853 C 16.137229013857443 0.018486817544370312 15.744152856477148 0.003096641663081822 15.350930986556255 0.0028917406399922114 L 15.350930986556255 0.0028917406399922114 Z M 15.176887190270419 1.7139484431306555 C 22.03259248861891 1.4472390170805958 28.47595156571724 7.352544929871738 29.013159721256397 14.423895263832629 C 29.672939137739306 20.66036748621208 25.874326265366435 27.121202182892237 20.09365154465515 29.176562753411982 C 14.474302046809953 31.322947548694668 7.57655552935829 29.235650070169854 4.182683260005888 24.073305024736477 C 0.6993482411893366 19.03314879213599 0.8376936368095169 11.593362853638945 4.7900605071722 6.864836537144219 C 7.319724207789381 3.7172535769931154 11.201141707112772 1.7292650794153686 15.176887190270419 1.71393143167834 L 15.176887190270419 1.7139484431306555 Z M 15.449126480813868 3.2562835233003873 C 9.107151218840835 3.047941437003277 3.2725311012618397 8.799379417887703 3.157963001058979 15.350894838851353 C 2.8784002381289526 21.27112363925709 7.1260038663342655 27.081016290802076 12.800279359574162 28.208536789701387 C 18.05785942417412 29.39746051830533 23.93237973501864 26.60726815013125 26.27808675282367 21.555723142777538 C 28.704057849870722 16.622113561748545 27.619097917434843 10.056499572535143 23.479868854300296 6.452629157227131 C 21.286670199699856 4.4458080178857164 18.385674573475246 3.259696717859056 15.449144722592477 3.2562835233003873 L 15.449126480813868 3.2562835233003873 Z M 15.374508485409676 4.937993824862664 C 20.965232578887207 4.785068981700854 26.057020314652615 9.982454740042918 25.96735832284527 15.76323988067487 C 26.06618576330224 21.10727351798899 21.902334028157792 26.186296371838246 16.707949058539665 26.72508371114581 C 11.83108403441965 27.386540207813855 6.689150892293223 24.156269092535023 5.287053204956913 19.227993256093555 C 3.817360353623223 14.53243251703968 5.7482481857257595 8.87699194450246 9.983747728758495 6.459335333444537 C 11.607675831671854 5.4710010979597445 13.488850383296516 4.934889239926707 15.374508485409676 4.937976551695698 L 15.374508485409676 4.937993824862664 Z M 11.573056609561606 8.855654349005851 L 8.597191150044775 11.929674031622582 L 12.426588417291216 15.885428170078455 L 8.666363974533883 19.76971327163731 L 11.594990321475837 22.794952483882135 L 15.355281650754739 18.91065063258561 L 19.186919616473773 22.868686922798265 L 22.16278406255846 19.79466828704014 L 18.331128868492957 15.836649793423755 L 22.09150329920775 11.952210803650104 L 19.162876952265798 8.926988341142948 C 17.90940238264818 10.221772505503445 16.65594390126587 11.516574728174863 15.402502521551005 12.811376034845 L 11.573056609561606 8.855654349005851 Z M 11.570947657267862 10.067938596501362 L 15.402585622986896 14.025958136976353 L 19.162860737351476 10.141708628610031 L 20.91782726344055 11.954561001216147 L 17.157570390854577 15.838827259320134 L 20.987016302843976 19.794565694896946 L 19.186970288081024 21.653985478786055 L 15.357539577573798 17.69824599635064 L 11.597281691555681 21.58254784764716 L 9.842297937120144 19.769677678444776 L 13.602572038052582 15.885377920865462 L 9.770933058901402 11.927358380390471 L 11.570947657267862 10.067938596501362 L 11.570947657267862 10.067938596501362 Z" fill="rgb(31.000000052154064,95.00000193715096,100.00000163912773)"/>
        </svg>