<svg width="373" height="352" viewBox="0 0 373 352" fill="none" xmlns="http://www.w3.org/2000/svg">
<path d="M183.808 351.9C285.322 351.9 367.616 347.096 367.616 341.169C367.616 335.242 285.322 330.438 183.808 330.438C82.2935 330.438 0 335.242 0 341.169C0 347.096 82.2935 351.9 183.808 351.9Z" fill="black"/>
<path d="M49.0039 179.295C49.0039 179.295 56.1992 229.539 68.1345 253.799C80.5533 278.987 105.599 319.751 105.599 319.751L112.027 316.755C112.027 316.755 103.305 282.22 83.7197 248.158C75.6048 218.77 71.4999 169.91 71.4999 169.91L49.0039 179.295Z" fill="#FFB573"/>
<path opacity="0.8" d="M49.0039 179.295C49.0039 179.295 56.1992 229.539 68.1345 253.799C80.5533 278.987 105.599 319.751 105.599 319.751L112.027 316.755C112.027 316.755 103.305 282.22 83.7197 248.158C75.6048 218.77 71.4999 169.91 71.4999 169.91L49.0039 179.295Z" fill="#263238"/>
<path d="M48.993 171.723C48.993 171.723 37.5601 220.327 38.1384 247.326C38.7451 275.405 44.2056 322.938 44.2056 322.938H51.2967C51.2967 322.938 57.9895 287.957 54.6431 248.805C74.0487 209.045 79.0162 174.861 79.0162 174.861L48.993 171.723Z" fill="#FFB573"/>
<path opacity="0.8" d="M48.993 171.723C48.993 171.723 37.5601 220.327 38.1384 247.326C38.7451 275.405 44.2056 322.938 44.2056 322.938H51.2967C51.2967 322.938 57.9895 287.957 54.6431 248.805C74.0487 209.045 79.0162 174.861 79.0162 174.861L48.993 171.723Z" fill="#263238"/>
<path d="M47.5343 166.781C45.0695 169.768 41.7136 171.863 38.4335 173.901C36.0319 175.38 33.6429 176.862 31.2666 178.347C28.8018 179.873 26.1758 181.447 23.2844 181.409C20.393 181.371 17.824 176.062 18.5444 175.001C22.6019 168.829 32.1767 162.373 35.4094 157.681C36.0031 156.52 36.4917 155.308 36.8693 154.059C36.8693 152.068 37.0968 144.484 37.0968 144.484C36.3953 132.89 39.8555 120.358 42.472 118.215C46.264 115.115 48.3022 112.992 51.0039 116.092C52.7767 118.159 49.9896 138.436 50.1128 148.864C50.1128 149.168 50.8049 153.946 50.8997 155.197C51.3642 161.53 49.9991 163.805 47.5343 166.781Z" fill="#FF613A"/>
<path opacity="0.2" d="M47.5343 166.781C45.0695 169.768 41.7136 171.863 38.4335 173.901C36.0319 175.38 33.6429 176.862 31.2666 178.347C28.8018 179.873 26.1758 181.447 23.2844 181.409C20.393 181.371 17.824 176.062 18.5444 175.001C22.6019 168.829 32.1767 162.373 35.4094 157.681C36.0031 156.52 36.4917 155.308 36.8693 154.059C36.8693 152.068 37.0968 144.484 37.0968 144.484C36.3953 132.89 39.8555 120.358 42.472 118.215C46.264 115.115 48.3022 112.992 51.0039 116.092C52.7767 118.159 49.9896 138.436 50.1128 148.864C50.1128 149.168 50.8049 153.946 50.8997 155.197C51.3642 161.53 49.9991 163.805 47.5343 166.781Z" fill="black"/>
<path d="M18.6948 177.723L11.5469 178.045L15.5379 185.439C15.5379 185.439 19.529 183.411 20.7425 180.32L18.6948 177.723Z" fill="#FFB573"/>
<path d="M7.47266 181.572L10.1839 187.601L15.5022 185.411L11.5017 178.055L7.47266 181.572Z" fill="#FFB573"/>
<path d="M15.4375 174.641L20.6041 184.946L26.1783 184.387L18.8029 170.508L15.4375 174.641Z" fill="#FF613A"/>
<path opacity="0.4" d="M15.4375 174.641L20.6041 184.946L26.1783 184.387L18.8029 170.508L15.4375 174.641Z" fill="white"/>
<path d="M52.0371 325.062C52.4698 325.962 52.6749 326.955 52.6344 327.953C52.568 331.594 52.1699 341.225 52.1699 341.225H51.3167C51.3167 341.225 51.1271 336.485 50.7099 334.087C50.2928 331.688 49.762 333.698 48.2926 336.191C46.8232 338.685 43.0312 341.093 37.4948 341.225C31.001 341.377 28.3751 341.093 30.2616 339.519C32.1481 337.945 36.452 336.931 36.452 336.931C36.452 336.931 42.6804 328.257 42.7657 322.132C42.851 315.572 50.4635 322.227 52.0845 321.412C52.6439 321.526 51.7812 324.512 52.0371 325.062Z" fill="#263238"/>
<path d="M113.656 318.359C114.425 318.996 115.03 319.809 115.419 320.729C116.898 324.057 120.605 332.959 120.605 332.959L119.827 333.319C119.827 333.319 117.657 329.1 116.263 327.1C114.869 325.1 115.239 327.147 114.964 330.029C114.689 332.911 112.262 336.665 107.304 339.158C101.484 342.002 98.9809 342.894 100.024 340.666C101.067 338.438 104.546 335.708 104.546 335.708C104.546 335.708 106.527 325.213 104.015 319.592C101.313 313.61 111.03 316.425 112.149 314.994C112.651 314.909 113.135 317.98 113.656 318.359Z" fill="#263238"/>
<path d="M30.6606 156.231L22.4984 185.667C21.9106 187.8 21.3418 190.179 22.3656 192.132C23.9298 195.118 28.0536 195.327 31.419 195.118L47.0421 194.17C49.7628 194.009 52.9197 193.592 54.3322 191.26C55.1759 189.866 55.138 188.122 55.0622 186.52C54.645 177.16 53.8076 167.835 52.55 158.544C51.82 153.15 50.2084 146.675 43.7999 146.656C37.0312 146.628 32.4524 149.804 30.6606 156.231Z" fill="#263238"/>
<path opacity="0.1" d="M30.6606 156.231L22.4984 185.667C21.9106 187.8 21.3418 190.179 22.3656 192.132C23.9298 195.118 28.0536 195.327 31.419 195.118L47.0421 194.17C49.7628 194.009 52.9197 193.592 54.3322 191.26C55.1759 189.866 55.138 188.122 55.0622 186.52C54.645 177.16 53.8076 167.835 52.55 158.544C51.82 153.15 50.2084 146.675 43.7999 146.656C37.0312 146.628 32.4524 149.804 30.6606 156.231Z" fill="#0F0F0F"/>
<path d="M81.0769 237.323C76.8204 237.92 72.8957 240.622 61.823 240.963H61.1594C60.6949 240.963 60.2114 240.963 59.709 240.963C56.7417 240.963 39.9147 239.067 36.8906 237.105C41.3841 210.153 46.8351 180.329 47.7452 174.878L48.4847 170.46L48.1055 168.943V168.555L63.2071 169.105L80.2048 169.73C80.2048 169.73 93.0691 190.956 81.0769 237.323Z" fill="#263238"/>
<path d="M47.296 115.184C50.14 114.416 55.0127 113.184 59.4683 112.387C64.6964 111.542 69.9768 111.061 75.2715 110.946C78.6274 110.804 81.9075 110.946 84.5334 111.06C85.1838 111.104 85.8163 111.292 86.3849 111.611C86.9536 111.929 87.4441 112.371 87.8208 112.903C88.1976 113.435 88.4511 114.044 88.563 114.686C88.6748 115.328 88.6423 115.987 88.4676 116.615C81.3292 142.126 80.2105 153.483 79.9356 166.651L48.699 165.703C48.343 165.69 48.0029 165.552 47.7391 165.312C47.4753 165.073 47.3049 164.748 47.2581 164.395C45.7318 153.246 42.7077 144.136 42.4422 137.595C42.218 131.261 42.7849 124.923 44.1297 118.729C44.259 117.896 44.6268 117.118 45.1886 116.489C45.7505 115.859 46.4823 115.406 47.296 115.184V115.184Z" fill="#FF613A"/>
<path opacity="0.1" d="M47.296 115.184C50.14 114.416 55.0127 113.184 59.4683 112.387C64.6964 111.542 69.9768 111.061 75.2715 110.946C78.6274 110.804 81.9075 110.946 84.5334 111.06C85.1838 111.104 85.8163 111.292 86.3849 111.611C86.9536 111.929 87.4441 112.371 87.8208 112.903C88.1976 113.435 88.4511 114.044 88.563 114.686C88.6748 115.328 88.6423 115.987 88.4676 116.615C81.3292 142.126 80.2105 153.483 79.9356 166.651L48.8033 165.703C48.4187 165.69 48.051 165.541 47.7662 165.282C47.4814 165.024 47.2979 164.672 47.2486 164.29C45.7128 153.199 42.7077 144.117 42.4422 137.595C42.218 131.261 42.7849 124.923 44.1297 118.729C44.259 117.896 44.6268 117.118 45.1886 116.489C45.7505 115.859 46.4823 115.406 47.296 115.184V115.184Z" fill="black"/>
<path d="M35.5791 153.681L33.7969 153.027C36.5157 145.441 38.5927 137.64 40.0063 129.706C41.7696 120.691 42.746 115.723 49.4863 114.387L49.8465 116.283C44.3481 117.363 43.5708 121.355 41.8644 130.105C40.4247 138.124 38.3225 146.01 35.5791 153.681V153.681Z" fill="#263238"/>
<path opacity="0.1" d="M35.5791 153.681L33.7969 153.027C36.5157 145.441 38.5927 137.64 40.0063 129.706C41.7696 120.691 42.746 115.723 49.4863 114.387L49.8465 116.283C44.3481 117.363 43.5708 121.355 41.8644 130.105C40.4247 138.124 38.3225 146.01 35.5791 153.681V153.681Z" fill="#0F0F0F"/>
<path d="M88.6504 112.994C87.8326 112.288 86.8497 111.801 85.793 111.577C84.7363 111.353 83.6402 111.4 82.6064 111.713C81.5725 112.026 80.6346 112.595 79.8798 113.368C79.125 114.14 78.5777 115.091 78.2888 116.132C77.246 119.355 84.9248 148.516 84.9248 148.525C84.9248 152.317 96.2154 158.005 96.2154 158.005C99.9126 153.113 90.7265 114.748 88.6504 112.994Z" fill="#FF613A"/>
<path d="M78.9705 131.545C77.9182 128.701 75.5861 122.065 72.5905 121.961C70.7798 121.895 67.1015 122.217 66.2389 123.857C65.3762 125.497 66.3905 131.28 68.3908 140.675C69.5948 146.363 72.4009 152.894 76.1455 157.341C79.8901 161.787 84.4499 164.924 90.1474 163.749C92.7829 163.199 95.3709 161.597 96.2999 159.075C99.1439 151.302 92.9345 147.149 88.6496 143.907C83.4451 139.935 81.1604 137.461 78.9705 131.545Z" fill="#FF613A"/>
<path d="M79.9646 110.937L78.7891 112.729C74.2576 119.668 64.3321 128.286 60.6444 128.949C59.9298 126.951 58.7465 125.153 57.1936 123.707C56.2022 124.111 55.3034 124.713 54.5521 125.476C53.8007 126.238 53.2126 127.146 52.8234 128.144C50.0457 122.949 50.7378 116.654 51.7332 113.573C53.6292 113.146 55.5915 112.72 57.4875 112.388C62.7159 111.547 67.9962 111.068 73.2907 110.956C75.5128 110.813 77.7417 110.807 79.9646 110.937V110.937Z" fill="#FF613A"/>
<path opacity="0.2" d="M79.9646 110.937L78.7891 112.729C74.2576 119.668 64.3321 128.286 60.6444 128.949C59.9298 126.951 58.7465 125.153 57.1936 123.707C56.2022 124.111 55.3034 124.713 54.5521 125.476C53.8007 126.238 53.2126 127.146 52.8234 128.144C50.0457 122.949 50.7378 116.654 51.7332 113.573C53.6292 113.146 55.5915 112.72 57.4875 112.388C62.7159 111.547 67.9962 111.068 73.2907 110.956C75.5128 110.813 77.7417 110.807 79.9646 110.937V110.937Z" fill="white"/>
<path d="M39.4672 84.0983C39.9791 87.7291 39.4672 94.3367 34.6134 101.579C28.3566 110.86 42.0647 116.747 51.1844 116.084C59.2804 115.496 77.2449 107.476 80.3449 100.859C83.4449 94.2419 75.1594 94.2229 72.5998 82.2781C70.0402 70.3333 61.0436 72.0208 53.6966 72.0113C43.6194 69.7835 38.4149 76.6754 39.4672 84.0983Z" fill="#263238"/>
<path d="M57.6127 106.859C59.7646 109.769 61.3478 113.211 57.9634 117.06C57.232 117.859 56.8028 118.888 56.75 119.97C56.75 121.695 57.698 123.383 63.386 120.055C71.5578 115.249 70.8752 109.817 70.8752 109.817C66.5808 108.518 64.0117 99.4931 63.0163 94.3359L57.6127 106.859Z" fill="#FFB573"/>
<path opacity="0.2" d="M62.5317 102.085C63.1574 104.284 60.8253 107.773 59.0621 109.176C58.6532 108.359 58.1708 107.582 57.6211 106.853L60.7969 99.4492C61.5462 100.202 62.1362 101.099 62.5317 102.085V102.085Z" fill="black"/>
<path d="M64.8629 80.8552C63.3213 78.2413 60.8074 76.3441 57.8709 75.5785C54.9344 74.8128 51.8142 75.241 49.1925 76.7693C41.4853 81.2344 42.0636 93.7291 44.8981 100.953C47.998 108.982 58.4734 110.006 63.8581 102.707C67.4984 97.8434 67.0434 94.2979 66.3987 85.9176C66.2831 84.1344 65.7575 82.402 64.8629 80.8552V80.8552Z" fill="#FFB573"/>
<path d="M53.715 90.5063C53.6085 90.4682 53.4945 90.4561 53.3824 90.471C53.2703 90.4858 53.1633 90.5272 53.0704 90.5916C52.9956 90.6754 52.9426 90.7763 52.9161 90.8854C52.8897 90.9946 52.8906 91.1086 52.9187 91.2173L52.2172 91.3121C52.1617 91.0897 52.1679 90.8564 52.2351 90.6373C52.3023 90.4182 52.4279 90.2215 52.5986 90.0684C52.7692 89.9154 52.9783 89.8117 53.2034 89.7686C53.4285 89.7255 53.6611 89.7446 53.8762 89.8238C54.7814 90.0633 55.5775 90.6052 56.1324 91.3595L55.5352 91.7197C55.0729 91.1321 54.4353 90.707 53.715 90.5063Z" fill="#263238"/>
<path d="M46.1239 92.0149C46.1007 91.9137 46.0566 91.8185 45.9946 91.7353C45.9326 91.6521 45.8539 91.5826 45.7637 91.5314C45.5686 91.4553 45.352 91.4553 45.157 91.5314C44.9467 91.6144 44.7669 91.7597 44.6415 91.9478C44.5161 92.1358 44.4512 92.3577 44.4554 92.5837L43.7539 92.5363C43.7559 92.1751 43.8676 91.8231 44.0741 91.5268C44.2806 91.2306 44.5723 91.0041 44.9105 90.8773C44.9889 90.839 45.0716 90.8103 45.157 90.792C45.5 90.7046 45.8636 90.7548 46.17 90.932C46.4765 91.1091 46.7015 91.3991 46.797 91.74L46.1239 92.0149Z" fill="#263238"/>
<path d="M49.2907 97.2757C48.8938 97.4346 48.4671 97.5059 48.0401 97.4846C47.613 97.4634 47.1956 97.35 46.8164 97.1524C47.6312 95.6882 48.2405 94.1188 48.6271 92.4883L49.2907 97.2757Z" fill="#ED893E"/>
<path d="M55.7173 96.9532C55.7285 96.9296 55.735 96.9039 55.7363 96.8778C55.7376 96.8516 55.7338 96.8255 55.725 96.8008C55.7162 96.7762 55.7026 96.7535 55.685 96.7341C55.6674 96.7147 55.6462 96.699 55.6225 96.6878C55.5734 96.6647 55.5172 96.6617 55.4658 96.6794C55.4145 96.6971 55.3721 96.7341 55.3476 96.7826C54.9326 97.5252 54.3461 98.1579 53.6371 98.6278C52.928 99.0978 52.1168 99.3915 51.2712 99.4844C51.222 99.4975 51.1789 99.5274 51.1495 99.569C51.1201 99.6105 51.1061 99.6611 51.11 99.7119C51.1135 99.7369 51.1219 99.761 51.1348 99.7827C51.1477 99.8044 51.1648 99.8233 51.1851 99.8383C51.2055 99.8533 51.2286 99.8641 51.2531 99.8701C51.2776 99.8761 51.3031 99.8771 51.3281 99.873C51.649 99.8377 51.9662 99.7742 52.2761 99.6834C53.002 99.4792 53.6801 99.1326 54.2709 98.6639C54.8617 98.1952 55.3533 97.6137 55.7173 96.9532Z" fill="#263238"/>
<path d="M41.0227 78.6201C38.1787 82.2699 43.0609 86.5643 43.7624 84.3081C44.8905 80.5635 48.1042 79.6818 48.0853 76.5439C48.0474 71.5954 43.8856 74.9797 41.0227 78.6201Z" fill="#263238"/>
<path d="M54.8844 85.7461C54.9158 85.7039 54.9385 85.6559 54.9512 85.6048C54.9639 85.5538 54.9663 85.5007 54.9584 85.4487C54.9505 85.3967 54.9323 85.3468 54.905 85.3018C54.8776 85.2569 54.8417 85.2178 54.7991 85.1868C52.9695 83.8122 50.3814 84.6085 50.2677 84.6464C50.2179 84.6626 50.1718 84.6885 50.1319 84.7225C50.0921 84.7565 50.0594 84.798 50.0356 84.8447C49.9876 84.9389 49.979 85.0483 50.0117 85.1489C50.0444 85.2495 50.1157 85.3329 50.2099 85.3809C50.3042 85.4289 50.4136 85.4375 50.5142 85.4048C50.5142 85.4048 52.7894 84.6654 54.3062 85.8125C54.3733 85.8625 54.4547 85.8895 54.5384 85.8895C54.6221 85.8895 54.7036 85.8625 54.7707 85.8125L54.8844 85.7461Z" fill="#263238"/>
<path d="M42.5581 88.364C42.8291 87.9385 43.1992 87.5852 43.6368 87.3342C44.0743 87.0832 44.5662 86.9421 45.0703 86.923V86.923C45.1238 86.9243 45.177 86.915 45.227 86.8956C45.2769 86.8763 45.3226 86.8473 45.3613 86.8103C45.4 86.7734 45.4311 86.7291 45.4527 86.6801C45.4744 86.6311 45.4861 86.5784 45.4874 86.5248C45.4886 86.4718 45.4793 86.419 45.4598 86.3695C45.4404 86.3201 45.4113 86.2751 45.3742 86.2371C45.3371 86.1992 45.2927 86.169 45.2438 86.1484C45.1949 86.1278 45.1423 86.1172 45.0892 86.1172C44.4509 86.1384 43.8269 86.3121 43.2694 86.6238C42.712 86.9355 42.2373 87.3762 41.885 87.9089V87.9089C41.8552 87.9521 41.8345 88.0009 41.8241 88.0523C41.8137 88.1038 41.8138 88.1567 41.8245 88.2081C41.8351 88.2595 41.856 88.3082 41.886 88.3513C41.9159 88.3943 41.9543 88.4309 41.9987 88.4588C42.0575 88.4938 42.1246 88.5123 42.1931 88.5123C42.2615 88.5123 42.3287 88.4938 42.3874 88.4588C42.4504 88.4396 42.5085 88.4073 42.5581 88.364Z" fill="#263238"/>
<path d="M52.8619 79.1795C54.1266 79.4159 55.3229 79.9307 56.364 80.6866C57.4052 81.4424 58.2652 82.4205 58.8817 83.5498C59.3393 84.6737 59.928 85.7396 60.6355 86.7256C61.4223 87.6072 64.0578 91.2191 64.9963 91.9301C65.9348 92.6411 65.603 89.8445 66.4941 89.3041C67.4494 88.877 68.3633 88.3629 69.2244 87.7684C69.7453 87.2716 70.142 86.6591 70.3824 85.9806C70.6229 85.3021 70.7003 84.5766 70.6084 83.8626C70.4177 82.4305 69.8664 81.0703 69.0063 79.9094C67.8627 78.2379 66.3971 76.8113 64.6953 75.7132C62.9934 74.6151 61.0896 73.8676 59.0953 73.5145C57.101 73.1613 55.0562 73.2097 53.0808 73.6566C51.1054 74.1036 49.239 74.9402 47.591 76.1174C46.5292 76.8758 43.5241 80.0801 46.2164 80.4688C47.0317 80.5825 48.4537 79.5208 49.2879 79.2838C50.4585 78.997 51.6766 78.9614 52.8619 79.1795Z" fill="#263238"/>
<path d="M69.4627 91.1419C66.9695 88.1462 63.5093 87.7859 60.4378 87.4636C58.9711 87.4251 57.5257 87.1031 56.1813 86.5156C53.233 84.8471 51.8015 80.2493 51.6119 78.761C51.4847 78.1521 51.2048 77.5856 50.7986 77.1146C50.3923 76.6437 49.8729 76.2837 49.2893 76.0687C48.8022 75.996 48.3049 76.0368 47.8362 76.1881C47.3675 76.3394 46.9402 76.597 46.5875 76.9408C45.9618 77.6803 45.8955 78.8368 46.3979 80.3821L45.9523 80.5243C45.3835 78.8179 45.4783 77.5096 46.2273 76.628C46.6369 76.2283 47.1329 75.9282 47.677 75.7506C48.221 75.5731 48.7986 75.523 49.3651 75.6041C50.0516 75.8336 50.6645 76.2417 51.141 76.7865C51.6175 77.3314 51.9404 77.9932 52.0764 78.7041C52.2565 80.0692 53.6596 84.5438 56.4183 86.0985C57.7068 86.6444 59.0863 86.9434 60.4852 86.9801C63.4903 87.293 67.216 87.6817 69.8325 90.8195L69.4627 91.1419Z" fill="#263238"/>
<path opacity="0.1" d="M69.4627 91.1419C66.9695 88.1462 63.5093 87.7859 60.4378 87.4636C58.9711 87.4251 57.5257 87.1031 56.1813 86.5156C53.233 84.8471 51.8015 80.2493 51.6119 78.761C51.4847 78.1521 51.2048 77.5856 50.7986 77.1146C50.3923 76.6437 49.8729 76.2837 49.2893 76.0687C48.8022 75.996 48.3049 76.0368 47.8362 76.1881C47.3675 76.3394 46.9402 76.597 46.5875 76.9408C45.9618 77.6803 45.8955 78.8368 46.3979 80.3821L45.9523 80.5243C45.3835 78.8179 45.4783 77.5096 46.2273 76.628C46.6369 76.2283 47.1329 75.9282 47.677 75.7506C48.221 75.5731 48.7986 75.523 49.3651 75.6041C50.0516 75.8336 50.6645 76.2417 51.141 76.7865C51.6175 77.3314 51.9404 77.9932 52.0764 78.7041C52.2565 80.0692 53.6596 84.5438 56.4183 86.0985C57.7068 86.6444 59.0863 86.9434 60.4852 86.9801C63.4903 87.293 67.216 87.6817 69.8325 90.8195L69.4627 91.1419Z" fill="white"/>
<path d="M69.7351 91.1705C69.6361 90.4462 69.2545 89.7904 68.6738 89.3464C68.093 88.9024 67.3601 88.7061 66.6352 88.8005C64.5496 89.1134 63.6016 91.9194 63.6016 93.7585C63.6016 95.7873 65.1184 97.2851 66.948 96.1475C68.3198 95.2699 69.2905 93.887 69.6498 92.2986C69.7535 91.9321 69.7825 91.5485 69.7351 91.1705V91.1705Z" fill="#FFB573"/>
<path d="M68.6759 93.4817C68.5569 93.8325 68.3377 94.1407 68.0455 94.3683C67.7533 94.5959 67.4008 94.733 67.0315 94.7625C66.6623 94.792 66.2925 94.7128 65.9678 94.5345C65.6432 94.3562 65.3778 94.0867 65.2046 93.7594C65.0313 93.432 64.9577 93.061 64.993 92.6923C65.0282 92.3236 65.1706 91.9732 65.4027 91.6846C65.6348 91.3959 65.9464 91.1815 66.2989 91.0679C66.6515 90.9543 67.0296 90.9465 67.3866 91.0454C67.6316 91.12 67.8595 91.2424 68.0571 91.4055C68.2547 91.5685 68.4181 91.769 68.5379 91.9954C68.6577 92.2218 68.7316 92.4697 68.7553 92.7248C68.779 92.9799 68.752 93.2371 68.6759 93.4817Z" fill="white"/>
<path d="M68.3168 94.9192L66.8516 94.4766L65.6667 98.399L67.1319 98.8416L68.3168 94.9192Z" fill="white"/>
<path d="M67.7479 92.3764C67.7349 92.4229 67.7126 92.4663 67.6825 92.504C67.6524 92.5417 67.615 92.573 67.5726 92.596C67.5301 92.619 67.4835 92.6332 67.4354 92.6378C67.3874 92.6425 67.3389 92.6374 67.2928 92.6229C67.2011 92.594 67.1245 92.5298 67.0801 92.4444C67.0356 92.3591 67.0269 92.2596 67.0558 92.1678C67.0847 92.0761 67.1489 91.9995 67.2343 91.9551C67.3196 91.9106 67.4191 91.9019 67.5109 91.9308C67.6009 91.9593 67.6761 92.0218 67.7204 92.1052C67.7648 92.1885 67.7746 92.2859 67.7479 92.3764V92.3764Z" fill="#263238"/>
<path d="M71.1144 100.349L57.3648 112.42C56.8376 112.883 56.7854 113.685 57.2482 114.212L62.5144 120.211C62.9772 120.738 63.7799 120.79 64.3071 120.328L78.0567 108.257C78.5839 107.794 78.6361 106.991 78.1733 106.464L72.9071 100.465C72.4443 99.9382 71.6417 99.886 71.1144 100.349Z" fill="#FF613A"/>
<path d="M70.2698 119.761L72.5924 112.992L64.25 114.035C64.25 114.035 64.6766 118.491 67.094 120.766L70.2698 119.761Z" fill="#FFB573"/>
<path d="M70.209 106.355L64.1797 108.261L64.2745 114.015L72.5884 112.991L70.209 106.355Z" fill="#FFB573"/>
<path d="M74.8653 118.766L63.3945 121.012L63.6789 126.236L77.0647 123.278L74.8653 118.766Z" fill="#FF613A"/>
<path opacity="0.4" d="M74.8653 118.766L63.3945 121.012L63.6789 126.236L77.0647 123.278L74.8653 118.766Z" fill="white"/>
<path d="M79.6927 170.14L63.9465 169.505L62.6287 169.448L59.2254 169.306H57.9172L48.6742 168.926C48.3898 168.879 48.1433 168.756 48.1433 168.576L47.9727 165.656C47.9727 165.457 48.2191 165.296 48.5415 165.305L57.7276 165.533H58.8273L63.3492 165.665H64.4205L79.5885 166.092C79.6923 166.087 79.7956 166.109 79.8886 166.155C79.9815 166.202 80.061 166.271 80.1193 166.357L80.2521 169.666C80.3469 169.931 80.0625 170.149 79.6927 170.14Z" fill="#FF613A"/>
<path opacity="0.2" d="M79.6927 170.14L63.9465 169.505L62.6287 169.448L59.2254 169.306H57.9172L48.6742 168.926C48.3898 168.879 48.1433 168.756 48.1433 168.576L47.9727 165.656C47.9727 165.457 48.2191 165.296 48.5415 165.305L57.7276 165.533H58.8273L63.3492 165.665H64.4205L79.5885 166.092C79.6923 166.087 79.7956 166.109 79.8886 166.155C79.9815 166.202 80.061 166.271 80.1193 166.357L80.2521 169.666C80.3469 169.931 80.0625 170.149 79.6927 170.14Z" fill="white"/>
<path d="M52.9856 169.438H53.9999C54.0386 169.449 54.0792 169.452 54.1191 169.446C54.159 169.441 54.1973 169.426 54.2313 169.405C54.2654 169.383 54.2945 169.355 54.3167 169.321C54.3389 169.288 54.3537 169.25 54.3602 169.21L54.0758 165.077C54.0758 164.954 53.8957 164.83 53.6871 164.821L52.6727 164.773C52.4642 164.773 52.3125 164.868 52.3125 164.991L52.5969 169.144C52.6227 169.227 52.6741 169.301 52.7439 169.353C52.8136 169.406 52.8982 169.436 52.9856 169.438V169.438Z" fill="#263238"/>
<path d="M70.5235 170.356H71.4715C71.5071 170.365 71.5442 170.368 71.5807 170.362C71.6172 170.357 71.6522 170.344 71.6834 170.324C71.7146 170.305 71.7414 170.279 71.762 170.248C71.7827 170.218 71.7967 170.183 71.8033 170.147L71.5379 165.995C71.5379 165.881 71.3577 165.758 71.1682 165.758H70.2202C70.0306 165.758 69.8789 165.834 69.8789 165.966L70.1538 170.1C70.1728 170.27 70.3339 170.337 70.5235 170.356Z" fill="#263238"/>
<path opacity="0.4" d="M56.8847 131.727C57.5654 131.727 58.1171 131.175 58.1171 130.494C58.1171 129.813 57.5654 129.262 56.8847 129.262C56.2041 129.262 55.6523 129.813 55.6523 130.494C55.6523 131.175 56.2041 131.727 56.8847 131.727Z" fill="white"/>
<path opacity="0.4" d="M58.8515 144.033C58.8515 144.277 58.7792 144.515 58.6438 144.718C58.5084 144.921 58.3159 145.078 58.0907 145.172C57.8655 145.265 57.6177 145.289 57.3787 145.242C57.1396 145.194 56.92 145.077 56.7477 144.905C56.5753 144.732 56.458 144.513 56.4104 144.274C56.3628 144.035 56.3873 143.787 56.4805 143.562C56.5738 143.336 56.7318 143.144 56.9344 143.008C57.1371 142.873 57.3754 142.801 57.6191 142.801C57.946 142.801 58.2594 142.931 58.4905 143.162C58.7217 143.393 58.8515 143.706 58.8515 144.033V144.033Z" fill="white"/>
<path d="M257.926 163.642C257.926 163.642 258.409 169.036 267.946 172.439C277.483 175.843 274.402 169.643 274.402 169.643C270.022 166.656 270.24 163.395 271.824 160.248C272.206 159.456 272.64 158.69 273.122 157.954L268.951 150.673L265.889 145.336C265.121 151.147 262.884 161.405 257.926 163.642Z" fill="#7F3E3B"/>
<path d="M287.881 143.142C288.279 143.237 288.497 143.825 288.374 144.432C288.251 145.038 287.824 145.465 287.426 145.38C287.028 145.294 286.819 144.697 286.933 144.081C287.047 143.465 287.483 143.048 287.881 143.142Z" fill="#263238"/>
<path d="M285.124 141.292C285.055 141.221 285.016 141.126 285.016 141.027C285.016 140.928 285.055 140.832 285.124 140.761C285.524 140.323 286.022 139.985 286.577 139.774C287.132 139.564 287.728 139.486 288.319 139.548V139.548C288.367 139.556 288.413 139.574 288.454 139.599C288.495 139.625 288.531 139.659 288.559 139.698C288.587 139.738 288.607 139.783 288.618 139.83C288.629 139.878 288.63 139.927 288.622 139.975C288.614 140.023 288.597 140.068 288.571 140.11C288.545 140.151 288.511 140.186 288.472 140.215C288.432 140.243 288.387 140.263 288.34 140.274C288.293 140.285 288.243 140.286 288.196 140.278C287.729 140.235 287.26 140.297 286.821 140.462C286.383 140.626 285.987 140.887 285.664 141.226C285.623 141.272 285.571 141.306 285.513 141.326C285.455 141.346 285.393 141.351 285.333 141.34C285.26 141.341 285.189 141.325 285.124 141.292V141.292Z" fill="#263238"/>
<path d="M285.727 149.343C286.107 149.578 286.534 149.727 286.977 149.779C287.421 149.832 287.871 149.786 288.296 149.646C287.661 147.98 287.253 146.236 287.082 144.461L285.727 149.343Z" fill="#630F0F"/>
<path d="M268.938 132.022C270.581 129.879 273.007 128.475 275.684 128.12C278.361 127.764 281.07 128.486 283.215 130.126C289.851 134.932 288.59 146.394 285.575 152.793C284.822 154.469 283.625 155.908 282.113 156.953C280.602 157.998 278.833 158.61 276.998 158.722C275.164 158.834 273.334 158.443 271.706 157.59C270.078 156.737 268.714 155.455 267.762 153.883C264.776 149.143 265.819 144.659 266.928 136.999C267.143 135.191 267.837 133.472 268.938 132.022V132.022Z" fill="#7F3E3B"/>
<path d="M282.181 141.436C284.021 142.469 284.163 146.176 283.736 148.356C283.243 150.793 281.499 152.148 280.124 150.196C279.063 148.582 278.542 146.673 278.636 144.745C278.74 142.261 280.342 140.403 282.181 141.436Z" fill="#7F3E3B"/>
<path d="M285.361 153.029C285.133 153.029 284.908 152.979 284.701 152.881C284.495 152.784 284.313 152.643 284.167 152.467C284.021 152.292 283.916 152.087 283.859 151.866C283.801 151.645 283.793 151.414 283.835 151.19V151.086L284.299 151.181V151.285C284.267 151.455 284.277 151.631 284.328 151.797C284.379 151.963 284.47 152.113 284.592 152.237C284.714 152.36 284.864 152.451 285.03 152.503C285.195 152.556 285.371 152.567 285.541 152.536L285.617 153.01L285.361 153.029Z" fill="black"/>
<path d="M290.79 134.496C290.002 135.782 288.944 136.882 287.69 137.719C287.445 137.885 287.185 138.028 286.913 138.146C285.263 138.904 283.434 139.094 282.078 137.871C282.363 138.997 282.273 140.185 281.822 141.255C281.266 142.651 280.423 143.913 279.348 144.962C279.683 144.025 279.742 143.012 279.518 142.042C279.331 141.431 278.948 140.898 278.428 140.525C278.136 140.304 277.8 140.145 277.444 140.059C277.087 139.973 276.716 139.962 276.355 140.026C275.993 140.09 275.649 140.228 275.344 140.432C275.038 140.635 274.778 140.899 274.579 141.208C274.292 141.793 274.123 142.43 274.082 143.08C274.042 143.731 274.13 144.383 274.342 145C274.774 146.215 274.96 147.504 274.892 148.792C274.693 150.072 273.593 151.333 272.314 151.124C272.11 151.553 271.815 151.931 271.45 152.234C271.085 152.537 270.658 152.757 270.2 152.878C269.653 153.049 269.074 153.091 268.508 153C267.942 152.91 267.405 152.69 266.938 152.356C266.754 152.218 266.588 152.055 266.446 151.873C265.898 152.456 265.17 152.837 264.379 152.954C263.889 153.039 263.387 153.019 262.906 152.895C262.424 152.771 261.975 152.546 261.588 152.235C261.2 151.924 260.883 151.533 260.658 151.09C260.434 150.647 260.306 150.161 260.284 149.664C259.441 149.781 258.584 149.597 257.864 149.144C257.143 148.691 256.606 147.999 256.346 147.188C256.087 146.378 256.122 145.502 256.445 144.715C256.768 143.928 257.359 143.28 258.113 142.886C257.309 142.548 256.632 141.967 256.176 141.224C255.72 140.481 255.51 139.613 255.574 138.744C255.638 137.875 255.973 137.047 256.532 136.379C257.091 135.71 257.847 135.234 258.691 135.018C257.203 132.989 258.691 130.059 260.416 129.149C260.57 129.071 260.732 129.011 260.9 128.969C261.192 128.894 261.499 128.894 261.791 128.969H261.933C262.085 129.017 262.229 129.088 262.36 129.178C262.394 129.188 262.43 129.188 262.464 129.178C262.893 128.688 263.283 128.165 263.63 127.614L263.791 127.386C263.857 127.312 263.917 127.233 263.971 127.149C264.701 126.201 265.403 125.253 265.422 125.727C265.338 124.265 265.7 122.812 266.461 121.561C267.222 120.309 268.345 119.319 269.682 118.72C271.019 118.122 272.505 117.944 273.946 118.21C275.386 118.476 276.711 119.173 277.746 120.21C278.314 119.513 279.067 118.99 279.917 118.699C280.768 118.408 281.683 118.361 282.559 118.563C283.435 118.765 284.237 119.209 284.874 119.843C285.511 120.478 285.958 121.278 286.164 122.153C288.894 121.262 291.937 123.518 292.677 126.296C293.416 129.074 292.373 132.079 290.79 134.496Z" fill="#263238"/>
<path d="M315.014 312.72L321.83 310.359L324.153 327.224L317.337 329.575L315.014 312.72Z" fill="#7F3E3B"/>
<path opacity="0.2" d="M316.15 321.925L323.07 320.332L321.772 310.89L314.955 313.241L316.15 321.925Z" fill="black"/>
<path d="M325.811 326.892C328.115 328.058 331.945 328.636 337.813 328.456C339.168 328.456 339.955 331.3 337.016 332.021C334.078 332.741 328.238 334.087 326.095 334.524C323.517 335.045 322.161 335.472 320.521 335.964C320.146 336.078 319.753 336.116 319.363 336.077C318.974 336.038 318.596 335.922 318.251 335.736C317.907 335.55 317.602 335.298 317.356 334.994C317.109 334.69 316.925 334.34 316.814 333.964C316.756 333.729 316.73 333.486 316.739 333.244C316.739 333.244 317.241 327.395 317.516 327.338L323.526 324.854C323.953 324.797 324.465 326.494 325.811 326.892Z" fill="#7F3E3B"/>
<path d="M245.744 230.139C245.913 236.648 247.262 243.072 249.726 249.099C254.684 260.987 285.276 258.522 298.661 257.954C297.713 274.335 312.692 318.806 312.692 318.806L324.845 315.573C324.845 315.573 319.091 273.965 319.375 251.327C319.669 230.661 271.975 228.66 271.975 228.66L245.744 230.139Z" fill="#FF613A"/>
<path opacity="0.3" d="M245.744 230.139C245.913 236.648 247.262 243.072 249.726 249.099C254.684 260.987 285.276 258.522 298.661 257.953C297.713 274.334 312.521 318.284 312.521 318.284L324.845 314.729C324.845 314.729 319.091 273.965 319.413 251.289C319.707 230.622 272.013 228.622 272.013 228.622L245.744 230.139Z" fill="white"/>
<path d="M309.428 312.757L325.439 308.491L325.989 315.383L311.068 320.133L309.428 312.757Z" fill="#FF613A"/>
<path d="M342.997 316.786L349.452 313.553L354.676 329.575L348.23 332.807L342.997 316.786Z" fill="#7F3E3B"/>
<path d="M355.9 328.533C358.204 329.699 362.034 330.277 367.902 330.097C369.257 330.097 370.044 332.941 367.105 333.662C364.167 334.382 358.327 335.728 356.184 336.164C352.696 336.866 348.06 338.392 347.852 335.321C347.852 335.321 347.33 329.026 347.605 328.979L353.606 326.495C354.042 326.419 354.45 327.566 355.9 328.533Z" fill="#7F3E3B"/>
<path opacity="0.2" d="M345.404 324.066L351.86 320.833L349.168 312.566L342.712 315.799L345.404 324.066Z" fill="black"/>
<path d="M261.338 229.105C261.338 229.105 259.926 242.377 263.983 252.075C268.951 263.954 306.312 255.346 321.043 258.91C321.745 282.061 341.899 321.061 341.899 321.061L353.93 315.61C353.93 315.61 347.038 280.089 340.487 249.25C338.799 226.204 286.508 228.044 286.195 228.1L261.338 229.105Z" fill="#FF613A"/>
<path opacity="0.5" d="M261.338 229.106C261.338 229.106 259.926 242.378 263.983 252.076C268.951 263.954 306.312 255.346 321.043 258.911C321.745 282.061 341.899 321.062 341.899 321.062L353.93 315.611C353.93 315.611 347.038 280.089 340.487 249.251C338.724 224.669 278.526 227.561 278.213 227.57L261.338 229.106Z" fill="white"/>
<path d="M338.524 316L354.109 309.866L355.579 315.962L340.866 323.337L338.524 316Z" fill="#FF613A"/>
<path d="M331.585 225.883L275.833 222.309L281.189 187.167L336.941 190.732L331.585 225.883Z" fill="#FF613A"/>
<path d="M330.646 228.594L275.662 225.077C275.3 225.061 274.945 224.968 274.622 224.804C274.299 224.64 274.014 224.409 273.787 224.126C273.56 223.844 273.396 223.516 273.306 223.165C273.216 222.814 273.201 222.448 273.263 222.091L278.61 187.167C278.737 186.408 279.136 185.723 279.734 185.239C280.331 184.755 281.084 184.507 281.852 184.541L336.836 188.058C337.199 188.072 337.554 188.164 337.878 188.328C338.202 188.491 338.487 188.722 338.715 189.005C338.942 189.288 339.106 189.617 339.196 189.968C339.285 190.32 339.299 190.687 339.235 191.044L333.916 225.968C333.789 226.731 333.386 227.421 332.782 227.905C332.179 228.39 331.418 228.635 330.646 228.594V228.594Z" fill="#FF613A"/>
<path d="M331.585 225.883L275.833 222.309L281.189 187.167L336.941 190.732L331.585 225.883Z" fill="#FF613A"/>
<path opacity="0.9" d="M331.585 225.883L275.833 222.309L281.189 187.167L336.941 190.732L331.585 225.883Z" fill="white"/>
<path d="M329.574 200.562L319.335 199.908L320.208 194.182L330.446 194.837L329.574 200.562Z" fill="#FF613A"/>
<path d="M327.86 211.852L317.622 211.198L318.494 205.472L328.733 206.127L327.86 211.852Z" fill="#FF613A"/>
<path d="M326.133 223.152L315.894 222.498L316.766 216.772L327.005 217.426L326.133 223.152Z" fill="#FF613A"/>
<path opacity="0.1" d="M324.91 187.232L311.411 227.276L315.07 227.503L328.447 187.46L324.91 187.232Z" fill="white"/>
<path opacity="0.1" d="M330.562 187.594L317.062 227.638L324.333 228.102L337.71 188.059L330.562 187.594Z" fill="white"/>
<path d="M282.46 215.929L282.403 216.251L311.952 218.147L312.009 217.816L282.46 215.929Z" fill="#FF613A"/>
<path d="M312.568 214.081L283.067 212.194L286.148 191.926L315.659 193.812L312.568 214.081Z" fill="#FF613A"/>
<path d="M283.35 220.28C283.156 220.27 282.967 220.22 282.794 220.132C282.621 220.044 282.469 219.92 282.348 219.768C282.227 219.616 282.14 219.441 282.092 219.253C282.044 219.065 282.037 218.869 282.07 218.677V218.677C282.135 218.271 282.349 217.902 282.669 217.643C282.989 217.384 283.394 217.253 283.805 217.274C283.999 217.282 284.188 217.331 284.361 217.419C284.534 217.506 284.686 217.629 284.807 217.78C284.929 217.931 285.016 218.106 285.064 218.293C285.112 218.481 285.119 218.677 285.085 218.867V218.867C285.02 219.275 284.808 219.644 284.487 219.905C284.167 220.165 283.763 220.299 283.35 220.28V220.28Z" fill="#FF613A"/>
<path d="M297.437 215.625L282.686 214.687L282.876 213.388L297.636 214.336L297.437 215.625Z" fill="#FF613A"/>
<path d="M311.47 221.218L305.772 220.848L305.962 219.55L311.669 219.919L311.47 221.218Z" fill="#FF613A"/>
<path d="M312.198 216.574L310.89 216.488L311.089 215.19L312.388 215.275L312.198 216.574Z" fill="#FF613A"/>
<path d="M309.99 216.431L308.681 216.346L308.88 215.047L310.179 215.133L309.99 216.431Z" fill="#FF613A"/>
<path d="M307.779 216.291L306.471 216.206L306.67 214.907L307.969 214.992L307.779 216.291Z" fill="#FF613A"/>
<path opacity="0.2" d="M297.437 215.625L282.686 214.687L282.876 213.388L297.636 214.336L297.437 215.625Z" fill="white"/>
<path opacity="0.2" d="M312.009 217.816L282.46 215.929L282.403 216.251L311.952 218.147L312.009 217.816Z" fill="black"/>
<path d="M313.23 227.2L331.754 228.631C331.849 230.812 330.806 231.523 329.668 231.428L323.743 230.954L319.79 230.622L313.638 230.148L285.34 228.252V225.541L313.23 227.2Z" fill="#FF613A"/>
<path opacity="0.4" d="M313.23 227.2L331.754 228.631C331.849 230.812 330.806 231.523 329.668 231.428L323.743 230.954L319.79 230.622L313.638 230.148L285.34 228.252V225.541L313.23 227.2Z" fill="black"/>
<path d="M306.101 206.192C306.101 206.192 306.101 206.192 306.101 206.144C306.101 206.097 306.101 206.144 306.101 206.144H306.054L305.049 206.088L305.097 205.557H305.172V205.121H305.097L305.163 202.732H305.115C304.793 202.544 304.431 202.435 304.059 202.414C303.687 202.392 303.315 202.459 302.973 202.608H302.916L302.708 204.997H302.641V205.433H302.717V205.964L301.712 205.898H301.665C301.665 205.898 301.665 205.898 301.665 205.945C301.655 206.306 301.671 206.667 301.712 207.026C301.31 206.834 300.895 206.669 300.47 206.533C300.229 206.449 299.982 206.383 299.731 206.334C299.613 206.208 299.524 206.058 299.47 205.895C299.416 205.731 299.398 205.557 299.418 205.386C299.471 205.164 299.547 204.948 299.646 204.741H299.598C300.105 204.629 300.574 204.387 300.958 204.037C301.342 203.688 301.628 203.245 301.788 202.751C301.943 202.652 302.07 202.515 302.158 202.352C302.537 202.352 302.888 201.66 302.935 200.788C302.983 199.916 302.745 199.281 302.395 199.167C302.521 198.844 302.574 198.498 302.551 198.152C302.528 197.807 302.43 197.47 302.262 197.167C301.807 196.427 300.821 195.972 299.333 195.811C297.437 195.622 296.195 195.963 295.541 196.816C295.308 197.135 295.144 197.498 295.059 197.883C294.974 198.268 294.97 198.667 295.048 199.053C294.823 199.433 294.699 199.864 294.687 200.305C294.64 201.177 294.906 201.897 295.285 201.954C295.427 202.267 295.617 202.466 295.844 202.476C295.921 202.477 295.997 202.462 296.068 202.43C296.138 202.399 296.201 202.353 296.252 202.296C296.372 202.889 296.65 203.44 297.057 203.888C297.084 204.722 296.808 205.537 296.28 206.182C295.622 206.254 294.981 206.437 294.384 206.723C293.564 207.064 292.795 207.517 292.099 208.069C291.256 209.444 291.597 212.752 291.597 212.752L304.774 213.596L304.679 210.164C304.591 209.885 304.477 209.616 304.338 209.358C305.485 209.169 306.13 208.116 306.234 206.22L306.101 206.192ZM296.081 198.124C296.081 198.181 296.081 198.238 296.015 198.295C295.974 198.285 295.932 198.285 295.891 198.295C295.798 198.298 295.707 198.323 295.624 198.368C295.542 198.412 295.471 198.475 295.417 198.551C295.387 198.072 295.528 197.598 295.816 197.214C296.365 196.532 297.475 196.266 299.096 196.437C299.561 196.422 300.023 196.509 300.451 196.693C300.878 196.876 301.261 197.151 301.57 197.499C301.77 197.853 301.825 198.271 301.722 198.665H301.608H301.551C301.43 198.241 301.22 197.848 300.936 197.512C300.651 197.175 300.299 196.902 299.901 196.712C299.205 196.392 298.41 196.361 297.69 196.626C296.971 196.891 296.386 197.429 296.062 198.124H296.081ZM301.769 207.13C301.72 206.776 301.701 206.417 301.712 206.059L302.594 206.107L302.546 207.604C302.305 207.424 302.048 207.265 301.779 207.13H301.769ZM304.016 209.14C303.667 208.653 303.252 208.216 302.783 207.841C303.09 207.989 303.424 208.07 303.764 208.078C304.104 208.086 304.442 208.022 304.755 207.889H304.803L304.945 206.306L305.826 206.353C305.665 208.05 305.078 208.97 304.016 209.14Z" fill="#FF613A"/>
<path opacity="0.2" d="M306.101 206.192C306.101 206.192 306.101 206.192 306.101 206.144C306.101 206.097 306.101 206.144 306.101 206.144H306.054L305.049 206.088L305.097 205.557H305.172V205.121H305.097L305.163 202.732H305.115C304.793 202.544 304.431 202.435 304.059 202.414C303.687 202.392 303.315 202.459 302.973 202.608H302.916L302.708 204.997H302.641V205.433H302.717V205.964L301.712 205.898H301.665C301.665 205.898 301.665 205.898 301.665 205.945C301.655 206.306 301.671 206.667 301.712 207.026C301.31 206.834 300.895 206.669 300.47 206.533C300.229 206.449 299.982 206.383 299.731 206.334C299.613 206.208 299.524 206.058 299.47 205.895C299.416 205.731 299.398 205.557 299.418 205.386C299.471 205.164 299.547 204.948 299.646 204.741H299.598C300.105 204.629 300.574 204.387 300.958 204.037C301.342 203.688 301.628 203.245 301.788 202.751C301.943 202.652 302.07 202.515 302.158 202.352C302.537 202.352 302.888 201.66 302.935 200.788C302.983 199.916 302.745 199.281 302.395 199.167C302.521 198.844 302.574 198.498 302.551 198.152C302.528 197.807 302.43 197.47 302.262 197.167C301.807 196.427 300.821 195.972 299.333 195.811C297.437 195.622 296.195 195.963 295.541 196.816C295.308 197.135 295.144 197.498 295.059 197.883C294.974 198.268 294.97 198.667 295.048 199.053C294.823 199.433 294.699 199.864 294.687 200.305C294.64 201.177 294.906 201.897 295.285 201.954C295.427 202.267 295.617 202.466 295.844 202.476C295.921 202.477 295.997 202.462 296.068 202.43C296.138 202.399 296.201 202.353 296.252 202.296C296.372 202.889 296.65 203.44 297.057 203.888C297.084 204.722 296.808 205.537 296.28 206.182C295.622 206.254 294.981 206.437 294.384 206.723C293.564 207.064 292.795 207.517 292.099 208.069C291.256 209.444 291.597 212.752 291.597 212.752L304.774 213.596L304.679 210.164C304.591 209.885 304.477 209.616 304.338 209.358C305.485 209.169 306.13 208.116 306.234 206.22L306.101 206.192ZM296.081 198.124C296.081 198.181 296.081 198.238 296.015 198.295C295.974 198.285 295.932 198.285 295.891 198.295C295.798 198.298 295.707 198.323 295.624 198.368C295.542 198.412 295.471 198.475 295.417 198.551C295.387 198.072 295.528 197.598 295.816 197.214C296.365 196.532 297.475 196.266 299.096 196.437C299.561 196.422 300.023 196.509 300.451 196.693C300.878 196.876 301.261 197.151 301.57 197.499C301.77 197.853 301.825 198.271 301.722 198.665H301.608H301.551C301.43 198.241 301.22 197.848 300.936 197.512C300.651 197.175 300.299 196.902 299.901 196.712C299.205 196.392 298.41 196.361 297.69 196.626C296.971 196.891 296.386 197.429 296.062 198.124H296.081ZM301.769 207.13C301.72 206.776 301.701 206.417 301.712 206.059L302.594 206.107L302.546 207.604C302.305 207.424 302.048 207.265 301.779 207.13H301.769ZM304.016 209.14C303.667 208.653 303.252 208.216 302.783 207.841C303.09 207.989 303.424 208.07 303.764 208.078C304.104 208.086 304.442 208.022 304.755 207.889H304.803L304.945 206.306L305.826 206.353C305.665 208.05 305.078 208.97 304.016 209.14Z" fill="black"/>
<path opacity="0.2" d="M331.755 228.63V229.389C331.765 229.666 331.716 229.943 331.612 230.201C331.508 230.458 331.35 230.691 331.149 230.884C330.949 231.076 330.71 231.224 330.448 231.318C330.187 231.411 329.908 231.449 329.631 231.427L323.706 230.953L312.738 230.185L313.231 227.199L331.755 228.63Z" fill="black"/>
<path d="M256.55 162.689L274.562 164.993C274.562 164.993 272.723 160.3 266.314 159.57C264.557 159.306 262.762 159.45 261.068 159.991C259.375 160.532 257.829 161.455 256.55 162.689V162.689Z" fill="#FF613A"/>
<path d="M243.6 193.518C244.32 207.738 244.017 222.27 245.742 230.11L250.075 231.267C257.667 233.293 265.645 233.384 273.282 231.532L286.146 228.404C286.07 214.904 287.236 188.588 287.862 175.506C287.972 173.243 287.323 171.008 286.017 169.157C284.712 167.305 282.825 165.943 280.657 165.286C279.415 164.907 278.306 164.594 277.624 164.442C272.263 163.459 266.851 162.781 261.413 162.414C258.704 162.207 255.985 162.147 253.269 162.234L251.923 162.29C249.885 162.376 246.652 164.414 246.027 166.338C243.429 174.254 243.173 184.957 243.6 193.518Z" fill="#FF613A"/>
<path d="M243.6 193.518C244.32 207.738 244.017 222.27 245.742 230.11L250.075 231.267C257.667 233.293 265.645 233.384 273.282 231.532L286.146 228.404C286.07 214.904 287.236 188.588 287.862 175.506C287.972 173.243 287.323 171.008 286.017 169.157C284.712 167.305 282.825 165.943 280.657 165.286C279.415 164.907 278.306 164.594 277.624 164.442C272.263 163.459 266.851 162.781 261.413 162.414C258.704 162.207 255.985 162.147 253.269 162.234L251.923 162.29C249.885 162.376 246.652 164.414 246.027 166.338C243.429 174.254 243.173 184.957 243.6 193.518Z" fill="#263238"/>
<path d="M284.704 167.646C285.121 173.77 285.652 180.027 286.221 186.17C286.524 189.251 286.856 192.322 287.254 195.356C287.652 198.39 288.088 201.414 288.676 204.315C288.97 205.765 289.283 207.159 289.624 208.524C289.814 209.197 290.013 209.832 290.212 210.42C290.325 210.695 290.43 211.036 290.534 211.254L290.686 211.614C290.704 211.661 290.72 211.708 290.733 211.757C290.685 211.663 290.628 211.574 290.562 211.491C290.373 211.254 290.297 211.301 290.354 211.32C290.48 211.452 290.62 211.57 290.771 211.671C291.241 211.977 291.736 212.244 292.25 212.468C293.529 213.015 294.836 213.496 296.165 213.908C301.806 215.634 308.612 218.781 314.642 220.118L314.206 225.521C307.683 225.777 294.023 223.464 288.96 221.237C287.983 220.94 287.031 220.563 286.116 220.108C285.562 219.829 285.027 219.512 284.514 219.16C283.536 218.486 282.719 217.602 282.125 216.572L281.926 216.184L281.575 215.473C281.319 214.989 281.168 214.591 280.969 214.136C280.608 213.254 280.286 212.411 280.021 211.567C279.48 209.908 279.073 208.277 278.618 206.637C277.15 200.292 276.055 193.866 275.338 187.393C274.977 184.208 274.674 181.051 274.39 177.847C274.105 174.642 273.878 171.495 273.745 168.243L284.704 167.646Z" fill="#7F3E3B"/>
<path d="M311.723 224.812C312.548 227.134 320.502 226.708 320.502 226.708L319.781 219.237L312.652 220.517L311.723 224.812Z" fill="#7F3E3B"/>
<path d="M319.781 219.2L320.501 226.671L325.336 227.4L324.132 222.158L319.781 219.2Z" fill="#7F3E3B"/>
<path d="M270.892 171.305C269.527 175.932 270.949 189.858 273.385 196.38L289.975 194.626C289.975 194.626 291.947 175.751 288.183 170.272C282.135 161.522 272.921 164.195 270.892 171.305Z" fill="#263238"/>
<path d="M353.881 326.41L347.131 329.008C346.983 329.062 346.861 329.167 346.785 329.305C346.71 329.443 346.688 329.604 346.723 329.757L348.306 339.815C348.348 339.983 348.423 340.141 348.527 340.28C348.63 340.419 348.76 340.536 348.909 340.624C349.058 340.712 349.223 340.77 349.395 340.794C349.566 340.817 349.741 340.807 349.908 340.763L350.051 340.716C352.97 339.55 354.326 338.82 358.052 337.445C360.336 336.592 367.712 335.028 370.584 333.255C373.457 331.482 371.855 328.515 370.499 329.027C366.148 330.591 360.128 329.444 356.469 326.97C355.995 326.77 354.345 326.221 353.881 326.41Z" fill="#263238"/>
<path d="M357.427 330.239L357.493 330.324C357.664 330.42 357.856 330.47 358.052 330.47C358.248 330.47 358.441 330.42 358.612 330.324C358.721 330.274 358.815 330.196 358.885 330.098C358.955 329.999 358.998 329.885 359.01 329.765C359.133 328.694 356.725 326.741 356.488 326.542C356.455 326.517 356.415 326.504 356.374 326.504C356.333 326.504 356.293 326.517 356.261 326.542C356.228 326.562 356.202 326.59 356.183 326.623C356.165 326.656 356.156 326.694 356.156 326.731C356.289 327.793 356.592 329.689 357.427 330.239ZM356.63 327.13C357.578 327.926 358.706 329.111 358.631 329.689C358.626 329.743 358.605 329.794 358.571 329.836C358.538 329.878 358.492 329.91 358.441 329.926C358.329 329.991 358.201 330.025 358.071 330.025C357.941 330.025 357.814 329.991 357.701 329.926C357.228 329.651 356.81 328.637 356.64 327.13H356.63Z" fill="#FF613A"/>
<path d="M356.509 327.035C357.381 327.633 359.258 328.306 360.026 327.888C360.163 327.808 360.269 327.684 360.327 327.536C360.386 327.389 360.393 327.226 360.348 327.073C360.321 326.92 360.257 326.776 360.161 326.654C360.065 326.531 359.94 326.435 359.798 326.372C358.736 325.746 356.414 326.504 356.319 326.533C356.284 326.537 356.25 326.551 356.222 326.572C356.193 326.594 356.171 326.623 356.158 326.656C356.154 326.691 356.158 326.726 356.169 326.759C356.181 326.791 356.199 326.821 356.224 326.846L356.509 327.035ZM359.665 326.713C359.738 326.759 359.8 326.82 359.848 326.892C359.895 326.964 359.927 327.045 359.94 327.13C359.997 327.386 359.94 327.471 359.827 327.519C359.305 327.813 357.694 327.329 356.831 326.77C357.618 326.561 358.964 326.305 359.609 326.685H359.665V326.713Z" fill="#FF613A"/>
<path d="M323.325 324.277L316.423 326.344C316.276 326.38 316.146 326.467 316.057 326.591C315.968 326.714 315.927 326.866 315.94 327.017L316.224 336.611C316.252 336.771 316.313 336.924 316.402 337.059C316.491 337.195 316.608 337.311 316.744 337.4C316.88 337.489 317.032 337.549 317.193 337.576C317.353 337.604 317.517 337.598 317.675 337.559H317.817C320.803 336.611 322.206 336.042 326.008 334.933C328.33 334.25 335.715 333.198 338.73 331.691C341.745 330.183 340.55 327.32 339.175 327.69C336.876 328.213 334.491 328.239 332.18 327.764C329.87 327.29 327.688 326.328 325.78 324.941C325.012 324.563 324.178 324.338 323.325 324.277V324.277Z" fill="#263238"/>
<path d="M327.763 328.38L327.849 328.447C328.036 328.498 328.233 328.502 328.422 328.457C328.611 328.412 328.785 328.321 328.929 328.191C329.027 328.118 329.104 328.021 329.152 327.91C329.2 327.798 329.218 327.676 329.204 327.556C329.1 326.484 326.36 325.091 326.047 324.949C326.015 324.926 325.977 324.914 325.938 324.914C325.899 324.914 325.861 324.926 325.829 324.949C325.801 324.974 325.78 325.007 325.768 325.044C325.756 325.081 325.755 325.12 325.763 325.157C326.133 326.238 326.834 328.02 327.763 328.38ZM326.313 325.536C327.403 326.115 328.778 327.025 328.825 327.603C328.829 327.657 328.818 327.712 328.793 327.761C328.768 327.809 328.73 327.85 328.683 327.878C328.587 327.966 328.472 328.029 328.346 328.062C328.221 328.095 328.089 328.097 327.962 328.067C327.45 327.897 326.825 326.996 326.341 325.555L326.313 325.536Z" fill="#FF613A"/>
<path d="M326.18 325.443C327.128 325.841 329.129 326.097 329.802 325.528C329.917 325.418 329.993 325.273 330.017 325.115C330.041 324.957 330.012 324.796 329.935 324.656C329.871 324.516 329.776 324.392 329.658 324.294C329.54 324.195 329.401 324.125 329.252 324.087C328.076 323.708 325.972 324.95 325.887 325.035C325.851 325.046 325.82 325.067 325.796 325.096C325.772 325.125 325.758 325.16 325.754 325.197C325.759 325.231 325.771 325.263 325.789 325.292C325.807 325.322 325.83 325.347 325.858 325.367L326.18 325.443ZM329.195 324.495C329.276 324.525 329.35 324.572 329.412 324.633C329.474 324.693 329.523 324.766 329.555 324.846C329.66 325.083 329.555 325.178 329.555 325.244C329.119 325.642 327.441 325.519 326.474 325.159C327.195 324.789 328.456 324.211 329.176 324.476H329.233L329.195 324.495Z" fill="#FF613A"/>
<path d="M278.165 139.238C278.877 139.679 279.493 140.259 279.978 140.943C280.462 141.627 280.805 142.401 280.985 143.219C281.166 144.038 281.18 144.884 281.029 145.708C280.877 146.532 280.561 147.317 280.101 148.018C279.641 148.718 279.045 149.319 278.348 149.785C277.652 150.252 276.869 150.574 276.047 150.733C275.224 150.891 274.377 150.884 273.558 150.71C272.738 150.537 271.961 150.201 271.273 149.722C269.652 148.774 268.258 144.926 270.173 142.034C272.088 139.143 275.283 137.342 278.165 139.238Z" fill="#FF613A"/>
<path d="M271.821 130.153C270.2 128.428 267.868 126.361 265.185 125.707C265.185 125.707 263.128 128.466 262.891 128.608C262.73 128.523 267.451 130.428 269.148 132.457C271.154 135.001 272.747 137.845 273.869 140.884L276.788 139.112C275.851 135.78 274.15 132.713 271.821 130.153V130.153Z" fill="#FF613A"/>
<g opacity="0.3">
<path opacity="0.3" d="M271.821 130.153C270.2 128.428 267.868 126.361 265.185 125.707C265.185 125.707 263.128 128.466 262.891 128.608C262.73 128.523 267.451 130.428 269.148 132.457C271.154 135.001 272.747 137.845 273.869 140.884L276.788 139.112C275.851 135.78 274.15 132.713 271.821 130.153V130.153Z" fill="black"/>
</g>
<path opacity="0.3" d="M278.95 141.388C280.656 142.573 280.846 145.313 279.386 147.541C277.926 149.769 275.328 150.679 273.603 149.541C271.877 148.404 272.2 145.588 273.669 143.351C275.139 141.114 277.234 140.213 278.95 141.388Z" fill="black"/>
<path d="M273.824 148.022L279.654 143.367L279.825 144.457L274.753 148.629L273.824 148.022Z" fill="#263238"/>
<path d="M266.633 286.617L259.504 339.165H262.063L271.306 286.617H266.633Z" fill="#263238"/>
<path d="M257.961 184.938C252.652 181.648 243.513 182.245 237.75 184.644C231.986 187.042 227.255 191.45 223.34 196.314C209.215 213.861 204.579 244.32 208.646 266.466C210.096 274.419 212.713 282.373 217.851 288.62C222.117 293.797 227.9 297.522 233.91 300.508C244.723 306.002 256.659 308.922 268.787 309.04C280.943 309.111 292.837 305.513 302.915 298.717C310.091 293.721 316.111 286.772 318.889 278.486C321.667 270.201 320.851 260.825 315.76 253.725C311.191 247.354 303.569 244.112 296.042 241.95C295.246 241.732 294.44 241.524 293.625 241.353C280.514 238.509 270.749 220.952 268.901 207.661C268.92 207.595 265.28 189.479 257.961 184.938Z" fill="#FF613A"/>
<path d="M234.536 296.168L225.406 342.81H228.686L240.508 296.168H234.536Z" fill="#263238"/>
<path d="M289.758 296.168L298.887 342.81H295.616L283.785 296.168H289.758Z" fill="#263238"/>
<path d="M113.203 52.1601H113.051C112.933 52.119 112.836 52.0339 112.779 51.9225C112.722 51.8112 112.711 51.6823 112.747 51.5629C113.804 48.2761 115.139 45.0856 116.739 42.026C116.765 41.9667 116.804 41.9135 116.852 41.8697C116.9 41.826 116.956 41.7925 117.018 41.7715C117.079 41.7505 117.144 41.7424 117.209 41.7476C117.274 41.7529 117.337 41.7714 117.394 41.802C117.452 41.8326 117.502 41.8747 117.542 41.9256C117.583 41.9765 117.612 42.0352 117.629 42.098C117.646 42.1608 117.649 42.2263 117.64 42.2906C117.63 42.3549 117.607 42.4165 117.573 42.4715C116.002 45.4836 114.689 48.6232 113.648 51.8567C113.615 51.9474 113.554 52.0253 113.474 52.0797C113.394 52.134 113.299 52.1622 113.203 52.1601V52.1601Z" fill="#FF613A"/>
<path d="M117.507 103.423C117.423 103.42 117.342 103.396 117.271 103.353C117.199 103.31 117.14 103.249 117.099 103.176C109.8 90.1034 107.619 73.485 111.117 57.5681C111.149 57.4471 111.225 57.3426 111.331 57.2757C111.436 57.2088 111.563 57.1846 111.686 57.2078C111.747 57.2213 111.805 57.2467 111.856 57.2826C111.908 57.3186 111.951 57.3643 111.985 57.4172C112.018 57.47 112.041 57.529 112.052 57.5907C112.062 57.6524 112.06 57.7156 112.046 57.7766C108.596 73.466 110.738 89.838 117.924 102.712C117.956 102.766 117.976 102.825 117.984 102.887C117.992 102.949 117.988 103.012 117.971 103.072C117.954 103.133 117.925 103.189 117.886 103.238C117.847 103.286 117.799 103.327 117.744 103.356C117.673 103.401 117.591 103.424 117.507 103.423V103.423Z" fill="#FF613A"/>
<path d="M104.329 85.9008C104.222 85.9018 104.118 85.8668 104.034 85.8014C103.95 85.7361 103.89 85.6442 103.864 85.5406C100.797 72.36 102.475 58.5199 108.604 46.4546C108.663 46.3446 108.762 46.2621 108.881 46.2248C109 46.1876 109.129 46.1986 109.239 46.2555C109.295 46.2835 109.344 46.3223 109.384 46.3697C109.424 46.417 109.455 46.4719 109.473 46.5311C109.492 46.5903 109.498 46.6526 109.492 46.7144C109.486 46.7761 109.468 46.8361 109.439 46.8907C103.43 58.7605 101.796 72.3675 104.822 85.3226C104.836 85.3836 104.838 85.4468 104.827 85.5085C104.816 85.5702 104.794 85.6292 104.76 85.682C104.727 85.7349 104.683 85.7806 104.632 85.8166C104.581 85.8525 104.523 85.8779 104.462 85.8914L104.329 85.9008Z" fill="#FF613A"/>
<path d="M109.296 98.8868C109.211 98.888 109.128 98.8667 109.055 98.825C108.981 98.7834 108.921 98.7229 108.878 98.6498C107.671 96.4776 106.634 94.2145 105.778 91.8811C105.748 91.8217 105.731 91.7565 105.727 91.6899C105.724 91.6232 105.734 91.5566 105.759 91.4944C105.783 91.4321 105.82 91.3756 105.867 91.3287C105.914 91.2817 105.971 91.2453 106.034 91.2218C106.096 91.1983 106.163 91.1882 106.229 91.1923C106.296 91.1963 106.361 91.2144 106.42 91.2453C106.479 91.2762 106.531 91.3193 106.573 91.3717C106.614 91.4241 106.644 91.4846 106.66 91.5493C107.504 93.8371 108.525 96.0558 109.713 98.1853C109.752 98.2576 109.772 98.3389 109.771 98.4213C109.769 98.5037 109.746 98.5843 109.704 98.6551C109.662 98.7259 109.602 98.7845 109.531 98.8252C109.459 98.8658 109.378 98.8871 109.296 98.8868Z" fill="#FF613A"/>
<path d="M97.0475 61.7461H96.9337C96.8113 61.7148 96.706 61.6366 96.6404 61.5285C96.5748 61.4205 96.5542 61.291 96.583 61.1679C97.4116 57.5746 98.6888 54.0998 100.384 50.8252C100.408 50.7626 100.445 50.7057 100.492 50.6584C100.54 50.611 100.597 50.5742 100.659 50.5504C100.722 50.5266 100.789 50.5164 100.856 50.5204C100.922 50.5243 100.988 50.5424 101.047 50.5735C101.106 50.6045 101.159 50.6477 101.2 50.7004C101.241 50.753 101.271 50.8138 101.287 50.8788C101.304 50.9438 101.306 51.0115 101.294 51.0774C101.282 51.1433 101.257 51.206 101.219 51.2613C99.5791 54.4679 98.3436 57.8656 97.5405 61.3764C97.5158 61.4867 97.4526 61.5845 97.3623 61.6523C97.2719 61.7201 97.1602 61.7534 97.0475 61.7461V61.7461Z" fill="#FF613A"/>
<path d="M101.077 94.3671C100.994 94.3666 100.913 94.3445 100.841 94.3029C100.77 94.2613 100.71 94.2017 100.669 94.1301C96.3152 85.9868 94.5242 76.7178 95.5309 67.5387C95.5422 67.413 95.603 67.2969 95.6999 67.216C95.7967 67.1352 95.9218 67.0961 96.0475 67.1074C96.1732 67.1187 96.2893 67.1795 96.3702 67.2764C96.4511 67.3733 96.4902 67.4983 96.4789 67.624C95.4884 76.6116 97.2364 85.6887 101.494 93.6656C101.555 93.775 101.571 93.9043 101.537 94.0251C101.503 94.146 101.423 94.2485 101.314 94.3102C101.24 94.348 101.159 94.3675 101.077 94.3671Z" fill="#FF613A"/>
<path d="M255.315 90.5759H255.192C255.132 90.5606 255.075 90.5333 255.026 90.4957C254.976 90.4581 254.935 90.4109 254.904 90.357C254.873 90.303 254.853 90.2434 254.846 90.1817C254.838 90.12 254.843 90.0574 254.86 89.9977C259.254 74.1117 257.536 57.1559 250.045 42.4744C250.015 42.4191 249.997 42.3584 249.99 42.296C249.984 42.2335 249.991 42.1704 250.009 42.1105C250.028 42.0505 250.058 41.9948 250.098 41.9466C250.139 41.8984 250.188 41.8587 250.244 41.8297C250.354 41.7728 250.483 41.7618 250.602 41.799C250.721 41.8363 250.82 41.9188 250.879 42.0288C258.483 56.9228 260.229 74.1263 255.77 90.2441C255.74 90.3408 255.679 90.4252 255.598 90.4849C255.516 90.5446 255.417 90.5765 255.315 90.5759V90.5759Z" fill="#FF613A"/>
<path d="M250.114 103.422C250.03 103.424 249.948 103.401 249.877 103.356C249.822 103.326 249.774 103.286 249.735 103.237C249.696 103.188 249.667 103.132 249.65 103.072C249.633 103.012 249.629 102.949 249.637 102.887C249.645 102.825 249.665 102.765 249.697 102.711C250.965 100.434 252.07 98.0712 253.005 95.6391C253.027 95.5806 253.059 95.527 253.101 95.4814C253.143 95.4358 253.194 95.3991 253.251 95.3734C253.307 95.3478 253.368 95.3338 253.431 95.3322C253.493 95.3306 253.554 95.3415 253.612 95.3641C253.671 95.3862 253.725 95.4197 253.77 95.4627C253.816 95.5058 253.853 95.5575 253.878 95.6148C253.904 95.6721 253.918 95.7339 253.919 95.7967C253.921 95.8595 253.91 95.9219 253.887 95.9803C252.937 98.4553 251.812 100.86 250.522 103.176C250.481 103.248 250.422 103.309 250.35 103.353C250.279 103.396 250.198 103.42 250.114 103.422V103.422Z" fill="#FF613A"/>
<path d="M264.652 76.1347C264.527 76.125 264.411 76.0672 264.328 75.9735C264.245 75.8798 264.201 75.7575 264.206 75.6323C264.839 65.6731 262.775 55.7276 258.234 46.8416C258.193 46.7331 258.193 46.6133 258.234 46.5049C258.275 46.3965 258.355 46.3069 258.458 46.2531C258.56 46.1994 258.679 46.1852 258.792 46.2133C258.904 46.2414 259.003 46.3098 259.068 46.4055C263.695 55.4414 265.797 65.5582 265.154 75.6892C265.145 75.8141 265.087 75.9303 264.993 76.0134C264.899 76.0966 264.777 76.14 264.652 76.1347V76.1347Z" fill="#FF613A"/>
<path d="M258.323 98.8885C258.241 98.8887 258.16 98.8675 258.088 98.8268C258.016 98.7862 257.956 98.7276 257.914 98.6568C257.872 98.5859 257.849 98.5054 257.848 98.423C257.846 98.3406 257.866 98.2593 257.906 98.187C260.687 93.1419 262.576 87.6545 263.49 81.9667C263.51 81.841 263.579 81.7284 263.682 81.6537C263.785 81.5791 263.914 81.5484 264.039 81.5685C264.165 81.5886 264.278 81.6579 264.352 81.761C264.427 81.8641 264.458 81.9927 264.438 82.1184C263.509 87.9163 261.585 93.5098 258.75 98.6515C258.707 98.726 258.644 98.7874 258.569 98.8291C258.494 98.8709 258.409 98.8914 258.323 98.8885Z" fill="#FF613A"/>
<path d="M269.838 59.0254C269.736 59.0249 269.638 58.9913 269.558 58.9297C269.477 58.8681 269.419 58.7818 269.392 58.6841C268.62 56.114 267.608 53.6223 266.368 51.2424C266.341 51.1857 266.325 51.1242 266.321 51.0614C266.317 50.9986 266.326 50.9357 266.347 50.8763C266.368 50.8169 266.4 50.7621 266.442 50.7151C266.484 50.6681 266.534 50.6298 266.591 50.6025C266.648 50.5751 266.709 50.5591 266.772 50.5555C266.835 50.5519 266.898 50.5606 266.957 50.5813C267.016 50.602 267.071 50.6342 267.118 50.6761C267.165 50.7179 267.203 50.7686 267.231 50.8252C268.505 53.2465 269.541 55.7866 270.321 58.4092C270.357 58.5299 270.344 58.6598 270.286 58.7714C270.228 58.8829 270.128 58.9673 270.008 59.0065L269.838 59.0254Z" fill="#FF613A"/>
<path d="M266.54 94.3666C266.458 94.3669 266.377 94.3474 266.303 94.3097C266.194 94.2479 266.114 94.1454 266.08 94.0246C266.046 93.9037 266.062 93.7745 266.123 93.665C270.768 85.3511 272.418 75.0747 270.768 64.7415C270.752 64.6163 270.784 64.4895 270.858 64.3872C270.932 64.2849 271.042 64.2149 271.167 64.1917C271.291 64.1752 271.416 64.2075 271.517 64.2818C271.618 64.356 271.686 64.4665 271.707 64.5899C273.385 75.1411 271.707 85.626 266.967 94.1296C266.924 94.204 266.862 94.2654 266.786 94.3072C266.711 94.3489 266.626 94.3694 266.54 94.3666Z" fill="#FF613A"/>
<path d="M165.063 3.42504C165.001 3.43313 164.938 3.42889 164.877 3.41254C164.816 3.3962 164.76 3.36807 164.71 3.32978C164.609 3.25244 164.544 3.13838 164.527 3.01266C164.511 2.88695 164.545 2.75989 164.623 2.65944C164.7 2.55899 164.814 2.49338 164.94 2.47704C175.732 -0.518401 187.097 -0.801716 198.025 1.65227C198.086 1.66572 198.144 1.69114 198.195 1.72707C198.247 1.76299 198.29 1.80872 198.324 1.8616C198.357 1.91449 198.38 1.97348 198.39 2.03518C198.401 2.09688 198.399 2.16006 198.385 2.22108C198.373 2.28184 198.349 2.33952 198.314 2.39071C198.279 2.4419 198.234 2.48557 198.182 2.51914C198.129 2.55271 198.071 2.57552 198.01 2.58619C197.949 2.59687 197.886 2.59521 197.826 2.58132C187.054 0.166728 175.854 0.443485 165.215 3.38712L165.063 3.42504Z" fill="#FF613A"/>
<path d="M152.64 8.51465C152.537 8.51161 152.438 8.47532 152.358 8.41124C152.278 8.34715 152.22 8.25873 152.195 8.1593C152.169 8.05986 152.176 7.95478 152.216 7.85986C152.255 7.76495 152.324 7.68534 152.412 7.63301C154.719 6.34433 157.114 5.21975 159.579 4.26761C159.696 4.22443 159.825 4.22908 159.939 4.28054C160.052 4.332 160.141 4.42612 160.186 4.54253C160.209 4.59975 160.22 4.66095 160.219 4.72258C160.218 4.78421 160.205 4.84503 160.18 4.9015C160.155 4.95797 160.12 5.00895 160.075 5.05149C160.031 5.09402 159.978 5.12726 159.92 5.14925C157.497 6.08435 155.143 7.18995 152.877 8.45777C152.803 8.49553 152.722 8.51505 152.64 8.51465V8.51465Z" fill="#FF613A"/>
<path d="M183.779 139.87C221.057 139.87 251.276 109.65 251.276 72.3726C251.276 35.0947 221.057 4.875 183.779 4.875C146.501 4.875 116.281 35.0947 116.281 72.3726C116.281 109.65 146.501 139.87 183.779 139.87Z" fill="#FF613A"/>
<path opacity="0.9" d="M183.779 139.87C221.057 139.87 251.276 109.65 251.276 72.3726C251.276 35.0947 221.057 4.875 183.779 4.875C146.501 4.875 116.281 35.0947 116.281 72.3726C116.281 109.65 146.501 139.87 183.779 139.87Z" fill="white"/>
<path d="M183.942 141.227C170.404 141.227 157.171 137.213 145.915 129.692C134.66 122.171 125.887 111.481 120.706 98.9746C115.526 86.4678 114.17 72.7056 116.811 59.4285C119.452 46.1513 125.971 33.9555 135.543 24.3832C145.116 14.8109 157.312 8.29212 170.589 5.65113C183.866 3.01014 197.628 4.36559 210.135 9.54607C222.642 14.7266 233.331 23.4994 240.852 34.7552C248.373 46.011 252.387 59.2443 252.387 72.7816C252.367 90.9283 245.15 108.326 232.318 121.158C219.486 133.989 202.088 141.207 183.942 141.227V141.227ZM183.942 6.23197C170.779 6.23197 157.913 10.135 146.969 17.4476C136.025 24.7602 127.495 35.1538 122.458 47.3141C117.421 59.4745 116.103 72.8554 118.671 85.7647C121.239 98.6741 127.577 110.532 136.884 119.839C146.191 129.146 158.049 135.485 170.959 138.052C183.868 140.62 197.249 139.302 209.409 134.265C221.57 129.228 231.963 120.699 239.276 109.755C246.588 98.8105 250.491 85.9438 250.491 72.7816C250.461 55.1442 243.439 38.2385 230.964 25.7706C218.489 13.3026 201.579 6.28994 183.942 6.26989V6.23197Z" fill="#FF613A"/>
<path d="M149.046 48.3789C148.847 47.8859 144.306 36.2066 150.752 27.21C155.663 20.3181 165.389 17.1518 179.685 17.7869C191.147 18.2989 198.93 21.3514 202.807 26.8593C207.471 33.4953 205.044 41.3258 204.125 44.274L204.02 44.6248L199.489 43.2407L199.603 42.871C200.399 40.3114 202.248 34.339 198.93 29.599C195.944 25.352 189.393 22.963 179.467 22.5269C166.906 21.9676 158.526 24.4229 154.62 29.9687C149.681 36.8891 153.416 46.5492 153.454 46.644L149.046 48.3789Z" fill="#263238"/>
<path d="M198.635 54.3973C198.635 61.2324 201.091 66.7782 204.115 66.7782C207.139 66.7782 209.604 61.2324 209.604 54.3973C209.604 47.5623 207.148 42.007 204.115 42.007C201.081 42.007 198.635 47.5528 198.635 54.3973Z" fill="#263238"/>
<path opacity="0.2" d="M198.635 54.3973C198.635 61.2324 201.091 66.7782 204.115 66.7782C207.139 66.7782 209.604 61.2324 209.604 54.3973C209.604 47.5623 207.148 42.007 204.115 42.007C201.081 42.007 198.635 47.5528 198.635 54.3973Z" fill="white"/>
<path d="M199.744 70.5618C203.697 70.5618 206.901 63.3252 206.901 54.3984C206.901 45.4716 203.697 38.235 199.744 38.235C195.791 38.235 192.586 45.4716 192.586 54.3984C192.586 63.3252 195.791 70.5618 199.744 70.5618Z" fill="#263238"/>
<path d="M212.04 107.561C212.04 107.561 206.239 103.105 193.232 99.6545C185.534 97.6069 177.419 97.3225 169.456 97.6827C161.493 98.0429 153.501 99.8252 146.6 103.788C143.585 105.513 131.906 111.533 131.906 114.993L132.086 115.761C143.531 129.398 159.9 137.961 177.629 139.586C195.358 141.211 213.011 135.765 226.744 124.435C222.459 114.036 216.885 112.178 212.04 107.561Z" fill="#FF613A"/>
<path d="M186.303 84.4216C183.563 91.579 182.786 99.3241 196.048 102.566C196.048 102.566 202.476 112.435 181.563 113.942C159.247 115.488 158.707 100.509 158.707 100.509C167.476 94.6979 166.035 77.3305 164.234 67.86L186.303 84.4216Z" fill="#FF8B7B"/>
<path opacity="0.2" d="M169.59 84.6106C169.922 88.7628 176.643 95.4841 184.635 91.7585C184.927 89.9709 185.411 88.2198 186.076 86.535L173.003 76.7327C172.538 77.6902 169.486 82.3449 169.59 84.6106Z" fill="black"/>
<path d="M155.787 47.2888C157.351 63.5185 157.418 73.1123 165.94 81.1987C178.691 93.39 198.58 85.2088 201.964 68.8747C204.95 54.1049 201.964 30.0067 185.753 24.0628C182.194 22.7372 178.354 22.3435 174.6 22.9189C170.845 23.4943 167.3 25.0198 164.3 27.3505C161.301 29.6812 158.947 32.7399 157.462 36.236C155.977 39.7322 155.41 43.5499 155.816 47.3267L155.787 47.2888Z" fill="#FF8B7B"/>
<path d="M151.16 58.304C151.643 60.2886 152.515 62.1576 153.726 63.8028C154.937 65.4479 156.462 66.8366 158.213 67.8883C162.887 70.6659 166.641 66.8265 166.527 61.6789C166.432 57.0242 163.844 50.0374 158.554 49.3549C153.264 48.6723 149.984 53.4313 151.16 58.304Z" fill="#FF8B7B"/>
<path d="M180.662 50.9935C180.662 52.3207 181.449 53.373 182.293 53.3256C183.137 53.2782 183.829 52.2164 183.791 50.8797C183.753 49.543 183.004 48.5002 182.226 48.4623C181.449 48.4244 180.539 49.7137 180.662 50.9935Z" fill="#263238"/>
<path d="M195.621 50.5037C195.621 51.8404 196.389 52.8926 197.176 52.9021C197.963 52.9116 198.712 51.7835 198.664 50.4468C198.617 49.1101 197.877 48.0673 197.005 48.1052C196.133 48.1431 195.602 49.1575 195.621 50.5037Z" fill="#263238"/>
<path d="M190.888 51.3084C192.616 55.3017 194.877 59.0424 197.609 62.4284C196.723 63.1224 195.693 63.6114 194.595 63.8605C193.497 64.1097 192.357 64.1127 191.258 63.8694L190.888 51.3084Z" fill="#FF5652"/>
<path d="M200.542 43.4691C200.695 43.3339 200.789 43.1437 200.803 42.9396C200.818 42.7355 200.751 42.5341 200.617 42.3789C200.498 42.2355 200.329 42.1438 200.143 42.123C198.923 41.913 197.67 41.9997 196.49 42.3759C195.311 42.7521 194.239 43.4067 193.365 44.2844C193.228 44.4375 193.156 44.6384 193.165 44.8439C193.174 45.0495 193.263 45.2434 193.413 45.3841V45.3841C193.571 45.5169 193.774 45.5823 193.98 45.5664C194.186 45.5504 194.377 45.4543 194.512 45.2988C195.207 44.5991 196.06 44.0764 196.998 43.7746C197.937 43.4727 198.934 43.4004 199.906 43.5639C200.013 43.5962 200.125 43.6044 200.235 43.5881C200.345 43.5717 200.449 43.531 200.542 43.4691Z" fill="#263238"/>
<path d="M185.553 45.258C185.654 45.2348 185.748 45.1916 185.832 45.1309C185.915 45.0702 185.986 44.9933 186.039 44.9048C186.092 44.8164 186.127 44.7181 186.141 44.6159C186.155 44.5137 186.149 44.4096 186.122 44.31C186.077 44.1324 185.974 43.9753 185.828 43.8645C184.841 43.1161 183.688 42.6161 182.467 42.4065C181.246 42.197 179.993 42.2841 178.813 42.6605C178.629 42.7292 178.478 42.8657 178.392 43.042C178.305 43.2183 178.29 43.421 178.348 43.6085V43.6085C178.426 43.8022 178.577 43.9574 178.769 44.0408C178.96 44.1241 179.177 44.1289 179.372 44.054C180.31 43.7517 181.308 43.68 182.28 43.845C183.252 44.01 184.17 44.4069 184.956 45.002C185.029 45.0879 185.121 45.1557 185.224 45.2001C185.328 45.2445 185.44 45.2643 185.553 45.258V45.258Z" fill="#263238"/>
<path d="M195.469 69.0746C195.469 69.0746 190.454 67.4251 176.689 66.7899C178.737 72.0039 182.093 76.27 189.146 76.6112C196.199 76.9525 195.469 69.0746 195.469 69.0746Z" fill="#263238"/>
<path d="M185.524 72.402C188.398 72.3831 191.188 73.3689 193.411 75.1892C192.83 75.6833 192.155 76.0554 191.427 76.2834C190.699 76.5114 189.933 76.5906 189.174 76.5164C186.307 76.5432 183.524 75.556 181.315 73.7292C181.893 73.2388 182.563 72.8687 183.285 72.6408C184.008 72.4128 184.769 72.3317 185.524 72.402Z" fill="#FF5652"/>
<path d="M194.835 68.8934C194.803 69.4517 194.599 69.9865 194.251 70.4243C193.903 70.8622 193.428 71.1818 192.892 71.3392C188.748 71.1072 184.636 70.4722 180.615 69.4432C179.891 69.2865 179.213 68.9622 178.637 68.4963C178.061 68.0303 177.602 67.4358 177.297 66.7604C183.197 66.9242 189.068 67.6383 194.835 68.8934V68.8934Z" fill="white"/>
<path d="M208.502 123.821L201.99 114.341C201.832 114.115 201.593 113.958 201.323 113.903C201.053 113.849 200.772 113.9 200.539 114.047L189.419 121.11L188.3 116.076C188.262 115.914 188.17 115.769 188.039 115.666C187.908 115.563 187.747 115.507 187.58 115.507H185.608C185.42 115.51 185.241 115.585 185.108 115.718C184.975 115.851 184.9 116.03 184.897 116.218L184.641 133.718L178.65 139.615C180.347 139.738 182.053 139.823 183.779 139.823C185.504 139.823 187.438 139.738 189.239 139.586C191.04 139.435 193.097 139.198 194.984 138.885C197.294 137.504 199.422 135.838 201.317 133.927V133.86L208.408 125.054C208.551 124.884 208.638 124.674 208.655 124.453C208.672 124.231 208.619 124.01 208.502 123.821V123.821Z" fill="#FF8B7B"/>
<path d="M155.661 70.5618C159.614 70.5618 162.819 63.3252 162.819 54.3984C162.819 45.4716 159.614 38.235 155.661 38.235C151.709 38.235 148.504 45.4716 148.504 54.3984C148.504 63.3252 151.709 70.5618 155.661 70.5618Z" fill="#263238"/>
<path d="M156.772 54.3973C156.772 61.2324 154.317 66.7782 151.283 66.7782C148.25 66.7782 145.804 61.2324 145.804 54.3973C145.804 47.5623 148.259 42.007 151.283 42.007C154.307 42.007 156.772 47.5528 156.772 54.3973Z" fill="#263238"/>
<path opacity="0.2" d="M156.772 54.3973C156.772 61.2324 154.317 66.7782 151.283 66.7782C148.25 66.7782 145.804 61.2324 145.804 54.3973C145.804 47.5623 148.259 42.007 151.283 42.007C154.307 42.007 156.772 47.5528 156.772 54.3973Z" fill="white"/>
<path d="M219.927 120.028C208.551 120.028 202.465 111.231 202.171 94.5742C202.171 94.3228 202.271 94.0816 202.448 93.9039C202.626 93.7261 202.867 93.6262 203.119 93.6262C203.37 93.6262 203.611 93.7261 203.789 93.9039C203.967 94.0816 204.067 94.3228 204.067 94.5742C204.342 110.226 209.679 118.16 219.927 118.16C230.355 118.16 235.531 110.444 235.777 94.5742C235.777 94.3228 235.877 94.0816 236.055 93.9039C236.233 93.7261 236.474 93.6262 236.725 93.6262C236.977 93.6262 237.218 93.7261 237.396 93.9039C237.573 94.0816 237.673 94.3228 237.673 94.5742C237.417 111.496 231.445 120.028 219.927 120.028Z" fill="#263238"/>
<path d="M236.725 95.5333H203.119C202.867 95.5333 202.626 95.4334 202.448 95.2557C202.271 95.0779 202.171 94.8367 202.171 94.5853C202.171 94.3339 202.271 94.0928 202.448 93.915C202.626 93.7372 202.867 93.6373 203.119 93.6373H236.725C236.977 93.6373 237.218 93.7372 237.396 93.915C237.573 94.0928 237.673 94.3339 237.673 94.5853C237.673 94.8367 237.573 95.0779 237.396 95.2557C237.218 95.4334 236.977 95.5333 236.725 95.5333Z" fill="#263238"/>
<path d="M229.152 87.7966H210.694L211.263 67.8317L211.642 67.6516C214.206 66.3433 217.044 65.6612 219.923 65.6612C222.802 65.6612 225.639 66.3433 228.204 67.6516L228.592 67.8317L229.152 87.7966Z" fill="#263238"/>
<g opacity="0.1">
<path opacity="0.1" d="M229.152 87.7966H210.694L211.263 67.8317L211.642 67.6516C214.206 66.3433 217.044 65.6612 219.923 65.6612C222.802 65.6612 225.639 66.3433 228.204 67.6516L228.592 67.8317L229.152 87.7966Z" fill="#0F0F0F"/>
</g>
<path d="M210.694 87.7973H229.152L228.592 107.705L228.204 107.904C225.638 109.208 222.801 109.888 219.923 109.888C217.045 109.888 214.208 109.208 211.642 107.904L211.301 107.705L210.694 87.7973Z" fill="#263238"/>
<path d="M229.71 86.1933H210.201V89.5492H229.71V86.1933Z" fill="#263238"/>
<path opacity="0.12" d="M229.71 86.1933H210.201V89.5492H229.71V86.1933Z" fill="white"/>
<path d="M222.221 97.1438C221.862 97.5901 221.378 97.9197 220.83 98.091C220.283 98.2624 219.698 98.2679 219.148 98.1067C218.598 97.9455 218.107 97.6249 217.739 97.1854C217.371 96.7459 217.142 96.2072 217.08 95.6373C217.017 95.0674 217.126 94.4919 217.39 93.9834C217.655 93.4749 218.064 93.0562 218.567 92.7802C219.069 92.5042 219.642 92.3833 220.213 92.4328C220.785 92.4822 221.328 92.6997 221.776 93.0579C222.376 93.5413 222.76 94.2429 222.843 95.0088C222.927 95.7747 222.703 96.5425 222.221 97.1438V97.1438Z" fill="#263238"/>
<path opacity="0.2" d="M219.956 98.223C221.558 98.223 222.857 96.9242 222.857 95.3221C222.857 93.72 221.558 92.4213 219.956 92.4213C218.354 92.4213 217.055 93.72 217.055 95.3221C217.055 96.9242 218.354 98.223 219.956 98.223Z" fill="white"/>
<path d="M221.198 93.9598C221.198 94.1232 221.133 94.2799 221.018 94.3955C220.902 94.5111 220.746 94.576 220.582 94.576C220.418 94.576 220.26 94.5114 220.143 94.3961C220.026 94.2808 219.959 94.1241 219.956 93.9598C219.959 93.7946 220.026 93.6369 220.142 93.5201C220.259 93.4033 220.417 93.3366 220.582 93.3341C220.746 93.3366 220.903 93.4036 221.018 93.5207C221.134 93.6377 221.198 93.7955 221.198 93.9598Z" fill="#FF613A"/>
<path d="M219.927 144.839C219.676 144.839 219.435 144.739 219.257 144.561C219.079 144.383 218.979 144.142 218.979 143.891V119.082C218.979 118.83 219.079 118.589 219.257 118.411C219.435 118.233 219.676 118.134 219.927 118.134C220.179 118.134 220.42 118.233 220.597 118.411C220.775 118.589 220.875 118.83 220.875 119.082V143.872C220.878 143.998 220.855 144.123 220.808 144.24C220.762 144.358 220.693 144.464 220.604 144.554C220.516 144.644 220.411 144.716 220.294 144.765C220.178 144.814 220.053 144.839 219.927 144.839Z" fill="#263238"/>
</svg>
