<svg 
          width="30.833337783813477" 
          height="30.83333396911621" fill="none" 
          xmlns="http://www.w3.org/2000/svg">
          <path d="M 15.416668891906738 30.83333396911621 C 6.90204302752818 30.83333396911621 0 23.93129179550806 0 15.416666984558105 C 0 6.902042173608152 6.90204302752818 0 15.416668891906738 0 C 23.931294756285297 0 30.833337783813477 6.902042173608152 30.833337783813477 15.416666984558105 C 30.833337783813477 23.93129179550806 23.931294756285297 30.83333396911621 15.416668891906738 30.83333396911621 Z M 15.416668891906738 27.750000572204588 C 18.687672858703102 27.75000057220458 21.824705427954846 26.450600041974244 24.137654371197456 24.13765138488943 C 26.450603314440066 21.824702727804617 27.75000400543212 18.687670546666208 27.750004005432128 15.416666984558105 C 27.75000400543212 12.145663422450003 26.450603314440066 9.008631976435561 24.137654371197456 6.695683319350747 C 21.824705427954846 4.382734662265932 18.687672858703102 3.0833333969116223 15.416668891906738 3.083333396911621 C 12.145664925110372 3.0833333969116237 9.008633090982686 4.382734662265932 6.695684147740075 6.695683319350747 C 4.382735204497465 9.008631976435561 3.0833337783813515 12.145663422450003 3.0833337783813475 15.416666984558105 C 3.08333377838135 18.687670546666208 4.382735204497465 21.824702727804617 6.695684147740075 24.13765138488943 C 9.008633090982686 26.450600041974244 12.145664925110372 27.75000057220458 15.416668891906738 27.750000572204588 L 15.416668891906738 27.750000572204588 Z M 15.416668891906738 5.5577084773381555 C 16.64329533351012 5.5577084773381555 17.81968293751418 6.044984020763894 18.687038814202786 6.9123397901433234 C 19.554394690891392 7.779695559522753 20.04166955947876 8.956081547736328 20.04166955947876 10.182707837581619 L 20.04166955947876 16.34937463140486 C 20.04166955947876 17.576000921250152 19.554394690891392 18.752388379711665 18.687038814202786 19.619744149091094 C 17.81968293751418 20.487099918470523 16.64329533351012 20.974374726772293 15.416668891906738 20.974374726772293 C 14.190042450303356 20.974374726772293 13.013654846299294 20.487099918470523 12.146298969610688 19.619744149091094 C 11.278943092922082 18.752388379711665 10.791668224334716 17.576000921250152 10.791668224334716 16.34937463140486 L 10.791668224334716 10.182707837581619 C 10.791668224334716 8.956081547736328 11.278943092922082 7.779695559522753 12.146298969610688 6.9123397901433234 C 13.013654846299294 6.044984020763894 14.190042450303356 5.557708477338157 15.416668891906738 5.5577084773381555 L 15.416668891906738 5.5577084773381555 Z M 15.416668891906738 8.641041874249776 C 15.007793396057192 8.641041874249776 14.615664692462754 8.803467308090553 14.326546074557427 9.092585890226156 C 14.0374274566521 9.381704472361758 13.875002002716064 9.773832392318106 13.875002002716064 10.182707837581619 L 13.875002002716064 16.34937463140486 C 13.875002002716064 16.75825007666837 14.0374274566521 17.15038020199663 14.326546074557427 17.43949878413223 C 14.615664692462754 17.72861736626783 15.007793396057192 17.891041329860673 15.416668891906738 17.891041329860673 C 15.825544387756285 17.891041329860673 16.217673091350722 17.72861736626783 16.50679170925605 17.43949878413223 C 16.795910327161376 17.15038020199663 16.95833578109741 16.75825007666837 16.95833578109741 16.34937463140486 L 16.95833578109741 10.182707837581619 C 16.95833578109741 9.773832392318106 16.795910327161376 9.381704472361758 16.50679170925605 9.092585890226156 C 16.217673091350722 8.803467308090553 15.825544387756285 8.641041874249776 15.416668891906738 8.641041874249776 Z M 6.166667556762695 16.34937463140486 C 6.166667556762695 15.940499186141347 6.329093010698732 15.548370531061032 6.618211628604058 15.25925194892543 C 6.907330246509384 14.970133366789828 7.299458950103824 14.807707932949052 7.708334445953369 14.807707932949052 C 8.117209941802916 14.807707932949052 8.509338645397353 14.970133366789828 8.79845726330268 15.25925194892543 C 9.087575881208007 15.548370531061032 9.250001335144043 15.940499186141347 9.250001335144042 16.34937463140486 L 9.250001335144042 16.38329178101221 C 9.250001335144045 18.018793562066264 9.899701680640073 19.587309652635465 11.056176152261378 20.743783981177874 C 12.212650623882682 21.900258309720282 13.781166908508556 22.549960045083395 15.416668891906738 22.549960045083388 C 17.05217087530492 22.549960045083395 18.620687159930792 21.900258309720282 19.777161631552097 20.743783981177874 C 20.933636103173402 19.587309652635465 21.583336448669428 18.018793562066264 21.58333644866943 16.38329178101221 L 21.58333644866943 16.34937463140486 C 21.58333644866943 15.940499186141347 21.74576043235735 15.548370531061032 22.034879050262678 15.25925194892543 C 22.323997668168005 14.970133366789828 22.71612784201056 14.807707932949052 23.125003337860107 14.807707932949052 C 23.533878833709654 14.807707932949052 23.926009007552206 14.970133366789828 24.215127625457534 15.25925194892543 C 24.50424624336286 15.548370531061032 24.66667022705078 15.940499186141347 24.66667022705078 16.34937463140486 L 24.66667022705078 16.38329178101221 C 24.66667022705078 18.836544360702792 23.692120489876046 21.18931780737788 21.957408736498834 22.924029346136738 C 20.222696983121622 24.658740884895597 17.869921775113504 25.63329344199501 15.416668891906738 25.63329344199501 C 12.963416008699971 25.63329344199501 10.610642270939968 24.658740884895597 8.875930517562756 22.924029346136738 C 7.141218764185544 21.18931780737788 6.166667556762698 18.836544360702792 6.166667556762695 16.38329178101221 L 6.166667556762695 16.34937463140486 Z" fill="rgb(31.000000052154064,95.00000193715096,100.00000163912773)"/>
        </svg>