<svg width="29" height="28" viewBox="0 0 29 28" fill="none" xmlns="http://www.w3.org/2000/svg">
<path d="M14.2589 26.5961C21.3839 26.5961 27.1598 20.9401 27.1598 13.963C27.1598 6.98586 21.3839 1.32981 14.2589 1.32981C7.13393 1.32981 1.35799 6.98586 1.35799 13.963C1.35799 20.9401 7.13393 26.5961 14.2589 26.5961ZM14.2589 27.9259C6.38393 27.9259 0 21.6745 0 13.963C0 6.25143 6.38393 0 14.2589 0C22.1339 0 28.5178 6.25143 28.5178 13.963C28.5178 21.6745 22.1339 27.9259 14.2589 27.9259ZM12.8341 12.577L18.8678 9.45036L15.6762 15.3535L9.64763 18.4787L12.8341 12.577ZM18.9773 7.88915L11.8291 11.5933L8.05338 18.5864C7.38717 19.8203 8.28348 20.6905 9.53893 20.0397L16.6809 16.3374L20.4626 9.34277C21.1299 8.1086 20.2333 7.23827 18.9773 7.88915Z" fill="#8A8A8A"/>
</svg>
