<svg width="264" height="264" viewBox="0 0 264 264" fill="none" xmlns="http://www.w3.org/2000/svg">
<path d="M116.329 245.444C142.011 245.444 162.83 243.099 162.83 240.207C162.83 237.314 142.011 234.969 116.329 234.969C90.6473 234.969 69.8281 237.314 69.8281 240.207C69.8281 243.099 90.6473 245.444 116.329 245.444Z" fill="#EBEBEB"/>
<path d="M21.2734 220.998L48.9565 220.872L76.6342 220.824L132 220.734L187.366 220.824L215.044 220.872L242.727 220.998L215.044 221.13L187.366 221.178L132 221.262L76.6342 221.173L48.9565 221.13L21.2734 220.998Z" fill="#263238"/>
<path d="M41.9808 115.962C39.8097 112.213 38.1931 108.169 37.1812 103.956C36.1727 99.5469 36.1252 95.0483 36.4315 90.555C36.8169 84.8632 37.4399 79.1766 37.9415 73.4954C37.9415 73.4003 38.0841 73.4267 38.0788 73.4954C37.6987 78.4058 37.3185 83.3162 36.9806 88.2318C36.6691 92.8043 36.4526 97.419 37.271 101.96C38.855 110.936 43.7654 118.977 49.5681 125.868C53.1796 130.16 57.1977 134.104 61.1841 138.012C61.2264 138.054 61.1841 138.128 61.126 138.086C53.9822 131.47 46.8331 124.521 41.9808 115.962Z" fill="#263238"/>
<path d="M39.0686 72.3359C39.0686 72.3359 40.7635 76.5124 40.547 76.7606C40.3305 77.0087 34.8288 77.4787 34.6915 77.2569C34.5542 77.0351 35.1825 72.658 35.1825 72.658L39.0686 72.3359Z" fill="#2A9D8F"/>
<path d="M34.3826 38.29C43.7176 37.4875 51.9122 44.3515 52.3504 55.7827C52.7887 67.2139 42.5032 72.9849 37.804 73.3915C34.4143 73.6766 20.7021 72.0292 19.4983 57.6835C18.4792 45.4075 25.0792 39.0715 34.3826 38.29Z" fill="#2A9D8F"/>
<path opacity="0.2" d="M38.6415 58.1605C43.0384 54.4906 43.6278 47.9513 39.9579 43.5544C36.2881 39.1575 29.7487 38.5681 25.3519 42.238C20.955 45.9078 20.3656 52.4472 24.0355 56.8441C27.7053 61.2409 34.2447 61.8303 38.6415 58.1605Z" fill="white"/>
<path opacity="0.4" d="M36.4269 48.9137C37.0707 45.5483 34.8645 42.2983 31.4991 41.6545C28.1338 41.0107 24.8837 43.2169 24.2399 46.5823C23.5961 49.9476 25.8024 53.1977 29.1677 53.8415C32.5331 54.4853 35.7831 52.279 36.4269 48.9137Z" fill="white"/>
<path d="M45.1413 138.728C42.7601 131.536 43.5045 124.197 45.0516 116.911C45.9129 112.633 47.1823 108.448 48.8426 104.413C48.8796 104.318 49.0116 104.387 48.9799 104.476C47.5657 108.1 46.4858 111.845 45.7538 115.665C44.9258 119.348 44.3751 123.088 44.1065 126.853C43.7157 134.282 46.0284 141.23 49.6505 147.635C51.6938 151.241 54.054 154.642 56.4036 158.047C56.467 158.132 56.3297 158.227 56.2663 158.137C51.9262 152.118 47.5174 145.845 45.1413 138.728Z" fill="#263238"/>
<path d="M50.073 105.723C50.073 105.723 50.4109 110.216 50.1311 110.39C49.8512 110.565 44.4656 109.334 44.4075 109.076C44.3495 108.817 46.2714 104.852 46.2714 104.852L50.073 105.723Z" fill="#455A64"/>
<path d="M55.9975 71.8663C65.1266 73.9783 70.8396 82.986 67.7613 94.0053C64.6831 105.025 53.1357 107.38 48.5421 106.324C45.2263 105.563 32.6704 99.7922 35.9018 85.7738C38.6632 73.7829 46.9 69.7701 55.9975 71.8663Z" fill="#455A64"/>
<path d="M55.9975 71.8663C65.1266 73.9783 70.8396 82.986 67.7613 94.0053C64.6831 105.025 53.1357 107.38 48.5421 106.324C45.2263 105.563 32.6704 99.7922 35.9018 85.7738C38.6632 73.7829 46.9 69.7701 55.9975 71.8663Z" fill="#455A64"/>
<path opacity="0.2" d="M59.2509 86.0614C60.5421 80.4817 57.0657 74.9117 51.486 73.6205C45.9063 72.3292 40.3363 75.8057 39.045 81.3854C37.7538 86.9651 41.2303 92.535 46.81 93.8263C52.3896 95.1175 57.9596 91.6411 59.2509 86.0614Z" fill="white"/>
<path opacity="0.4" d="M42.355 84.7541C43.0432 85.7681 44.0165 86.5553 45.152 87.0163C46.2874 87.4773 47.534 87.5914 48.7343 87.3442C49.9346 87.097 51.0346 86.4996 51.8955 85.6274C52.7564 84.7553 53.3394 83.6475 53.5709 82.4441C53.8025 81.2407 53.6721 79.9957 53.1964 78.8663C52.7206 77.737 51.9207 76.774 50.8979 76.0991C49.875 75.4241 48.6751 75.0675 47.4496 75.0743C46.2242 75.0811 45.0282 75.4509 44.0129 76.1371C43.3376 76.5935 42.7589 77.1786 42.31 77.8589C41.8611 78.5392 41.5508 79.3014 41.3968 80.1018C41.2428 80.9021 41.2482 81.725 41.4126 82.5233C41.577 83.3217 41.8972 84.0797 42.355 84.7541V84.7541Z" fill="white"/>
<path d="M237.725 137.728C238.998 133.611 239.667 129.33 239.71 125.02C239.71 120.521 238.765 116.154 237.477 111.862C235.84 106.429 233.976 101.054 232.234 95.6522C232.207 95.5677 232.075 95.6205 232.102 95.705C233.559 100.383 235.016 105.061 236.431 109.75C237.746 114.116 238.96 118.546 239.187 123.124C239.636 132.19 236.658 141.076 232.556 149.033C230.005 153.991 226.985 158.701 223.965 163.384C223.933 163.437 224.002 163.495 224.039 163.442C229.525 155.443 234.916 147.1 237.725 137.728Z" fill="#263238"/>
<path d="M230.312 95.5945C230.312 95.5945 230.624 100.067 230.925 100.199C231.226 100.331 236.347 98.3348 236.374 98.0867C236.4 97.8385 233.929 94.1953 233.929 94.1953L230.312 95.5945Z" fill="#37474F"/>
<path d="M219.646 63.1165C210.966 66.4957 206.631 76.1898 211.24 86.5967C215.85 97.0036 227.556 97.6847 231.922 95.9634C235.09 94.7384 246.606 87.2725 241.426 73.93C236.965 62.5252 228.284 59.7532 219.646 63.1165Z" fill="#37474F"/>
<path opacity="0.2" d="M221.641 85.6694C227.339 85.6694 231.958 81.0503 231.958 75.3523C231.958 69.6543 227.339 65.0352 221.641 65.0352C215.943 65.0352 211.324 69.6543 211.324 75.3523C211.324 81.0503 215.943 85.6694 221.641 85.6694Z" fill="white"/>
<path opacity="0.4" d="M215.11 77.3761C215.937 78.2737 217.013 78.9057 218.2 79.1921C219.387 79.4784 220.632 79.4063 221.778 78.9847C222.924 78.5632 223.919 77.8112 224.638 76.824C225.356 75.8367 225.766 74.6585 225.815 73.4384C225.863 72.2183 225.549 71.0112 224.912 69.9697C224.274 68.9283 223.342 68.0992 222.234 67.5876C221.125 67.0759 219.889 66.9046 218.683 67.0953C217.477 67.2859 216.355 67.8301 215.458 68.6588C214.863 69.2082 214.381 69.8695 214.041 70.605C213.702 71.3404 213.51 72.1357 213.478 72.9452C213.445 73.7548 213.573 74.5628 213.853 75.323C214.133 76.0833 214.56 76.7809 215.11 77.3761V77.3761Z" fill="white"/>
<path d="M220.115 172.076C224.212 165.74 225.342 158.501 225.68 151.103C225.928 146.769 225.76 142.422 225.178 138.12C225.178 138.025 225.02 138.057 225.031 138.152C225.478 141.993 225.575 145.867 225.321 149.725C225.191 153.478 224.781 157.216 224.096 160.908C222.607 168.158 218.631 174.261 213.536 179.515C210.669 182.472 207.543 185.149 204.423 187.836C204.343 187.905 204.423 188.026 204.534 187.958C210.22 183.253 216.06 178.332 220.115 172.076Z" fill="#263238"/>
<path d="M223.663 139.074C223.663 139.074 222.211 143.298 222.433 143.552C222.655 143.805 228.151 143.948 228.273 143.721C228.394 143.494 227.539 139.185 227.539 139.185L223.663 139.074Z" fill="#2A9D8F"/>
<path d="M226.473 105.003C217.16 104.734 209.393 111.973 209.577 123.351C209.762 134.73 220.296 139.899 224.979 140.036C228.364 140.136 241.875 137.75 242.308 123.436C242.672 111.207 235.756 105.273 226.473 105.003Z" fill="#2A9D8F"/>
<path opacity="0.2" d="M213.009 119.966C213.547 121.932 214.655 123.695 216.195 125.032C217.734 126.368 219.635 127.219 221.658 127.475C223.68 127.732 225.733 127.383 227.558 126.473C229.382 125.563 230.896 124.133 231.907 122.363C232.919 120.593 233.384 118.563 233.242 116.529C233.101 114.496 232.359 112.549 231.112 110.937C229.865 109.324 228.168 108.117 226.235 107.469C224.302 106.821 222.22 106.76 220.253 107.294C218.945 107.65 217.72 108.26 216.648 109.09C215.576 109.919 214.678 110.952 214.005 112.129C213.332 113.306 212.898 114.604 212.727 115.948C212.556 117.293 212.652 118.658 213.009 119.966V119.966Z" fill="white"/>
<path opacity="0.4" d="M216.234 116.043C216.554 117.221 217.217 118.278 218.138 119.079C219.059 119.88 220.197 120.39 221.408 120.545C222.619 120.7 223.848 120.492 224.941 119.947C226.034 119.403 226.94 118.547 227.547 117.487C228.153 116.428 228.431 115.212 228.347 113.995C228.262 112.777 227.818 111.611 227.071 110.646C226.324 109.68 225.308 108.958 224.15 108.57C222.993 108.182 221.746 108.146 220.568 108.467C219.786 108.679 219.053 109.043 218.411 109.539C217.77 110.035 217.232 110.652 216.83 111.356C216.427 112.06 216.167 112.836 216.065 113.64C215.963 114.445 216.02 115.261 216.234 116.043V116.043Z" fill="white"/>
<path d="M211.498 183.089C212.026 181.352 211.228 178.997 207.036 177.84C200.674 176.082 196.096 182.672 195.547 183.506C196.133 182.545 201.682 173.859 208.113 175.586C213.198 176.974 212.913 180.897 211.498 183.089Z" fill="#455A64"/>
<path d="M211.5 183.088C211.116 183.745 210.529 184.258 209.826 184.55C207.587 185.237 202.508 185.664 195.934 183.721L195.496 183.589C195.512 183.56 195.529 183.532 195.549 183.505L195.581 183.452H195.633C202.55 184.455 207.366 183.716 209.361 183.003C209.798 182.788 210.166 182.457 210.426 182.046C210.686 181.635 210.827 181.161 210.835 180.675C210.851 180.415 210.839 180.155 210.798 179.898C211.18 180.324 211.446 180.841 211.569 181.4C211.692 181.959 211.668 182.541 211.5 183.088Z" fill="#37474F"/>
<path d="M207.358 174.013C206.503 171.997 204.19 170.112 200.093 171.347C193.873 173.221 195.082 182.351 195.257 183.491C195.019 182.208 193.05 170.45 199.306 168.522C204.259 166.991 206.873 171.041 207.358 174.013Z" fill="#455A64"/>
<path d="M207.36 174.012C207.552 174.816 207.466 175.661 207.117 176.409C205.876 178.363 202.233 181.689 195.712 183.479L195.279 183.596C195.277 183.559 195.277 183.522 195.279 183.485C195.279 183.485 195.279 183.442 195.279 183.416H195.327C201.43 180.48 204.64 177.017 205.665 175.19C206.061 174.472 205.86 173.183 205.137 172.022C204.964 171.755 204.766 171.506 204.545 171.277C205.177 171.516 205.753 171.881 206.237 172.352C206.721 172.822 207.104 173.388 207.36 174.012V174.012Z" fill="#37474F"/>
<path d="M178.99 183.089C178.462 181.352 179.259 178.997 183.451 177.84C189.814 176.082 194.392 182.672 194.941 183.506C194.355 182.545 188.805 173.859 182.374 175.586C177.295 176.974 177.58 180.897 178.99 183.089Z" fill="#455A64"/>
<path d="M178.991 183.088C179.373 183.746 179.961 184.26 180.664 184.55C182.903 185.237 187.982 185.664 194.556 183.721L194.994 183.589L194.942 183.505L194.91 183.452H194.857C187.94 184.455 183.125 183.716 181.129 183.003C180.693 182.788 180.325 182.457 180.065 182.046C179.805 181.635 179.663 181.161 179.656 180.675C179.64 180.415 179.652 180.155 179.693 179.898C179.31 180.324 179.044 180.841 178.921 181.4C178.798 181.959 178.822 182.541 178.991 183.088V183.088Z" fill="#37474F"/>
<path d="M182.711 174.013C183.566 171.997 185.879 170.112 189.976 171.347C196.196 173.221 194.987 182.351 194.813 183.491C195.05 182.208 197.02 170.45 190.763 168.522C185.81 166.991 183.213 171.041 182.711 174.013Z" fill="#455A64"/>
<path d="M182.714 174.012C182.521 174.816 182.607 175.661 182.957 176.409C184.197 178.363 187.835 181.689 194.361 183.479L194.794 183.596C194.797 183.559 194.797 183.522 194.794 183.485C194.792 183.462 194.792 183.439 194.794 183.416H194.747C188.643 180.48 185.433 177.017 184.409 175.19C184.007 174.472 184.208 173.183 184.937 172.022C185.113 171.756 185.312 171.507 185.533 171.277C184.901 171.515 184.324 171.88 183.838 172.351C183.353 172.822 182.97 173.387 182.714 174.012V174.012Z" fill="#37474F"/>
<path d="M208.703 221H177.73L176.41 183.332L210.128 184.029L208.703 221Z" fill="#2A9D8F"/>
<path opacity="0.1" d="M208.703 221H177.73L176.41 183.332L210.128 184.029L208.703 221Z" fill="black"/>
<path d="M220.041 220.998H208.699L209.169 184.027L221.429 185.004L220.041 220.998Z" fill="#2A9D8F"/>
<g opacity="0.2">
<path opacity="0.2" d="M220.041 220.998H208.699L209.169 184.027L221.429 185.004L220.041 220.998Z" fill="black"/>
</g>
<path d="M174.559 183.296L175.345 191.438H209.169V181.633L174.559 183.296Z" fill="#2A9D8F"/>
<path opacity="0.2" d="M174.559 183.296L175.345 191.438H209.169V181.633L174.559 183.296Z" fill="black"/>
<path d="M222.493 191.438H209.172V181.633L223.782 183.359L222.493 191.438Z" fill="#2A9D8F"/>
<path opacity="0.3" d="M222.493 191.438H209.172V181.633L223.782 183.359L222.493 191.438Z" fill="black"/>
<path d="M218.565 182.74L216.072 220.936H213.227L214.805 182.297L218.565 182.74Z" fill="#37474F"/>
<path d="M196.436 182.285V220.998H188.954L188.109 182.665L196.436 182.285Z" fill="#455A64"/>
<path d="M190.552 202.957C190.522 203.59 190.325 204.203 189.982 204.736C189.982 204.615 189.94 204.493 189.908 204.366C189.88 204.238 189.845 204.111 189.803 203.986C189.497 203.107 189.026 202.295 188.414 201.594C188.345 201.515 188.282 201.436 188.208 201.357L188.155 201.293L188.055 201.183C182.448 194.081 177.11 205.591 176.999 205.855C176.999 205.855 176.692 194.377 182.807 194.055C187.606 193.812 190.832 199.408 190.552 202.957Z" fill="#2A9D8F"/>
<path d="M189.982 204.738C189.843 204.939 189.674 205.117 189.48 205.266C186.555 207.505 177.579 205.963 177.02 205.868C185.468 206.681 187.775 203.608 188.181 201.301L188.234 201.364C188.308 201.443 188.372 201.523 188.44 201.602C189.048 202.306 189.519 203.117 189.829 203.994C189.871 204.12 189.903 204.252 189.934 204.374C189.966 204.495 189.961 204.617 189.982 204.738Z" fill="#2A9D8F"/>
<path opacity="0.2" d="M189.982 204.738C189.843 204.939 189.674 205.117 189.48 205.266C186.555 207.505 177.579 205.963 177.02 205.868C185.468 206.681 187.775 203.608 188.181 201.301L188.234 201.364C188.308 201.443 188.372 201.523 188.44 201.602C189.048 202.306 189.519 203.117 189.829 203.994C189.871 204.12 189.903 204.252 189.934 204.374C189.966 204.495 189.961 204.617 189.982 204.738Z" fill="black"/>
<path d="M163.225 204.26C163.314 204.887 163.569 205.48 163.964 205.976C163.968 205.852 163.981 205.728 164.001 205.606C164.001 205.474 164.043 205.342 164.069 205.21C164.291 204.306 164.683 203.453 165.226 202.697L165.405 202.443L165.453 202.375L165.543 202.259C170.448 194.65 176.858 205.601 176.995 205.854C176.995 205.854 176.208 194.397 170.083 194.661C165.289 194.877 162.623 200.759 163.225 204.26Z" fill="#2A9D8F"/>
<path d="M163.961 205.977C164.111 206.164 164.289 206.326 164.489 206.458C167.61 208.406 176.401 206.019 176.945 205.872H176.971C168.65 207.482 166.052 204.647 165.429 202.387L165.382 202.455L165.202 202.709C164.663 203.467 164.27 204.319 164.046 205.222C164.019 205.354 163.993 205.486 163.977 205.618C163.965 205.737 163.959 205.857 163.961 205.977V205.977Z" fill="#2A9D8F"/>
<path opacity="0.2" d="M163.961 205.977C164.111 206.164 164.289 206.326 164.489 206.458C167.61 208.406 176.401 206.019 176.945 205.872H176.971C168.65 207.482 166.052 204.647 165.429 202.387L165.382 202.455L165.202 202.709C164.663 203.467 164.27 204.319 164.046 205.222C164.019 205.354 163.993 205.486 163.977 205.618C163.965 205.737 163.959 205.857 163.961 205.977V205.977Z" fill="black"/>
<path d="M193.417 221H160.781L163.474 207.219L190.154 208.359L193.417 221Z" fill="#455A64"/>
<path d="M200.943 221H190.811L189.391 208.359L199.132 209.209L200.943 221Z" fill="#37474F"/>
<path d="M160.336 207.216V214.408L189.392 213.515V205.289L160.336 207.216Z" fill="#37474F"/>
<path d="M200.32 214.408L189.391 213.515V205.289L200.943 207.216L200.32 214.408Z" fill="#263238"/>
<path d="M179.491 220.999H172.664L171.973 206.447L180.04 205.914L179.491 220.999Z" fill="#2A9D8F"/>
<path d="M194.993 220.997H197.316L197.111 206.578L193.863 206.039L194.993 220.997Z" fill="#2A9D8F"/>
<path d="M217.197 167.229C217.268 167.657 217.45 168.06 217.725 168.396C217.72 168.31 217.72 168.223 217.725 168.137C217.725 168.047 217.752 167.957 217.768 167.862C217.904 167.237 218.159 166.644 218.517 166.115L218.639 165.935L218.671 165.888C218.693 165.862 218.712 165.833 218.729 165.803C221.971 160.481 226.58 167.915 226.68 168.079C226.68 168.079 225.983 160.206 221.759 160.513C218.454 160.724 216.712 164.821 217.197 167.229Z" fill="#455A64"/>
<path d="M217.738 168.393C217.848 168.52 217.978 168.627 218.124 168.71C220.31 169.998 226.318 168.182 226.693 168.087C220.991 169.344 219.153 167.438 218.683 165.891L218.652 165.938L218.53 166.118C218.173 166.648 217.919 167.241 217.78 167.865C217.78 167.96 217.749 168.05 217.738 168.14C217.733 168.224 217.733 168.309 217.738 168.393Z" fill="#263238"/>
<path d="M236.013 165.849C236.004 166.284 235.878 166.709 235.649 167.079C235.634 166.996 235.615 166.913 235.591 166.831C235.569 166.742 235.543 166.654 235.512 166.567C235.285 165.969 234.946 165.419 234.514 164.946L234.371 164.783L234.329 164.746L234.26 164.672C230.274 159.877 226.8 167.898 226.726 168.083C226.726 168.083 226.314 160.163 230.522 159.856C233.806 159.598 236.124 163.399 236.013 165.849Z" fill="#455A64"/>
<path d="M235.633 167.079C235.54 167.22 235.426 167.347 235.295 167.453C233.325 169.037 227.116 168.14 226.73 168.087C232.538 168.499 234.096 166.345 234.334 164.75L234.376 164.787L234.518 164.951C234.95 165.423 235.289 165.973 235.516 166.572C235.548 166.658 235.574 166.746 235.596 166.836C235.612 166.916 235.624 166.997 235.633 167.079V167.079Z" fill="#263238"/>
<path d="M237.602 220.998H215.41L216.223 169.439L235.384 168.758L237.602 220.998Z" fill="#2A9D8F"/>
<path opacity="0.6" d="M237.602 220.998H215.41L216.223 169.439L235.384 168.758L237.602 220.998Z" fill="white"/>
<path d="M242.146 220.998H235.841L234.875 168.758L241.375 169.972L242.146 220.998Z" fill="#2A9D8F"/>
<path d="M215.109 168.817V174.297L234.872 173.622V167.344L215.109 168.817Z" fill="#2A9D8F"/>
<path opacity="0.4" d="M215.109 168.817V174.297L234.872 173.622V167.344L215.109 168.817Z" fill="white"/>
<path d="M242.304 174.297L234.875 173.622V167.344L242.726 168.817L242.304 174.297Z" fill="#2A9D8F"/>
<path opacity="0.1" d="M242.304 174.297L234.875 173.622V167.344L242.726 168.817L242.304 174.297Z" fill="black"/>
<path d="M221.477 168.34L221.672 220.998H226.91L226.994 167.934L221.477 168.34Z" fill="#455A64"/>
<path d="M238 167.934L239.975 168.298V220.998H238.327L238 167.934Z" fill="#455A64"/>
<path d="M223.307 195.044C223.645 193.898 223.127 192.346 220.366 191.586C216.168 190.429 213.153 194.754 212.789 195.319C213.18 194.69 216.834 188.983 221.073 190.107C224.426 191.015 224.236 193.603 223.307 195.044Z" fill="#2A9D8F"/>
<path d="M223.304 195.042C223.053 195.477 222.665 195.817 222.201 196.008C220.728 196.462 217.375 196.742 213.04 195.48L212.781 195.359L212.813 195.301V195.269H212.85C217.407 195.929 220.585 195.443 221.884 194.973C222.172 194.833 222.415 194.616 222.587 194.346C222.759 194.075 222.851 193.762 222.855 193.442C222.869 193.266 222.86 193.088 222.829 192.914C223.089 193.195 223.27 193.54 223.353 193.914C223.437 194.288 223.42 194.677 223.304 195.042V195.042Z" fill="#2A9D8F"/>
<path opacity="0.2" d="M223.304 195.042C223.053 195.477 222.665 195.817 222.201 196.008C220.728 196.462 217.375 196.742 213.04 195.48L212.781 195.359L212.813 195.301V195.269H212.85C217.407 195.929 220.585 195.443 221.884 194.973C222.172 194.833 222.415 194.616 222.587 194.346C222.759 194.075 222.851 193.762 222.855 193.442C222.869 193.266 222.86 193.088 222.829 192.914C223.089 193.195 223.27 193.54 223.353 193.914C223.437 194.288 223.42 194.677 223.304 195.042V195.042Z" fill="black"/>
<path d="M220.577 189.061C220.012 187.736 218.465 186.49 215.788 187.303C211.685 188.538 212.482 194.558 212.62 195.302C212.467 194.457 211.162 186.706 215.291 185.439C218.533 184.431 220.26 187.102 220.577 189.061Z" fill="#2A9D8F"/>
<path d="M220.575 189.058C220.701 189.589 220.645 190.147 220.417 190.642C219.599 191.93 217.196 194.106 212.898 195.299L212.613 195.378V195.299C212.613 195.299 212.613 195.273 212.613 195.257C212.613 195.241 212.613 195.257 212.645 195.257C216.668 193.324 218.786 191.033 219.456 189.834C219.72 189.364 219.588 188.514 219.102 187.764C218.987 187.589 218.856 187.425 218.712 187.273C219.128 187.428 219.507 187.666 219.828 187.973C220.148 188.28 220.403 188.649 220.575 189.058V189.058Z" fill="#2A9D8F"/>
<path opacity="0.2" d="M220.575 189.058C220.701 189.589 220.645 190.147 220.417 190.642C219.599 191.93 217.196 194.106 212.898 195.299L212.613 195.378V195.299C212.613 195.299 212.613 195.273 212.613 195.257C212.613 195.241 212.613 195.257 212.645 195.257C216.668 193.324 218.786 191.033 219.456 189.834C219.72 189.364 219.588 188.514 219.102 187.764C218.987 187.589 218.856 187.425 218.712 187.273C219.128 187.428 219.507 187.666 219.828 187.973C220.148 188.28 220.403 188.649 220.575 189.058V189.058Z" fill="black"/>
<path d="M201.877 195.044C201.534 193.898 202.057 192.346 204.818 191.586C209.011 190.429 212.031 194.754 212.39 195.319C212.004 194.69 208.345 188.983 204.111 190.107C200.758 191.015 200.943 193.603 201.877 195.044Z" fill="#2A9D8F"/>
<path d="M201.879 195.044C202.129 195.48 202.517 195.82 202.983 196.01C204.456 196.464 207.803 196.744 212.138 195.482L212.429 195.398L212.392 195.34V195.308H212.36C207.798 195.968 204.625 195.482 203.321 195.012C203.034 194.87 202.792 194.653 202.621 194.383C202.449 194.113 202.356 193.801 202.349 193.481C202.338 193.305 202.347 193.128 202.376 192.953C202.119 193.229 201.939 193.567 201.852 193.933C201.765 194.3 201.774 194.682 201.879 195.044Z" fill="#2A9D8F"/>
<path opacity="0.2" d="M201.879 195.044C202.129 195.48 202.517 195.82 202.983 196.01C204.456 196.464 207.803 196.744 212.138 195.482L212.429 195.398L212.392 195.34V195.308H212.36C207.798 195.968 204.625 195.482 203.321 195.012C203.034 194.87 202.792 194.653 202.621 194.383C202.449 194.113 202.356 193.801 202.349 193.481C202.338 193.305 202.347 193.128 202.376 192.953C202.119 193.229 201.939 193.567 201.852 193.933C201.765 194.3 201.774 194.682 201.879 195.044Z" fill="black"/>
<path d="M204.336 189.061C204.901 187.736 206.448 186.49 209.125 187.303C213.227 188.538 212.43 194.558 212.293 195.302C212.446 194.457 213.745 186.706 209.621 185.439C206.374 184.431 204.647 187.102 204.336 189.061Z" fill="#2A9D8F"/>
<path d="M204.335 189.058C204.21 189.589 204.265 190.147 204.493 190.642C205.312 191.93 207.714 194.106 212.012 195.299L212.297 195.378V195.299C212.297 195.299 212.297 195.273 212.297 195.257C212.297 195.241 212.297 195.257 212.266 195.257C208.242 193.324 206.125 191.033 205.454 189.834C205.19 189.364 205.322 188.514 205.808 187.764C205.922 187.588 206.052 187.424 206.199 187.273C205.782 187.427 205.401 187.664 205.081 187.971C204.76 188.278 204.506 188.648 204.335 189.058V189.058Z" fill="#2A9D8F"/>
<path opacity="0.2" d="M204.335 189.058C204.21 189.589 204.265 190.147 204.493 190.642C205.312 191.93 207.714 194.106 212.012 195.299L212.297 195.378V195.299C212.297 195.299 212.297 195.273 212.297 195.257C212.297 195.241 212.297 195.257 212.266 195.257C208.242 193.324 206.125 191.033 205.454 189.834C205.19 189.364 205.322 188.514 205.808 187.764C205.922 187.588 206.052 187.424 206.199 187.273C205.782 187.427 205.401 187.664 205.081 187.971C204.76 188.278 204.506 188.648 204.335 189.058V189.058Z" fill="black"/>
<path d="M222.876 220.997H200.663L199.75 196.551L223.853 197.369L222.876 220.997Z" fill="#37474F"/>
<path d="M230.667 220.999H222.879L223.201 197.371L231.623 198.306L230.667 220.999Z" fill="#455A64"/>
<path d="M197.945 196.15L198.484 203.907H223.2V194.566L197.945 196.15Z" fill="#263238"/>
<path d="M232.059 203.674L223.199 203.907V194.566L232.877 196.552L232.059 203.674Z" fill="#37474F"/>
<path d="M229.56 195.875L227.939 220.998H225.98L227.068 195.363L229.56 195.875Z" fill="#2A9D8F"/>
<path opacity="0.1" d="M229.56 195.875L227.939 220.998H225.98L227.068 195.363L229.56 195.875Z" fill="black"/>
<path d="M213.518 195.191V221H208.375L207.789 195.556L213.518 195.191Z" fill="#2A9D8F"/>
<path d="M43.8945 133.944C43.8945 133.944 31.6818 132.233 34.533 117.48C34.533 117.48 48.1871 120.548 43.8945 133.944Z" fill="#2A9D8F"/>
<path opacity="0.1" d="M43.8945 133.944C43.8945 133.944 31.6818 132.233 34.533 117.48C34.533 117.48 48.1871 120.548 43.8945 133.944Z" fill="black"/>
<path d="M43.2964 130.863C43.0569 130.118 42.7803 129.385 42.4674 128.667C42.4674 128.572 42.4674 128.477 42.4357 128.387C42.4357 128.181 42.3988 127.98 42.3829 127.775C42.3513 127.336 42.3196 126.898 42.2985 126.455C42.2457 125.573 42.1876 124.691 42.1717 123.815C42.1717 123.805 42.1678 123.795 42.1609 123.788C42.154 123.781 42.1446 123.778 42.1348 123.778C42.125 123.778 42.1156 123.781 42.1086 123.788C42.1017 123.795 42.0978 123.805 42.0978 123.815C42.0978 124.702 42.0978 125.583 42.0978 126.455C42.0978 126.898 42.1401 127.336 42.1665 127.775C42.1665 127.875 42.1665 127.97 42.1665 128.07C41.4814 126.6 40.6612 125.196 39.7165 123.878C39.301 123.292 38.8551 122.728 38.3807 122.188C37.8949 121.629 37.3828 121.095 36.8865 120.546C36.8548 120.509 36.802 120.546 36.8389 120.599C37.714 121.572 38.5019 122.619 39.1938 123.73C39.5634 124.295 39.9119 124.871 40.2498 125.457L40.1389 125.409L39.7007 125.235C39.3733 125.108 39.0407 124.981 38.7028 124.86L36.7492 124.131C36.7122 124.131 36.6858 124.184 36.7492 124.2C37.3986 124.459 38.0428 124.728 38.6869 125.013L39.6321 125.42L40.1073 125.615C40.2122 125.665 40.3219 125.704 40.4346 125.731C40.6775 126.169 40.9204 126.613 41.1474 127.067C41.7137 128.211 42.2127 129.387 42.6417 130.589L42.7261 130.842C42.4024 130.654 42.0632 130.493 41.7124 130.362L40.4452 129.781C39.5898 129.39 38.7397 128.989 37.9161 128.524C37.907 128.519 37.8963 128.518 37.8864 128.521C37.8765 128.524 37.8682 128.531 37.8633 128.54C37.8584 128.549 37.8573 128.56 37.8603 128.57C37.8632 128.58 37.87 128.588 37.8791 128.593C38.7186 129.052 39.5423 129.538 40.3871 129.992C40.8042 130.224 41.2266 130.446 41.6596 130.652C42.0142 130.866 42.4011 131.021 42.8053 131.111C43.2147 132.23 43.4842 133.395 43.6079 134.58C43.7452 136.249 43.7293 137.928 43.7663 139.602C43.7663 139.628 43.8085 139.628 43.8138 139.602C43.9353 138.081 44.0039 136.55 44.0092 135.029C43.9969 133.611 43.7562 132.205 43.2964 130.863V130.863Z" fill="#263238"/>
<path d="M41.396 122.191C41.2789 123.053 41.2383 123.924 41.2745 124.794C41.2745 124.794 41.3115 124.794 41.3115 124.794C41.359 123.928 41.3696 123.067 41.4699 122.212C41.4752 122.164 41.4013 122.143 41.396 122.191Z" fill="#263238"/>
<path d="M37.9012 122.931C37.3507 122.723 36.8205 122.465 36.3172 122.16C36.313 122.157 36.3082 122.154 36.3031 122.153C36.298 122.152 36.2927 122.152 36.2876 122.153C36.2825 122.154 36.2776 122.156 36.2733 122.159C36.2691 122.162 36.2655 122.166 36.2628 122.171C36.2602 122.175 36.2586 122.18 36.258 122.185C36.2575 122.191 36.258 122.196 36.2597 122.201C36.2613 122.206 36.264 122.21 36.2676 122.214C36.2711 122.218 36.2754 122.221 36.2802 122.223C36.7687 122.552 37.3022 122.808 37.8642 122.984C37.9118 122.989 37.9329 122.941 37.9012 122.931Z" fill="#263238"/>
<path d="M44.2853 157.344C44.2853 155.992 44.2483 154.64 44.2325 153.289C44.2325 148.806 44.1744 144.313 44.0899 139.841C44.0266 136.278 43.9439 132.718 43.8418 129.159C43.8416 129.149 43.8385 129.139 43.8329 129.131C43.8273 129.122 43.8194 129.116 43.8101 129.112C43.8101 128.14 43.8101 127.169 43.8101 126.197C43.8101 126.171 43.7784 126.16 43.752 126.16C43.7256 126.16 43.6887 126.16 43.6887 126.197V129.122C43.6854 129.129 43.6837 129.136 43.6837 129.143C43.6837 129.151 43.6854 129.158 43.6887 129.164C43.5091 135.5 43.3455 141.836 43.3085 148.172C43.3085 149.461 43.3085 150.749 43.3085 152.037C43.2663 156.173 43.2504 160.306 43.261 164.435V166.404C43.261 170.185 43.3032 173.965 43.3032 177.746C43.3032 177.952 43.5303 178.052 43.7679 178.063C44.0055 178.073 44.3328 177.962 44.3328 177.73C44.3328 173.564 44.3645 169.393 44.3645 165.227C44.2958 162.624 44.3064 159.984 44.2853 157.344Z" fill="#263238"/>
<path d="M39.1832 153.263C39.1832 153.263 33.3066 148.907 27.7256 151.848C22.1446 154.789 21.2734 166.136 21.2734 166.136C21.2734 166.136 29.4627 167.308 34.6213 162.397C39.6003 157.666 39.1832 153.263 39.1832 153.263Z" fill="#2A9D8F"/>
<path d="M40.7824 153.534C39.7017 153.105 38.5317 152.951 37.3769 153.085C37.1393 153.046 36.8994 153.023 36.6588 153.017L35.8298 152.953L34.1138 152.832C32.9575 152.747 31.7959 152.679 30.6343 152.562C30.5973 152.562 30.5868 152.626 30.6343 152.631C31.78 152.779 32.9205 152.943 34.0663 153.059C34.6576 153.117 35.249 153.18 35.8404 153.223L36.2733 153.265C36.0938 153.303 35.9178 153.346 35.7453 153.391C34.8226 153.662 33.9294 154.025 33.0789 154.474C32.6196 154.558 32.1602 154.69 31.7061 154.796C30.9775 154.965 30.2541 155.155 29.5308 155.324C28.1052 155.694 26.6901 156.116 25.2751 156.528C25.2653 156.528 25.2559 156.532 25.249 156.539C25.242 156.546 25.2381 156.555 25.2381 156.565C25.2381 156.575 25.242 156.584 25.249 156.591C25.2559 156.598 25.2653 156.602 25.2751 156.602C26.6901 156.253 28.1104 155.936 29.5308 155.599L31.5952 155.102L32.1232 154.975C30.5573 155.965 29.1598 157.198 27.9837 158.629C26.8384 160.036 25.8652 161.575 25.085 163.212C25.0815 163.221 25.0811 163.23 25.0839 163.238C25.0867 163.247 25.0926 163.254 25.1004 163.259C25.1082 163.263 25.1173 163.265 25.1262 163.263C25.135 163.261 25.1429 163.256 25.1484 163.249C26.1113 161.565 27.2919 160.015 28.6596 158.64L28.5804 158.872C28.4748 159.221 28.3639 159.564 28.2583 159.928C28.0365 160.62 27.82 161.311 27.6088 162.008C27.6088 162.051 27.6669 162.067 27.6828 162.008C27.9309 161.338 28.1685 160.662 28.4008 159.986C28.5223 159.659 28.6384 159.326 28.7546 158.994L28.9288 158.466C28.9288 158.413 28.9658 158.36 28.9869 158.307C29.6403 157.669 30.3353 157.074 31.0672 156.528C32.0371 155.818 33.0839 155.219 34.1877 154.743C34.1877 154.843 34.1508 154.944 34.1296 155.044L33.9554 155.847C33.8445 156.401 33.7336 156.961 33.628 157.52C33.4063 158.656 33.269 159.807 33.0525 160.947C33.0525 160.989 33.1159 161.011 33.1264 160.947C33.3904 159.801 33.7284 158.677 33.9818 157.531C34.1138 156.955 34.2405 156.385 34.362 155.81C34.4148 155.54 34.4676 155.282 34.5256 155.002C34.552 154.854 34.589 154.706 34.6048 154.553L34.9269 154.421C36.4687 153.851 38.1741 153.434 39.8162 153.751C40.5937 153.895 41.3233 154.23 41.9405 154.725C42.5576 155.219 43.043 155.859 43.3538 156.586C43.4066 156.713 43.6073 156.633 43.5809 156.501C43.3785 155.823 43.02 155.201 42.534 154.685C42.0481 154.17 41.4482 153.776 40.7824 153.534Z" fill="#263238"/>
<path d="M31.7871 158.398C31.6234 159.143 31.4544 159.887 31.2907 160.632C31.1063 161.347 30.9687 162.074 30.8789 162.807C30.8789 162.834 30.9211 162.834 30.9264 162.807C31.1523 162.09 31.3287 161.358 31.4544 160.616C31.597 159.882 31.7448 159.148 31.8874 158.409C31.8663 158.346 31.7976 158.325 31.7871 158.398Z" fill="#263238"/>
<path d="M26.1007 160.262C25.3563 160.642 24.6276 161.075 23.8462 161.387C23.8371 161.391 23.83 161.399 23.8265 161.408C23.8231 161.418 23.8235 161.428 23.8277 161.437C23.8319 161.446 23.8395 161.453 23.849 161.457C23.8584 161.46 23.8688 161.46 23.8779 161.456C24.646 161.108 25.395 160.721 26.1219 160.294C26.1219 160.294 26.1219 160.257 26.1007 160.262Z" fill="#263238"/>
<path d="M40.5028 145.265C40.5028 145.265 33.3167 145.73 29.9798 140.978C26.6428 136.226 27.3873 129.473 27.3873 129.473C27.3873 129.473 34.9324 130.391 37.9473 133.792C40.9622 137.192 40.5028 145.265 40.5028 145.265Z" fill="#2A9D8F"/>
<path d="M43.8785 152.353C43.6251 151.582 43.3189 150.822 43.0285 150.067C42.7381 149.312 42.4529 148.625 42.1361 147.918C41.4951 146.472 40.7759 145.062 39.9819 143.694C39.4539 142.823 38.9259 141.973 38.3979 141.138C38.3979 141.012 38.3609 140.885 38.3451 140.758C38.3081 140.531 38.2765 140.309 38.2448 140.088C38.1709 139.634 38.0917 139.18 38.0177 138.725C37.8488 137.733 37.6481 136.751 37.4897 135.758C37.4897 135.711 37.4053 135.711 37.4158 135.758C37.5584 136.74 37.6587 137.722 37.796 138.704C37.8593 139.185 37.9227 139.671 37.9966 140.151C37.9966 140.325 38.0547 140.5 38.0811 140.679C36.9841 139.077 35.7978 137.538 34.5277 136.07C34.3534 135.869 34.1792 135.679 33.9997 135.484C33.9997 135.425 33.9574 135.373 33.9363 135.315L33.7779 134.908C33.6723 134.623 33.572 134.333 33.4664 134.047C33.2657 133.488 33.0862 132.917 32.9384 132.342C32.9384 132.294 32.8539 132.316 32.8645 132.342C33.0123 132.933 33.1654 133.519 33.3397 134.1C33.4189 134.385 33.5139 134.66 33.6142 134.934L33.6617 135.077C32.743 134.074 31.7873 133.108 30.8211 132.157C30.7841 132.125 30.7366 132.157 30.7683 132.21C32.6265 134.151 34.3284 136.236 35.8582 138.446C35.6857 138.389 35.5092 138.345 35.3302 138.314C34.8022 138.203 34.2214 138.124 33.6617 138.055C32.4896 137.907 31.3227 137.759 30.1611 137.574C30.1136 137.574 30.0925 137.638 30.1611 137.648C31.2752 137.865 32.3787 138.118 33.4822 138.372C34.0102 138.488 34.5382 138.593 35.0662 138.694C35.4934 138.789 35.9147 138.909 36.3281 139.053L36.6766 139.554C37.2046 140.32 37.7326 141.101 38.2078 141.893L37.4739 141.746C36.9459 141.64 36.3598 141.54 35.8054 141.45C34.7072 141.27 33.6089 141.075 32.5265 140.832C32.5167 140.832 32.5073 140.836 32.5004 140.843C32.4935 140.85 32.4896 140.859 32.4896 140.869C32.4896 140.879 32.4935 140.888 32.5004 140.895C32.5073 140.902 32.5167 140.906 32.5265 140.906C33.6248 141.16 34.7125 141.461 35.8054 141.751C36.3334 141.893 36.8614 142.02 37.3894 142.136L38.1867 142.311C38.2946 142.336 38.4039 142.356 38.5141 142.369C39.5701 144.069 40.5469 145.811 41.4603 147.585C41.8616 148.367 42.2417 149.169 42.6166 149.951C42.9915 150.732 43.3294 151.603 43.6726 152.427C43.6726 152.591 43.9366 152.533 43.8785 152.353Z" fill="#263238"/>
<path d="M36.5228 135.845C36.3855 135.158 36.2429 134.472 36.0898 133.791C36.0898 133.743 36.0106 133.791 36.0159 133.791C36.1532 134.466 36.2852 135.142 36.4066 135.818C36.5075 136.495 36.6432 137.167 36.8132 137.83C36.7633 137.162 36.6662 136.499 36.5228 135.845Z" fill="#263238"/>
<path d="M32.3312 135.645C31.996 135.482 31.6523 135.338 31.3016 135.212L30.7736 134.996L30.4937 134.885C30.3881 134.854 30.2869 134.81 30.1928 134.753C30.1347 134.711 30.103 134.806 30.1558 134.816C30.2637 134.843 30.3669 134.886 30.462 134.943L30.7366 135.064L31.2646 135.297C31.609 135.456 31.9614 135.597 32.3206 135.719C32.3278 135.717 32.3342 135.712 32.3391 135.706C32.3439 135.7 32.347 135.693 32.3481 135.685C32.3492 135.678 32.3482 135.67 32.3452 135.663C32.3422 135.656 32.3374 135.65 32.3312 135.645V135.645Z" fill="#263238"/>
<path d="M47.8594 139.614C47.8594 139.614 52.2048 131.472 58.8206 130.236C65.4365 129.001 69.481 135.786 69.481 135.786C69.481 135.786 64.655 141.947 58.5883 143.019C52.5216 144.091 47.8594 139.614 47.8594 139.614Z" fill="#2A9D8F"/>
<path d="M63.2482 133.875C61.5259 133.645 59.7794 133.666 58.0632 133.938C58.1583 133.886 58.2586 133.828 58.3589 133.78L59.8268 133.025C60.8351 132.467 61.8713 131.961 62.9314 131.51C62.9359 131.508 62.94 131.505 62.9433 131.501C62.9467 131.497 62.9493 131.493 62.951 131.488C62.9527 131.484 62.9535 131.479 62.9533 131.474C62.9531 131.469 62.952 131.464 62.9499 131.459C62.9478 131.455 62.9449 131.451 62.9412 131.448C62.9376 131.444 62.9333 131.442 62.9286 131.44C62.924 131.438 62.919 131.437 62.9141 131.438C62.9091 131.438 62.9042 131.439 62.8997 131.441C61.8437 131.921 60.7877 132.328 59.7317 132.803C59.2037 133.041 58.6757 133.289 58.2005 133.558C57.8732 133.732 57.5088 133.896 57.192 134.086C55.7315 134.376 54.3126 134.846 52.968 135.485L53.7917 134.583C54.4095 133.907 55.0167 133.199 55.6925 132.581C55.7295 132.55 55.6925 132.502 55.6397 132.534C54.948 133.162 54.2141 133.743 53.5277 134.398C53.2004 134.715 52.8888 135.042 52.5879 135.38C52.4348 135.549 52.2869 135.723 52.1391 135.908C49.8776 137.132 47.9151 138.841 46.3924 140.914C44.8697 142.986 43.8246 145.37 43.332 147.893C43.332 147.941 43.3901 147.962 43.4007 147.893C44.3324 144.797 46.001 141.972 48.2636 139.662C50.6969 137.181 53.7596 135.408 57.1234 134.535C59.1205 134.036 61.1844 133.857 63.2376 134.007C63.2524 134.004 63.2659 133.997 63.2759 133.985C63.286 133.974 63.2921 133.96 63.2933 133.945C63.2945 133.93 63.2907 133.915 63.2826 133.902C63.2744 133.89 63.2624 133.88 63.2482 133.875V133.875Z" fill="#263238"/>
<path opacity="0.1" d="M69.4807 135.787C69.4807 135.787 64.6547 141.948 58.588 143.02C53.9575 143.844 50.14 141.436 48.5983 140.238L48.2656 139.71C48.2656 139.71 51.3967 137.07 57.3208 135.549C63.245 134.028 69.4807 135.787 69.4807 135.787Z" fill="black"/>
<path d="M59.4128 130.983C58.9044 131.28 58.4126 131.604 57.9396 131.954C57.4786 132.301 57.0524 132.692 56.6672 133.121C56.6302 133.158 56.6672 133.206 56.7252 133.174C57.1635 132.794 57.6017 132.408 58.0611 132.049C58.5025 131.686 58.9663 131.351 59.4497 131.046C59.492 131.02 59.4497 130.946 59.4128 130.983Z" fill="#263238"/>
<path d="M63.037 132.354C62.7941 132.459 62.5407 132.544 62.2978 132.649L61.5586 132.956C61.5058 132.956 61.5586 133.061 61.5586 133.04L62.2978 132.739L63.0317 132.428C63.1057 132.412 63.0793 132.338 63.037 132.354Z" fill="#263238"/>
<path d="M46.9922 149.835C46.9922 149.835 48.1538 157.892 54.2152 160.706C60.2767 163.52 67.6528 160.706 67.6528 160.706C67.6528 160.706 64.7435 143.277 46.9922 149.835Z" fill="#2A9D8F"/>
<path d="M63.4763 155.469C62.9166 155.405 62.3622 155.31 61.8078 155.21C61.5385 155.157 61.2798 155.11 60.9947 155.052L60.5723 154.967L60.0812 154.513C58.935 153.506 57.6977 152.608 56.3852 151.831C55.6693 151.404 54.9268 151.023 54.1623 150.69H54.2785L56.2743 150.775C57.5996 150.838 58.9143 150.865 60.2607 150.954C60.3083 150.954 60.3083 150.88 60.2607 150.875C58.9249 150.785 57.6207 150.643 56.2638 150.527L54.3313 150.353L53.3334 150.268L53.0747 150.242C52.7227 150.111 52.3707 149.99 52.0187 149.877C50.3668 149.311 48.5902 149.214 46.8865 149.597C45.3659 149.988 43.8452 150.986 43.4492 152.591C43.4492 152.649 43.5231 152.686 43.5443 152.628C44.1145 151.287 45.6035 150.611 46.9499 150.331C47.8539 150.161 48.7802 150.143 49.6902 150.279C49.7535 150.694 49.8561 151.102 49.9964 151.498C50.1654 152.063 50.3291 152.628 50.5244 153.198C50.8676 154.328 51.2478 155.448 51.5804 156.583C51.5782 156.588 51.5773 156.595 51.578 156.601C51.5786 156.607 51.5807 156.612 51.5841 156.617C51.5875 156.622 51.5921 156.626 51.5974 156.629C51.6027 156.632 51.6087 156.634 51.6147 156.634C51.6208 156.634 51.6267 156.632 51.6321 156.629C51.6374 156.626 51.642 156.622 51.6453 156.617C51.6487 156.612 51.6508 156.607 51.6515 156.601C51.6521 156.595 51.6513 156.588 51.6491 156.583C51.3692 155.453 51.1211 154.312 50.8623 153.177L50.4505 151.509C50.3718 151.123 50.2695 150.742 50.1443 150.368C50.6794 150.459 51.2084 150.582 51.7283 150.738C52.664 151.013 53.581 151.348 54.4739 151.741C54.5583 152.317 54.6903 152.887 54.8223 153.452C54.986 154.165 55.1708 154.867 55.3979 155.564C55.3979 155.606 55.4718 155.564 55.4612 155.564V155.432C55.3239 154.772 55.1814 154.112 55.0441 153.457C54.9279 152.929 54.8276 152.401 54.7115 151.873C55.4659 152.208 56.2025 152.582 56.9185 152.992C56.9185 153.156 56.9766 153.325 56.9977 153.473C57.0399 153.748 57.0927 154.027 57.1403 154.302C57.2564 154.92 57.3779 155.543 57.531 156.155C57.8081 157.343 58.1608 158.513 58.587 159.656C58.5822 159.663 58.5797 159.671 58.5797 159.68C58.5797 159.688 58.5822 159.696 58.587 159.703L58.6239 159.746C58.6239 159.777 58.6926 159.746 58.682 159.709C58.4022 158.515 58.0801 157.333 57.8214 156.134C57.6894 155.532 57.5574 154.936 57.4359 154.334C57.3779 154.033 57.3198 153.732 57.267 153.431C57.267 153.346 57.2353 153.256 57.2247 153.161C58.0399 153.646 58.8279 154.174 59.5849 154.745C60.8902 155.727 62.0978 156.832 63.1911 158.045C63.2387 158.093 63.3231 158.045 63.2809 157.972C62.8215 157.364 62.3622 156.773 61.8395 156.208C61.5332 155.886 61.2164 155.569 60.8943 155.258H60.9947L61.85 155.384C62.4097 155.458 62.9694 155.516 63.5343 155.58C63.5079 155.548 63.5238 155.474 63.4763 155.469Z" fill="#263238"/>
<path d="M59.2217 158.198C59.2217 158.13 59.2217 158.061 59.1848 157.992C59.1478 157.924 59.1267 157.818 59.1108 157.728C58.9841 157.2 58.8785 156.672 58.7835 156.102C58.7835 156.065 58.7148 156.076 58.7148 156.102C58.7518 156.827 58.9088 157.541 59.1795 158.214C59.1795 158.214 59.227 158.214 59.2217 158.214V158.198Z" fill="#263238"/>
<path d="M54.1459 158.073C54.1459 158.047 54.1459 158.036 54.1142 158.036C53.9452 157.324 53.7816 156.611 53.6337 155.893C53.5545 155.513 53.4753 155.138 53.4014 154.757L53.2905 154.145C53.274 153.963 53.2295 153.785 53.1585 153.617C53.1558 153.61 53.151 153.604 53.1449 153.6C53.1388 153.596 53.1316 153.594 53.1242 153.594C53.1168 153.594 53.1096 153.596 53.1035 153.6C53.0973 153.604 53.0926 153.61 53.0899 153.617C53.0885 153.975 53.1401 154.33 53.243 154.673C53.3169 155.064 53.3961 155.46 53.4806 155.85C53.6548 156.642 53.8555 157.434 54.0825 158.216C54.0855 158.224 54.0909 158.231 54.098 158.236C54.1051 158.241 54.1135 158.243 54.1221 158.243C54.1307 158.243 54.1392 158.241 54.1462 158.236C54.1533 158.231 54.1587 158.224 54.1617 158.216L54.1459 158.073Z" fill="#263238"/>
<path d="M62.9223 153.147C61.8187 152.999 60.7099 152.835 59.6064 152.703C59.5589 152.703 59.5378 152.766 59.6064 152.777C60.7099 152.941 61.8187 153.078 62.9275 153.221C62.9373 153.22 62.9465 153.215 62.9529 153.208C62.9593 153.2 62.9626 153.191 62.9619 153.181C62.9612 153.171 62.9566 153.162 62.9492 153.156C62.9417 153.149 62.9321 153.146 62.9223 153.147V153.147Z" fill="#263238"/>
<path d="M43.8895 130.944C43.8895 130.944 40.1935 114.682 57.6544 108.098C57.6544 108.098 62.4962 129.508 43.8895 130.944Z" fill="#2A9D8F"/>
<path d="M47.6591 121.719L47.8438 121.603C48.1765 121.423 48.5039 121.239 48.8312 121.075L50.8587 119.94C52.1946 119.195 53.4987 118.419 54.8504 117.69C54.8552 117.688 54.8595 117.685 54.8631 117.681C54.8666 117.678 54.8693 117.673 54.871 117.668C54.8726 117.663 54.8732 117.658 54.8726 117.653C54.8721 117.647 54.8704 117.642 54.8678 117.638C54.8652 117.633 54.8616 117.629 54.8573 117.626C54.8531 117.623 54.8482 117.621 54.843 117.62C54.8379 117.619 54.8326 117.619 54.8275 117.62C54.8224 117.622 54.8176 117.624 54.8134 117.627C53.467 118.356 52.0995 119.042 50.7478 119.739L48.7414 120.795L47.9231 121.228C48.5091 120.119 49.1322 119.037 49.8133 117.991C50.7267 116.603 51.7299 115.272 52.7701 113.973C52.7792 113.962 52.7837 113.947 52.7826 113.933C52.7816 113.918 52.7751 113.905 52.7644 113.895C52.7538 113.885 52.7397 113.879 52.7251 113.879C52.7105 113.879 52.6964 113.884 52.6856 113.894C51.152 115.383 49.7965 117.045 48.6464 118.847C48.6464 118.789 48.6464 118.731 48.6464 118.678C48.6464 118.271 48.6464 117.87 48.6781 117.463C48.6781 116.671 48.6781 115.879 48.6781 115.082C48.6781 115.072 48.6742 115.063 48.6673 115.056C48.6603 115.049 48.6509 115.045 48.6411 115.045C48.6313 115.045 48.6219 115.049 48.615 115.056C48.6081 115.063 48.6042 115.072 48.6042 115.082C48.5725 115.863 48.4774 116.666 48.4299 117.426C48.4299 117.812 48.393 118.203 48.3824 118.593C48.3824 118.804 48.3824 119.042 48.3824 119.274C48.0304 119.852 47.6872 120.432 47.3528 121.017C46.7613 122.076 46.2324 123.169 45.7688 124.29C45.7688 123.889 45.7266 123.483 45.7054 123.076C45.6526 122.189 45.5418 121.302 45.5048 120.436C45.5048 120.426 45.5009 120.417 45.494 120.41C45.4871 120.403 45.4777 120.399 45.4679 120.399C45.458 120.399 45.4486 120.403 45.4417 120.41C45.4348 120.417 45.4309 120.426 45.4309 120.436C45.4309 121.323 45.4309 122.215 45.4309 123.108C45.4309 123.551 45.4309 123.995 45.489 124.438C45.489 124.602 45.489 124.771 45.489 124.966C44.9325 126.418 44.4929 127.911 44.1743 129.433C43.8714 131.057 43.6529 132.696 43.5195 134.343C43.5195 134.343 43.5195 134.343 43.5195 134.343C43.7029 132.861 44.012 131.397 44.4435 129.966C44.66 129.195 44.8871 128.435 45.1352 127.675C45.8639 127.332 46.5608 126.904 47.2472 126.519C47.9336 126.133 48.7098 125.716 49.4384 125.315C50.8957 124.517 52.3477 123.704 53.8525 122.997C53.9 122.997 53.8525 122.912 53.8155 122.933C52.2896 123.625 50.7584 124.28 49.2589 125.045C48.5144 125.42 47.7858 125.822 47.0571 126.228C46.4499 126.571 45.8269 126.915 45.2461 127.284C45.4203 126.756 45.5946 126.276 45.7741 125.779C46.3321 124.394 46.9612 123.039 47.6591 121.719V121.719Z" fill="#263238"/>
<path d="M46.1835 118.004C46.1835 117.957 46.1043 117.957 46.1096 118.004C46.173 118.934 46.2047 119.858 46.2997 120.787C46.2997 120.798 46.3042 120.809 46.3121 120.817C46.32 120.825 46.3307 120.829 46.3419 120.829C46.3531 120.829 46.3639 120.825 46.3718 120.817C46.3797 120.809 46.3842 120.798 46.3842 120.787C46.3525 119.858 46.2522 118.928 46.1835 118.004Z" fill="#263238"/>
<path d="M54.5576 121.108C53.4646 121.546 52.3611 121.968 51.2734 122.423C51.2734 122.423 51.2734 122.486 51.2734 122.47C52.377 122.058 53.4699 121.609 54.5682 121.182C54.6262 121.161 54.6051 121.092 54.5576 121.108Z" fill="#263238"/>
<path d="M56.2209 113.604C55.1512 114.096 54.1126 114.654 53.111 115.273C53.1005 115.28 53.0932 115.291 53.0908 115.303C53.0883 115.315 53.0908 115.328 53.0978 115.339C53.1048 115.349 53.1157 115.357 53.1281 115.359C53.1405 115.361 53.1533 115.359 53.1638 115.352C54.1776 114.761 55.2072 114.19 56.2579 113.673C56.3054 113.646 56.2632 113.588 56.2209 113.604Z" fill="#263238"/>
<path d="M55.9579 166.109H30.7617V192.668H55.9579V166.109Z" fill="#455A64"/>
<path d="M30.3118 175.508H29.0234V221H30.3118V175.508Z" fill="#263238"/>
<path d="M57.5579 175.508H56.2695V221H57.5579V175.508Z" fill="#263238"/>
<path d="M44.6203 175.508H43.332V221H44.6203V175.508Z" fill="#263238"/>
<path d="M56.9075 190.969H29.668V194.649H56.9075V190.969Z" fill="#263238"/>
<path d="M98.9947 237.352C97.6536 236.892 67.1352 213.386 66.5438 211.754C66.3062 211.136 69.4742 206.474 73.4606 200.983C73.4976 200.925 73.5398 200.872 73.582 200.814C74.4057 199.679 89.0894 180.75 89.0894 180.75L109.153 196.622L93.456 215.756L93.1867 216.084C93.1867 216.084 100.848 230.308 101.307 232.172C101.767 234.036 100.32 237.816 98.9947 237.352Z" fill="#D3766A"/>
<path d="M66.5305 211.726C67.1219 213.368 97.6403 236.869 98.9814 237.329C100.322 237.788 101.743 234.002 101.283 232.149C100.824 230.296 93.1628 216.061 93.1628 216.061L93.4321 215.733L95.3751 213.664L75.6913 198.051C75.0366 198.822 73.706 200.643 73.5793 200.812L73.4526 200.981C69.4767 206.493 66.3087 211.135 66.5305 211.726Z" fill="#EBEBEB"/>
<path d="M99.0175 237.499C97.6658 237.024 67.0207 213.169 66.4293 211.517C66.2023 210.894 69.4125 206.237 73.457 200.703L93.2623 216.015C93.2623 216.015 100.908 230.398 101.367 232.277C101.826 234.157 100.364 237.975 99.0175 237.499Z" fill="#2A9D8F"/>
<path d="M99.5278 235.932C94.4907 231.809 73.7772 215.647 68.4814 211.951C68.4392 211.919 68.418 211.951 68.4814 211.982C73.3865 216.18 94.2267 232.173 99.4856 236.017C99.5753 236.101 99.6387 236.017 99.5278 235.932Z" fill="#263238"/>
<path d="M100.252 229.648C99.6926 229.188 99.0437 228.85 98.3465 228.655C97.6493 228.459 96.919 228.411 96.2021 228.513C94.9104 228.684 93.7342 229.346 92.918 230.361C92.918 230.393 92.9497 230.435 92.9813 230.409C93.9477 229.528 95.1731 228.985 96.4742 228.859C97.7753 228.734 99.0821 229.033 100.199 229.712C100.203 229.717 100.208 229.721 100.214 229.724C100.219 229.726 100.225 229.728 100.232 229.728C100.238 229.728 100.244 229.727 100.25 229.724C100.256 229.722 100.261 229.718 100.265 229.713C100.269 229.708 100.272 229.702 100.273 229.696C100.275 229.69 100.275 229.684 100.274 229.677C100.273 229.671 100.27 229.665 100.266 229.66C100.262 229.655 100.258 229.651 100.252 229.648V229.648Z" fill="#263238"/>
<path d="M94.8565 218.092C92.8237 216.46 89.8722 215.331 87.285 216.017C87.1847 216.043 87.2269 216.186 87.3114 216.202C89.8457 216.659 92.3239 217.387 94.7034 218.372C94.739 218.382 94.777 218.38 94.8111 218.365C94.8452 218.351 94.8735 218.325 94.8913 218.293C94.909 218.26 94.9153 218.223 94.909 218.186C94.9026 218.15 94.8842 218.117 94.8565 218.092V218.092Z" fill="#263238"/>
<path d="M95.9618 219.944C93.929 218.312 90.9775 217.182 88.3903 217.869C88.2952 217.895 88.3322 218.037 88.3903 218.053C90.9244 218.512 93.4024 219.239 95.7823 220.223C95.8006 220.235 95.8212 220.243 95.8427 220.247C95.8641 220.251 95.8862 220.251 95.9075 220.246C95.9288 220.241 95.949 220.232 95.967 220.22C95.9849 220.207 96.0002 220.192 96.012 220.173C96.0237 220.155 96.0318 220.134 96.0357 220.113C96.0395 220.091 96.0391 220.069 96.0344 220.048C96.0298 220.027 96.021 220.006 96.0085 219.989C95.996 219.971 95.9802 219.955 95.9618 219.944V219.944Z" fill="#263238"/>
<path d="M97.069 221.798C95.031 220.171 92.0847 219.042 89.4975 219.728C89.3972 219.754 89.4342 219.897 89.5239 219.913C92.0587 220.366 94.5371 221.092 96.9159 222.078C96.9516 222.088 96.9895 222.085 97.0237 222.071C97.0578 222.056 97.086 222.031 97.1038 221.999C97.1216 221.966 97.1278 221.928 97.1215 221.892C97.1152 221.856 97.0967 221.822 97.069 221.798V221.798Z" fill="#263238"/>
<path d="M98.171 223.649C96.1382 222.023 93.1867 220.893 90.5995 221.58C90.4992 221.58 90.5414 221.748 90.5995 221.764C93.1344 222.219 95.6128 222.947 97.9915 223.934C98.0292 223.954 98.0729 223.959 98.114 223.948C98.1552 223.937 98.1906 223.911 98.2133 223.875C98.236 223.839 98.2442 223.796 98.2364 223.754C98.2285 223.712 98.2052 223.675 98.171 223.649V223.649Z" fill="#263238"/>
<path d="M73.5949 208.088C71.2823 206.298 68.4944 209.889 70.8124 211.679C73.1303 213.469 75.9076 209.878 73.5949 208.088Z" fill="white"/>
<path d="M101.378 214.329C101.008 212.656 99.0385 212.481 97.6816 212.877C95.3951 213.599 93.3391 214.91 91.7204 216.679C91.7117 216.685 91.7046 216.694 91.6997 216.703C91.6948 216.713 91.6923 216.724 91.6923 216.734C91.6923 216.745 91.6948 216.756 91.6997 216.765C91.7046 216.775 91.7117 216.783 91.7204 216.79C91.6983 216.835 91.687 216.884 91.6875 216.934C91.6881 216.984 91.7004 217.033 91.7236 217.077C91.7468 217.122 91.7801 217.16 91.8208 217.189C91.8616 217.218 91.9086 217.237 91.958 217.244C94.2126 217.371 96.6044 217.772 98.822 217.217C100.137 216.885 101.7 215.913 101.378 214.329ZM95.4481 216.737C94.3393 216.7 93.2411 216.61 92.1323 216.616C93.2939 215.876 94.4238 215.095 95.6593 214.472C96.2508 214.162 96.863 213.894 97.4915 213.669C98.4683 213.337 101.821 213.189 100.285 215.586C99.4134 216.906 96.747 216.779 95.4217 216.737H95.4481Z" fill="#263238"/>
<path d="M86.0071 213.465C87.5911 215.134 89.8299 216.063 91.8151 217.161C91.8613 217.181 91.9116 217.19 91.9619 217.187C92.0122 217.185 92.0611 217.17 92.1048 217.145C92.1485 217.12 92.1856 217.085 92.2132 217.043C92.2409 217 92.2582 216.952 92.264 216.902C92.2744 216.903 92.2848 216.902 92.2946 216.898C92.3044 216.894 92.3131 216.888 92.3203 216.881C92.3274 216.873 92.3327 216.864 92.3357 216.854C92.3388 216.844 92.3395 216.833 92.3379 216.823C91.9155 214.462 90.8773 212.255 89.3283 210.424C88.4095 209.368 86.6513 208.47 85.4475 209.685C84.2436 210.899 85.0884 212.494 86.0071 213.465ZM85.6798 211.353C85.6798 208.502 88.4201 210.424 89.0643 211.226C89.4745 211.751 89.8485 212.303 90.1836 212.879C90.8964 214.067 91.4297 215.334 92.0211 216.575C91.0865 215.978 90.1097 215.466 89.1487 214.901C88.0135 214.215 85.6903 212.9 85.6798 211.332V211.353Z" fill="#263238"/>
<path d="M79.5977 192.544L99.2234 208.88C99.2234 208.88 130.661 171.788 131.812 166.218C133.121 159.882 136.764 110.282 136.68 107.811C136.579 104.812 133.274 91.6328 133.274 91.6328H109.725C109.725 91.6328 106.431 156.503 105.744 158.515C105.01 160.674 79.5977 192.544 79.5977 192.544Z" fill="#37474F"/>
<path d="M77.5156 195.651L80.2771 190.445L100.679 208.329L96.6662 211.85L77.5156 195.651Z" fill="#455A64"/>
<path d="M101.077 203.964C98.0409 201.034 86.2032 191.63 84.7089 190.859C84.6772 190.859 84.6297 190.896 84.6561 190.923C85.7121 192.195 95.8022 200.469 100.982 204.059C101.056 204.096 101.124 204.007 101.077 203.964Z" fill="#263238"/>
<path d="M134.442 101.376C134.127 101.282 133.806 101.208 133.481 101.154C133.14 101.057 132.808 100.929 132.489 100.774C131.824 100.439 131.214 100.007 130.678 99.4913C130.07 98.8411 129.595 98.0789 129.278 97.2473C129.078 96.7721 128.111 94.2483 128.106 94.2271C128.101 94.206 128.006 94.2271 128.016 94.2641C128.085 94.6179 128.745 96.7985 128.94 97.3423C129.235 98.3043 129.73 99.1932 130.392 99.9507C130.96 100.538 131.646 100.998 132.404 101.302C132.742 101.444 133.097 101.541 133.46 101.593C133.788 101.669 134.131 101.649 134.447 101.535C134.521 101.519 134.484 101.408 134.442 101.376Z" fill="#263238"/>
<path d="M113.611 92.7852L113.115 105.811L112.55 118.837L111.298 144.883C111.061 149.223 110.834 153.558 110.559 157.903C110.527 158.431 110.48 158.991 110.427 159.551C110.428 159.636 110.412 159.72 110.379 159.799C110.349 159.871 110.313 159.942 110.274 160.01C110.205 160.137 110.126 160.253 110.052 160.374C109.904 160.607 109.746 160.829 109.593 161.056C108.959 161.948 108.304 162.819 107.65 163.696C106.335 165.427 104.978 167.128 103.626 168.833C100.919 172.226 98.1915 175.609 95.4424 178.981L87.1211 189.024L95.2206 178.807C97.9187 175.401 100.617 171.996 103.283 168.569C104.621 166.855 105.943 165.132 107.248 163.4C107.903 162.534 108.553 161.663 109.176 160.76C109.329 160.538 109.477 160.316 109.624 160.089C109.772 159.862 109.936 159.641 109.925 159.45C109.968 158.922 110.01 158.394 110.042 157.866C110.295 153.537 110.511 149.191 110.728 144.851L112.101 118.816L112.824 105.8L113.611 92.7852Z" fill="#263238"/>
<path d="M132.281 162.761C132.107 164.345 131.954 165.549 131.811 166.219C131.167 169.345 120.966 182.418 112.149 193.274L106.098 155.258C107.18 141.762 109.725 91.6445 109.725 91.6445H121.441L132.281 162.761Z" fill="#263238"/>
<path d="M165.498 236.542C164.252 237.228 126.352 244.114 124.747 243.459C124.13 243.216 122.804 237.756 121.394 231.104L121.352 230.898C121.057 229.53 117.656 206.261 117.656 206.261L140.36 202.074L145.73 226.188L145.799 226.605C145.799 226.605 161.486 230.459 163.18 231.357C164.875 232.255 166.744 235.866 165.498 236.542Z" fill="#D3766A"/>
<path d="M120.797 228.272C120.982 229.169 121.161 230.046 121.351 230.912L121.388 231.123C122.803 237.765 124.129 243.235 124.746 243.473C126.33 244.127 164.257 237.242 165.497 236.556C166.738 235.87 164.88 232.279 163.195 231.371C161.511 230.463 145.819 226.619 145.819 226.619L145.75 226.202L145.344 223.609L120.797 228.272Z" fill="#EBEBEB"/>
<path d="M165.83 236.575C164.573 237.257 126.341 244.073 124.714 243.413C124.102 243.165 122.782 237.653 121.383 230.947L146.019 226.512C146.019 226.512 161.822 230.451 163.528 231.364C165.233 232.277 167.086 235.889 165.83 236.575Z" fill="#2A9D8F"/>
<path d="M165.005 235.144C158.569 236.126 132.697 240.703 126.409 242.166C126.361 242.166 126.366 242.214 126.409 242.208C132.808 241.374 158.643 236.585 165.016 235.244C165.159 235.218 165.143 235.123 165.005 235.144Z" fill="#263238"/>
<path d="M160.819 230.403C160.103 230.511 159.418 230.766 158.806 231.154C158.194 231.541 157.67 232.051 157.266 232.652C156.525 233.732 156.23 235.056 156.442 236.348C156.442 236.385 156.521 236.375 156.521 236.348C156.512 235.04 156.928 233.764 157.706 232.712C158.483 231.66 159.582 230.889 160.835 230.514C160.842 230.513 160.849 230.51 160.856 230.507C160.862 230.503 160.868 230.498 160.872 230.492C160.876 230.486 160.88 230.479 160.881 230.472C160.883 230.465 160.884 230.458 160.883 230.45C160.882 230.443 160.879 230.436 160.875 230.43C160.872 230.423 160.867 230.418 160.861 230.414C160.855 230.409 160.848 230.406 160.841 230.404C160.834 230.402 160.826 230.402 160.819 230.403V230.403Z" fill="#263238"/>
<path d="M148.619 226.68C146.048 227.097 143.234 228.533 142.014 230.904C141.966 230.993 142.098 231.057 142.167 231.004C144.203 229.432 146.399 228.08 148.72 226.97C148.746 226.949 148.764 226.92 148.773 226.888C148.783 226.856 148.782 226.822 148.771 226.79C148.76 226.758 148.739 226.731 148.712 226.711C148.685 226.691 148.653 226.68 148.619 226.68V226.68Z" fill="#263238"/>
<path d="M150.736 227.098C148.165 227.52 145.351 228.956 144.131 231.322C144.084 231.411 144.216 231.48 144.29 231.427C146.321 229.85 148.516 228.496 150.837 227.388C150.863 227.367 150.882 227.338 150.891 227.306C150.9 227.274 150.899 227.24 150.888 227.208C150.877 227.176 150.857 227.149 150.83 227.129C150.802 227.109 150.77 227.098 150.736 227.098Z" fill="#263238"/>
<path d="M152.852 227.516C150.281 227.938 147.472 229.374 146.252 231.74C146.205 231.835 146.337 231.898 146.405 231.845C148.437 230.27 150.632 228.918 152.953 227.811C152.981 227.791 153.001 227.762 153.012 227.729C153.022 227.695 153.022 227.66 153.011 227.627C153 227.594 152.978 227.565 152.95 227.545C152.921 227.525 152.887 227.515 152.852 227.516V227.516Z" fill="#263238"/>
<path d="M154.975 227.938C152.398 228.36 149.589 229.796 148.369 232.161C148.322 232.251 148.454 232.32 148.523 232.267C150.556 230.69 152.753 229.336 155.075 228.228C155.101 228.207 155.12 228.178 155.129 228.146C155.138 228.114 155.137 228.079 155.126 228.048C155.115 228.016 155.095 227.988 155.068 227.969C155.041 227.949 155.008 227.938 154.975 227.938V227.938Z" fill="#263238"/>
<path d="M126.96 235.789C124.082 236.317 124.89 240.783 127.773 240.261C130.656 239.738 129.843 235.266 126.96 235.789Z" fill="white"/>
<path d="M150.171 219.342C148.682 218.498 147.235 219.839 146.633 221.101C145.638 223.283 145.237 225.689 145.471 228.075C145.471 228.086 145.474 228.097 145.479 228.106C145.484 228.115 145.491 228.123 145.5 228.129C145.509 228.135 145.519 228.138 145.53 228.139C145.541 228.14 145.551 228.138 145.561 228.134C145.58 228.18 145.61 228.221 145.648 228.254C145.686 228.287 145.731 228.311 145.78 228.323C145.829 228.335 145.88 228.336 145.929 228.325C145.978 228.314 146.024 228.292 146.063 228.26C147.647 226.676 149.569 225.172 150.635 223.139C151.258 221.951 151.58 220.14 150.171 219.342ZM147.995 225.351C147.23 226.154 146.411 226.935 145.688 227.743C145.872 226.377 146.127 225.022 146.453 223.683C146.62 223.037 146.83 222.404 147.082 221.787C147.488 220.837 149.627 218.244 150.376 220.99C150.794 222.505 148.898 224.401 147.995 225.351Z" fill="#263238"/>
<path d="M139.267 230.161C141.559 230.108 143.75 229.058 145.883 228.329C145.929 228.309 145.97 228.279 146.002 228.24C146.034 228.201 146.056 228.156 146.067 228.107C146.077 228.058 146.076 228.007 146.064 227.958C146.051 227.91 146.027 227.865 145.994 227.827C146.003 227.821 146.01 227.813 146.015 227.803C146.019 227.793 146.022 227.783 146.022 227.772C146.022 227.761 146.019 227.751 146.015 227.741C146.01 227.731 146.003 227.723 145.994 227.717C143.955 226.454 141.621 225.748 139.225 225.668C137.826 225.668 135.983 226.349 136.057 228.06C136.162 229.681 137.926 230.209 139.267 230.161ZM137.456 228.978C135.344 227.088 138.597 226.339 139.626 226.375C140.292 226.424 140.953 226.517 141.606 226.655C142.952 226.955 144.28 227.326 145.587 227.764C144.531 228.06 143.475 228.44 142.419 228.778C141.163 229.153 138.628 230.019 137.456 228.978Z" fill="#263238"/>
<path d="M128.59 91.6342C128.59 91.6342 127.967 101.703 125.19 108.873C125.19 108.873 121.182 111.371 120.76 111.767L144.62 219.246L120.158 223.998C120.158 223.998 110.543 171.927 109.724 168.358C108.415 162.629 98.024 113.9 97.5805 111.128C96.6195 105.32 101.963 91.6289 101.963 91.6289L128.59 91.6342Z" fill="#37474F"/>
<path d="M142.123 213.876C135.396 214.884 122.534 217.609 120.95 218.263C120.913 218.263 120.95 218.348 120.95 218.348C122.661 218.321 138.332 215.212 142.133 213.997C142.213 213.976 142.191 213.865 142.123 213.876Z" fill="#263238"/>
<path d="M104.959 101.376C105.45 101.265 105.973 101.302 106.469 101.239C107.003 101.176 107.532 101.078 108.053 100.943C109.025 100.691 109.959 100.309 110.83 99.8082C111.675 99.2768 112.371 98.5391 112.853 97.6645C113.138 97.2051 114.437 94.7288 114.437 94.713C114.437 94.6971 114.595 94.713 114.579 94.7605C114.505 95.109 113.655 97.2579 113.391 97.7965C112.948 98.8119 112.227 99.6813 111.311 100.304C110.361 100.883 109.315 101.284 108.222 101.487C107.662 101.602 107.093 101.668 106.522 101.683C105.989 101.73 105.453 101.679 104.938 101.535C104.848 101.519 104.89 101.408 104.959 101.376Z" fill="#263238"/>
<path d="M125.772 108.603C123.543 109.391 121.388 110.373 119.331 111.539C119.317 111.549 119.308 111.563 119.303 111.58C119.299 111.596 119.3 111.613 119.307 111.628C119.314 111.644 119.326 111.656 119.34 111.664C119.355 111.672 119.372 111.674 119.389 111.671C121.559 110.758 123.771 109.892 125.894 108.862C125.928 108.846 125.955 108.817 125.967 108.781C125.98 108.746 125.979 108.706 125.962 108.672C125.946 108.638 125.917 108.611 125.882 108.598C125.846 108.585 125.807 108.587 125.772 108.603V108.603Z" fill="#263238"/>
<path d="M126.595 93.7667C126.595 93.6928 126.458 93.6717 126.458 93.7667C126.437 96.1818 126.294 98.5943 126.03 100.995C125.92 102.109 124.974 108.26 123.037 107.79C122.715 107.717 122.551 107.394 122.509 106.903C122.519 106.266 122.612 105.632 122.783 105.018C123.005 103.73 123.19 102.442 123.311 101.138C123.565 98.7154 123.565 96.2734 123.311 93.8512C123.311 93.8344 123.305 93.8183 123.293 93.8064C123.281 93.7945 123.265 93.7879 123.248 93.7879C123.231 93.7879 123.215 93.7945 123.203 93.8064C123.191 93.8183 123.184 93.8344 123.184 93.8512C123.212 97.2075 122.986 100.561 122.509 103.883C122.25 105.467 121.421 107.885 123.095 108.149C124.768 108.413 125.941 104.385 126.157 103.281C126.716 100.142 126.864 96.9438 126.595 93.7667Z" fill="#263238"/>
<path d="M123.088 107.945C122.912 108.359 122.762 108.784 122.639 109.217C122.513 109.555 122.448 109.913 122.449 110.273C122.453 110.287 122.46 110.3 122.471 110.31C122.481 110.321 122.494 110.328 122.508 110.331C122.522 110.334 122.537 110.334 122.551 110.329C122.565 110.324 122.577 110.316 122.587 110.305C122.783 109.993 122.931 109.653 123.025 109.296C123.178 108.906 123.336 108.515 123.474 108.114C123.482 108.066 123.474 108.017 123.451 107.974C123.428 107.931 123.392 107.897 123.347 107.878C123.303 107.858 123.253 107.854 123.206 107.866C123.159 107.878 123.118 107.906 123.088 107.945Z" fill="#263238"/>
<path d="M103.954 91.6328C103.289 94.1883 102.655 96.7491 102.08 99.3205C101.504 101.892 100.966 104.479 100.644 107.093L100.554 108.069C100.522 108.397 100.554 108.719 100.522 109.041L100.813 110.979L101.547 114.865L103.131 122.616L109.599 153.609L116.072 184.598L119.277 200.11L122.445 215.618L119.008 200.168L115.634 184.688L109.039 153.72C106.9 143.387 104.741 133.06 102.703 122.7L101.203 114.928L100.501 111.032L100.227 109.052C100.236 108.384 100.285 107.717 100.374 107.056C100.744 104.416 101.335 101.86 101.958 99.2941C102.581 96.728 103.241 94.1725 103.954 91.6328Z" fill="#263238"/>
<path d="M120.502 226.143L118.078 220.773L144.716 215.609L145.038 220.937L120.502 226.143Z" fill="#455A64"/>
<path d="M111.272 52.6096C110.512 58.6605 108.579 65.8096 110.691 71.7443C112.349 76.4066 116.352 79.7805 120.586 82.0773C129.89 87.1197 143.38 88.767 150.92 79.7277C153.929 76.1162 155.028 68.1698 150.782 64.8909C148.602 63.2118 145.888 62.6469 143.348 61.7229C141.756 61.2144 140.299 60.3537 139.085 59.2047C137.871 58.0557 136.931 56.6479 136.336 55.0859C133.733 48.6126 134.721 44.1035 134.668 37.324C134.709 36.6524 134.61 35.9796 134.376 35.3487C134.142 34.7177 133.78 34.1425 133.311 33.6597C132.288 32.4941 130.969 31.6274 129.494 31.1517C128.25 30.4894 126.863 30.1448 125.454 30.1485C122.45 30.2224 119.366 32.7409 116.922 34.2669C114.477 35.7928 113.226 37.5457 112.814 40.4603C112.244 44.4837 111.784 48.5757 111.272 52.6096Z" fill="#263238"/>
<path d="M110.29 55.4392C111.346 49.9374 112.508 44.4673 113.632 38.9867C113.632 38.955 113.69 38.9603 113.685 38.9867C112.893 43.5275 112.159 48.0683 111.304 52.5985C110.464 57.0337 109.298 61.5428 108.854 66.0361C107.851 76.1315 117.914 81.0788 126.553 81.2742C126.943 81.2742 126.885 81.9078 126.489 81.8867C118.912 81.4748 110.095 78.1907 108.474 69.7427C107.587 65.1544 109.43 59.906 110.29 55.4392Z" fill="#263238"/>
<path d="M134.22 36.7603C134.22 36.7379 134.229 36.7164 134.245 36.7005C134.261 36.6847 134.282 36.6758 134.305 36.6758C134.327 36.6758 134.349 36.6847 134.364 36.7005C134.38 36.7164 134.389 36.7379 134.389 36.7603C134.194 42.3412 133.449 48.8251 136.227 53.9203C137.593 56.4314 139.69 58.4679 142.241 59.7599C144.257 60.779 146.465 61.0324 148.613 61.6343C157.014 63.9945 156.169 75.526 149.606 79.523C149.469 79.6075 149.321 79.3699 149.453 79.2801C154.099 76.1543 156.048 69.9451 152.859 65.0241C150.303 61.0694 144.722 61.8139 140.989 59.4907C133.249 54.6859 133.402 44.8175 134.22 36.7603Z" fill="#263238"/>
<path d="M128.832 57.3254C134.35 61.1587 154.979 75.0609 155.338 80.7792C155.665 86.0592 149.741 88.6992 145.628 86.6347C142.618 85.1405 128.278 67.4525 125.648 62.4523C123.119 57.6897 123.383 53.5608 128.832 57.3254Z" fill="#C7C7C7"/>
<path d="M125.622 62.4504C128.262 67.4505 142.592 85.1544 145.602 86.6328C146.612 87.1277 147.729 87.3653 148.854 87.3245L124.207 56.8008C123.843 57.9835 124.408 60.143 125.622 62.4504Z" fill="#263238"/>
<path d="M134.018 83.5075L134.06 94.2576L101.219 91.8711C101.219 91.8711 103.695 67.0815 116.768 57.1023C120.945 53.9343 124.319 55.1117 126.832 58.0527C127.408 58.7232 136.183 71.7384 136.489 76.1842C136.753 79.8591 134.018 83.5075 134.018 83.5075Z" fill="#C7C7C7"/>
<path d="M127.533 81.0048C125.822 80.927 124.107 81.0101 122.411 81.2529C121.561 81.3902 120.717 81.575 119.866 81.7809C119.444 81.8865 119.027 81.971 118.605 82.0555C118.169 82.1568 117.72 82.1906 117.274 82.1558C117.237 82.1558 117.226 82.2244 117.274 82.235C117.68 82.326 118.094 82.3825 118.51 82.404C118.916 82.4065 119.322 82.3747 119.724 82.3089C120.59 82.1822 121.45 82.0027 122.311 81.8654C124.054 81.5856 125.796 81.3057 127.538 81.1896C127.607 81.1843 127.618 81.01 127.533 81.0048Z" fill="#263238"/>
<path d="M131.335 83.5893C129.995 83.18 128.628 82.8694 127.243 82.66C126.543 82.5623 125.838 82.5024 125.131 82.4805C124.798 82.4805 124.46 82.4805 124.122 82.4805C123.785 82.4805 123.378 82.5438 123.008 82.5385C122.971 82.5385 122.961 82.6177 123.008 82.6177C123.357 82.6177 123.7 82.7286 124.064 82.7761L125.12 82.9081C125.812 82.9979 126.504 83.0982 127.195 83.1827C128.584 83.3464 129.967 83.5259 131.345 83.7529C131.388 83.7477 131.404 83.6104 131.335 83.5893Z" fill="#263238"/>
<path d="M115.664 57.3568C109.714 60.472 89.7131 76.4387 89.5071 82.1728C89.3171 87.4528 97.5591 91.397 101.614 89.248C104.587 87.664 116.208 68.128 118.706 63.0698C121.082 58.2333 120.77 54.6799 115.664 57.3568Z" fill="#C7C7C7"/>
<path d="M103.88 87.0079C104.408 86.1473 112.291 74.0772 112.856 73.2324C113.421 72.3876 113.912 71.5164 114.482 70.6875C115.052 69.8585 115.617 69.1035 116.203 68.2903C116.203 68.2587 116.272 68.2903 116.256 68.3273C115.781 69.2091 115.285 70.0855 114.767 70.9673C114.477 71.4478 114.171 71.9177 113.864 72.3823C114.385 71.7901 114.946 71.2344 115.543 70.7191C115.575 70.7191 115.612 70.7455 115.586 70.7719C115.158 71.263 114.704 71.7329 114.25 72.2081C114.033 72.4351 113.817 72.6727 113.6 72.9051L113.363 73.1532C113.294 73.2588 113.22 73.3591 113.157 73.4647C110.326 78.1528 107.254 82.6909 103.954 87.0607C103.911 87.066 103.859 87.0396 103.88 87.0079Z" fill="#263238"/>
<path d="M120.086 55.3344C120.118 55.9574 123.814 60.5299 126.57 60.8889C127.467 61.0104 126.786 55.9574 126.786 55.9574L126.934 55.6089L128.962 50.7777L123.729 45.936L122.964 45.2812C122.964 45.2812 122.494 46.6382 121.908 48.3384C121.908 48.4176 121.855 48.4968 121.823 48.5812C121.791 48.6657 121.754 48.766 121.728 48.8558C121.644 49.1092 121.554 49.3838 121.469 49.6267C121.385 49.8696 121.343 50.0174 121.284 50.2233C121.226 50.4292 121.158 50.6352 121.094 50.8464C120.657 52.3179 120.32 53.8173 120.086 55.3344V55.3344Z" fill="#D3766A"/>
<path d="M121.926 48.3172C122.18 49.8234 122.759 51.2561 123.624 52.5154C124.488 53.7747 125.617 54.8304 126.931 55.6089L128.959 50.7777L123.726 45.936L122.961 45.2812C122.961 45.2812 122.496 46.6171 121.926 48.3172Z" fill="#263238"/>
<path d="M136.85 42.9357C137.04 52.1388 131.57 53.2898 129.563 53.3268C127.763 53.3637 121.643 53.2528 120.487 44.1184C119.33 34.984 123.554 31.9903 127.683 31.6788C131.812 31.3672 136.665 33.7327 136.85 42.9357Z" fill="#D3766A"/>
<path d="M120.666 43.4816C122.857 43.6453 123.068 40.1974 123.068 40.1974C123.068 40.1974 125.566 40.1341 126.009 36.1424C126.44 36.9781 127.058 37.7028 127.816 38.2597C128.573 38.8166 129.45 39.1907 130.376 39.3526C131.083 39.5057 128.834 37.4888 128.834 37.4888C128.834 37.4888 131.521 40.2661 136.897 39.6325C137.277 39.5902 136.849 33.9353 132.81 31.7494C128.771 29.5635 124.943 30.403 122.192 32.8582C121.431 33.1963 120.765 33.7167 120.253 34.3733C119.741 35.0299 119.399 35.8025 119.256 36.6229C118.707 39.5005 119.816 43.4182 120.666 43.4816Z" fill="#263238"/>
<path d="M122.05 44.1682C122.05 44.1682 120.233 41.1692 118.882 41.7975C117.53 42.4258 118.766 46.6815 120.255 47.352C120.438 47.4477 120.64 47.5056 120.846 47.5223C121.053 47.539 121.261 47.5141 121.458 47.4491C121.654 47.3842 121.836 47.2805 121.992 47.1441C122.149 47.0077 122.276 46.8414 122.367 46.6551L122.05 44.1682Z" fill="#D3766A"/>
<path d="M119.266 43.0039V43.0461C120.322 43.5741 120.807 44.5826 121.135 45.6386C121.08 45.5273 121.001 45.4292 120.905 45.351C120.808 45.2729 120.696 45.2166 120.575 45.186C120.455 45.1554 120.329 45.1512 120.207 45.1737C120.085 45.1963 119.969 45.245 119.868 45.3166C119.862 45.319 119.857 45.3231 119.854 45.3282C119.85 45.3334 119.849 45.3394 119.849 45.3456C119.849 45.3518 119.85 45.3578 119.854 45.3629C119.857 45.3681 119.862 45.3722 119.868 45.3746C120.064 45.322 120.272 45.3329 120.462 45.406C120.651 45.4791 120.813 45.6104 120.924 45.7812C121.105 46.0576 121.256 46.3533 121.372 46.663C121.415 46.7633 121.594 46.721 121.562 46.6102C121.657 45.2215 120.723 43.2415 119.266 43.0039Z" fill="#263238"/>
<path d="M135.073 41.2961C134.861 41.2592 134.666 41.1905 134.46 41.1377C134.235 41.1137 134.024 41.013 133.864 40.8526C133.82 40.7956 133.797 40.7261 133.797 40.6546C133.797 40.5831 133.82 40.5135 133.864 40.4566C133.972 40.3601 134.104 40.2948 134.246 40.2679C134.389 40.2409 134.536 40.2532 134.671 40.3035C134.963 40.3567 135.224 40.5191 135.4 40.7575C135.436 40.8127 135.456 40.877 135.458 40.943C135.459 41.0091 135.441 41.0741 135.407 41.1306C135.373 41.187 135.323 41.2325 135.264 41.2618C135.205 41.2912 135.138 41.303 135.073 41.2961V41.2961Z" fill="#263238"/>
<path d="M129.146 40.9766C129.362 40.9766 129.557 40.908 129.774 40.871C130.007 40.8718 130.233 40.7957 130.418 40.6545C130.461 40.5976 130.485 40.528 130.485 40.4565C130.485 40.385 130.461 40.3155 130.418 40.2585C130.319 40.1522 130.193 40.0748 130.054 40.0348C129.914 39.9948 129.766 39.9936 129.626 40.0315C129.33 40.0604 129.056 40.1977 128.855 40.4169C128.817 40.47 128.795 40.5325 128.79 40.5976C128.785 40.6627 128.799 40.7279 128.829 40.7858C128.859 40.8437 128.904 40.8922 128.96 40.9259C129.016 40.9596 129.08 40.9771 129.146 40.9766V40.9766Z" fill="#263238"/>
<path d="M130.353 43.358C130.353 43.3316 130.301 43.358 130.301 43.4108C130.301 44.0391 130.211 44.7572 129.641 44.9526V44.9895C130.338 44.905 130.459 43.9494 130.353 43.358Z" fill="#263238"/>
<path d="M129.811 42.695C128.802 42.5947 128.675 44.6117 129.61 44.7067C130.545 44.8018 130.65 42.7689 129.811 42.695Z" fill="#263238"/>
<path d="M129.402 42.766C129.223 42.8716 129.033 43.0617 128.822 43.0722C128.61 43.0828 128.399 42.8557 128.251 42.6445C128.251 42.6445 128.22 42.6445 128.214 42.6445C128.188 43.03 128.309 43.4365 128.742 43.521C129.175 43.6055 129.413 43.2676 129.534 42.8874C129.534 42.8399 129.476 42.729 129.402 42.766Z" fill="#263238"/>
<path d="M133.761 43.5352C133.761 43.5352 133.809 43.5668 133.803 43.5932C133.74 44.2163 133.772 44.9396 134.331 45.1772V45.2142C133.634 45.0769 133.587 44.116 133.761 43.5352Z" fill="#263238"/>
<path d="M134.363 42.9141C135.377 42.9141 135.314 44.931 134.363 44.9363C133.413 44.9416 133.513 42.9193 134.363 42.9141Z" fill="#263238"/>
<path d="M134.78 43.0647C134.938 43.1756 135.092 43.3763 135.282 43.3921C135.472 43.4079 135.672 43.202 135.81 42.9961H135.841C135.841 43.3868 135.699 43.7828 135.313 43.8462C134.928 43.9095 134.733 43.5663 134.653 43.1756C134.643 43.1281 134.717 43.0172 134.78 43.0647Z" fill="#263238"/>
<path d="M130.07 48.4131C130.202 48.5715 130.329 48.788 130.551 48.8355C130.783 48.8533 131.017 48.8227 131.237 48.7457C131.237 48.7457 131.279 48.7457 131.237 48.7827C131.135 48.8964 131.004 48.98 130.858 49.0247C130.712 49.0693 130.556 49.0733 130.408 49.0361C130.285 48.9899 130.178 48.9078 130.102 48.8006C130.026 48.6933 129.984 48.5658 129.98 48.4342C129.996 48.3973 130.049 48.3867 130.07 48.4131Z" fill="#263238"/>
<path d="M132.799 46.2774C132.799 46.2774 132.878 47.2172 132.857 47.6607C132.857 47.6977 132.746 47.7135 132.598 47.7135C132.216 47.7632 131.827 47.7072 131.475 47.5518C131.122 47.3964 130.818 47.1474 130.597 46.8318C130.593 46.8225 130.593 46.8124 130.595 46.8028C130.598 46.7932 130.603 46.7846 130.611 46.7782C130.618 46.7718 130.628 46.7679 130.637 46.7671C130.647 46.7663 130.657 46.7686 130.666 46.7737C131.203 47.1812 131.856 47.4069 132.529 47.4179C132.566 47.2964 132.334 45.8338 132.403 45.8338C132.744 45.8812 133.078 45.9736 133.395 46.1084C133.279 44.1443 132.867 42.2118 132.762 40.2529C132.762 40.1842 132.862 40.1684 132.878 40.2529C133.402 42.2859 133.724 44.3658 133.839 46.4622C133.86 46.7367 132.968 46.3619 132.799 46.2774Z" fill="#263238"/>
<path d="M132.313 47.4663C132.075 47.7713 131.762 48.0095 131.405 48.158C131.207 48.2337 130.992 48.2466 130.787 48.1949C130.338 48.0735 130.333 47.6669 130.417 47.3132C130.464 47.1302 130.532 46.9531 130.618 46.7852C131.096 47.1867 131.69 47.4252 132.313 47.4663Z" fill="#263238"/>
<path d="M131.405 48.1573C131.207 48.233 130.992 48.2459 130.787 48.1943C130.338 48.0728 130.333 47.6663 130.417 47.3125C130.652 47.3231 130.877 47.412 131.056 47.565C131.235 47.7181 131.358 47.9266 131.405 48.1573Z" fill="#FF9CBD"/>
<path d="M126.792 55.9686L124.833 59.8917L120.213 54.3477L118.629 55.8789C118.629 55.8789 122.89 64.4377 122.953 64.0681L124.912 60.7101L127.124 63.3501L127.425 57.2253L126.792 55.9686Z" fill="white"/>
<path d="M127.467 60.2968C127.467 59.2883 127.525 58.2692 127.493 57.2555C127.493 57.2185 127.44 57.1974 127.43 57.2555C127.145 58.2112 127.108 62.0867 127.029 63.0054C126.933 62.8945 124.964 60.6822 124.943 60.7139C124.531 61.2419 123.1 63.6865 122.995 63.8819C122.324 62.5249 119.716 57.5723 118.892 56.2734C118.887 56.2676 118.879 56.2637 118.872 56.2623C118.864 56.2609 118.856 56.2621 118.849 56.2656C118.841 56.2692 118.836 56.2749 118.832 56.2821C118.828 56.2892 118.827 56.2972 118.829 56.3051C119.409 57.7254 122.847 64.3888 122.91 64.3782C123.653 63.2291 124.336 62.0431 124.959 60.8248C125.281 61.2947 127.25 63.771 127.271 63.6179C127.395 62.515 127.46 61.4065 127.467 60.2968Z" fill="#263238"/>
<path d="M122.831 60.8079C122.81 60.9989 122.739 61.1811 122.626 61.3359V61.225C122.619 61.1858 122.61 61.147 122.599 61.1088C122.528 60.8399 122.407 60.5871 122.24 60.3644L122.182 60.2852L122.156 60.2482C120.63 58.0042 118.787 61.3042 118.75 61.4098C118.75 61.4098 118.903 57.9672 120.741 58.0042C122.145 58.0095 122.995 59.7519 122.831 60.8079Z" fill="#455A64"/>
<path d="M122.625 61.3283C122.578 61.3856 122.523 61.4354 122.461 61.4761C121.537 62.0833 118.886 61.4286 118.723 61.3864C121.225 61.8088 121.986 60.9428 122.155 60.2617L122.213 60.3409C122.379 60.5636 122.501 60.8164 122.572 61.0854C122.583 61.1235 122.592 61.1623 122.598 61.2016L122.625 61.3283Z" fill="#37474F"/>
<path d="M114.63 60.61C114.643 60.7994 114.707 60.9818 114.815 61.138C114.813 61.101 114.813 61.064 114.815 61.0271C114.813 60.9884 114.813 60.9496 114.815 60.9109C114.9 60.646 115.037 60.4003 115.216 60.1876C115.234 60.1617 115.253 60.137 115.274 60.1136V60.1136L115.306 60.082C116.932 57.9119 118.616 61.328 118.648 61.4072C118.648 61.4072 118.648 57.9647 116.821 57.9119C115.448 57.8485 114.519 59.5487 114.63 60.61Z" fill="#455A64"/>
<path d="M114.816 61.1378C114.858 61.1993 114.909 61.2529 114.97 61.2962C115.862 61.9457 118.539 61.4177 118.708 61.386C116.184 61.6869 115.466 60.7841 115.329 60.0977C115.308 60.121 115.288 60.1457 115.27 60.1716C115.091 60.3844 114.955 60.6301 114.869 60.8949C114.867 60.9336 114.867 60.9724 114.869 61.0111C114.849 61.0521 114.831 61.0944 114.816 61.1378Z" fill="#37474F"/>
<path d="M119.932 76.7936L113.828 76.3554L114.383 61.207L121.574 62.0043L119.932 76.7936Z" fill="#2A9D8F"/>
<path opacity="0.1" d="M119.932 76.7936L113.828 76.3554L114.383 61.207L121.574 62.0043L119.932 76.7936Z" fill="black"/>
<path d="M122.897 77.0034L119.93 76.7922L121.186 61.9766L124.497 62.6049L122.897 77.0034Z" fill="#2A9D8F"/>
<g opacity="0.2">
<path opacity="0.2" d="M122.897 77.0034L119.93 76.7922L121.186 61.9766L124.497 62.6049L122.897 77.0034Z" fill="black"/>
</g>
<path d="M113.648 61.1371L113.728 64.4212L120.977 64.944L121.257 61.0156L113.648 61.1371Z" fill="#2A9D8F"/>
<path opacity="0.2" d="M113.648 61.1371L113.728 64.4212L120.977 64.944L121.257 61.0156L113.648 61.1371Z" fill="black"/>
<path d="M124.736 65.2185L120.977 64.944L121.256 61.0156L125.486 62.0135L124.736 65.2185Z" fill="#2A9D8F"/>
<path opacity="0.3" d="M124.736 65.2185L120.977 64.944L121.256 61.0156L125.486 62.0135L124.736 65.2185Z" fill="black"/>
<path d="M123.938 61.6544L121.837 76.9295L121.219 76.8819L122.972 61.4062L123.938 61.6544Z" fill="#37474F"/>
<path d="M118.766 61.0938L117.647 76.6275L116.227 76.5219L116.992 61.1254L118.766 61.0938Z" fill="#455A64"/>
<path d="M138.864 52.949C139.102 52.3207 138.864 51.4284 137.354 50.8898C135.041 50.0662 133.172 52.3841 132.945 52.6798C133.188 52.3418 135.474 49.2689 137.808 50.0873C139.635 50.7314 139.424 52.1782 138.864 52.949Z" fill="#2A9D8F"/>
<path d="M138.866 52.9483C138.709 53.184 138.476 53.359 138.206 53.4447C137.361 53.6453 135.465 53.6664 133.084 52.7688L132.926 52.7107V52.6791C135.46 53.2071 137.266 53.0856 138.016 52.8744C138.183 52.8087 138.329 52.697 138.437 52.5523C138.544 52.4076 138.609 52.2356 138.623 52.056C138.633 51.9595 138.633 51.8621 138.623 51.7656C138.763 51.9247 138.858 52.1174 138.901 52.3248C138.944 52.5322 138.931 52.7471 138.866 52.9483Z" fill="#2A9D8F"/>
<path opacity="0.2" d="M138.866 52.9483C138.709 53.184 138.476 53.359 138.206 53.4447C137.361 53.6453 135.465 53.6664 133.084 52.7688L132.926 52.7107V52.6791C135.46 53.2071 137.266 53.0856 138.016 52.8744C138.183 52.8087 138.329 52.697 138.437 52.5523C138.544 52.4076 138.609 52.2356 138.623 52.056C138.633 51.9595 138.633 51.8621 138.623 51.7656C138.763 51.9247 138.858 52.1174 138.901 52.3248C138.944 52.5322 138.931 52.7471 138.866 52.9483Z" fill="black"/>
<path d="M137.555 49.479C137.291 48.7081 136.499 47.9478 134.915 48.2963C132.566 48.8243 132.766 52.2404 132.803 52.6628C132.75 52.1824 132.333 47.7736 134.704 47.2244C136.589 46.7968 137.455 48.3649 137.555 49.479Z" fill="#2A9D8F"/>
<path d="M137.555 49.4797C137.602 49.783 137.546 50.0934 137.397 50.3614C136.869 51.0531 135.448 52.1778 132.988 52.6741L132.824 52.7058V52.6635C135.163 51.7395 136.446 50.5515 136.869 49.8915C136.954 49.6968 136.988 49.4835 136.968 49.2718C136.948 49.0602 136.873 48.8573 136.753 48.6824C136.696 48.5784 136.631 48.4794 136.557 48.3867C136.79 48.49 136.999 48.6405 137.171 48.8286C137.342 49.0167 137.473 49.2384 137.555 49.4797V49.4797Z" fill="#2A9D8F"/>
<path opacity="0.2" d="M137.555 49.4797C137.602 49.783 137.546 50.0934 137.397 50.3614C136.869 51.0531 135.448 52.1778 132.988 52.6741L132.824 52.7058V52.6635C135.163 51.7395 136.446 50.5515 136.869 49.8915C136.954 49.6968 136.988 49.4835 136.968 49.2718C136.948 49.0602 136.873 48.8573 136.753 48.6824C136.696 48.5784 136.631 48.4794 136.557 48.3867C136.79 48.49 136.999 48.6405 137.171 48.8286C137.342 49.0167 137.473 49.2384 137.555 49.4797V49.4797Z" fill="black"/>
<path d="M126.807 52.0835C126.664 51.4288 127.018 50.5735 128.602 50.2567C131.004 49.7815 132.525 52.3423 132.705 52.6643C132.509 52.2947 130.688 48.9261 128.259 49.4013C126.342 49.7762 126.342 51.2176 126.807 52.0835Z" fill="#2A9D8F"/>
<path d="M126.807 52.0805C126.928 52.3364 127.133 52.5432 127.388 52.6666C128.201 52.9834 130.07 53.2738 132.557 52.73L132.721 52.693V52.6613C130.134 52.8461 128.37 52.4448 127.657 52.1333C127.501 52.0422 127.373 51.9096 127.287 51.7503C127.201 51.591 127.161 51.4111 127.171 51.2304C127.171 51.1342 127.183 51.0382 127.208 50.9453C127.05 51.0843 126.93 51.2617 126.859 51.4605C126.789 51.6593 126.771 51.8728 126.807 52.0805Z" fill="#2A9D8F"/>
<path opacity="0.2" d="M126.807 52.0805C126.928 52.3364 127.133 52.5432 127.388 52.6666C128.201 52.9834 130.07 53.2738 132.557 52.73L132.721 52.693V52.6613C130.134 52.8461 128.37 52.4448 127.657 52.1333C127.501 52.0422 127.373 51.9096 127.287 51.7503C127.201 51.591 127.161 51.4111 127.171 51.2304C127.171 51.1342 127.183 51.0382 127.208 50.9453C127.05 51.0843 126.93 51.2617 126.859 51.4605C126.789 51.6593 126.771 51.8728 126.807 52.0805Z" fill="black"/>
<path d="M128.426 48.8181C128.795 48.0947 129.704 47.4611 131.187 48.0261C133.442 48.8867 132.771 52.2501 132.655 52.6514C132.777 52.1815 133.817 47.8994 131.552 46.9965C129.762 46.2995 128.685 47.7304 128.426 48.8181Z" fill="#2A9D8F"/>
<path d="M128.427 48.8195C128.334 49.1129 128.343 49.4296 128.454 49.7171C128.86 50.4721 130.117 51.7921 132.488 52.6369L132.646 52.695V52.6528C130.46 51.4067 129.362 50.0128 129.035 49.3316C128.983 49.1312 128.982 48.9211 129.032 48.7202C129.082 48.5193 129.181 48.3339 129.32 48.1806C129.39 48.0869 129.47 48.0002 129.557 47.9219C129.318 47.9866 129.094 48.0997 128.9 48.254C128.705 48.4084 128.545 48.6008 128.427 48.8195V48.8195Z" fill="#2A9D8F"/>
<path opacity="0.2" d="M128.427 48.8195C128.334 49.1129 128.343 49.4296 128.454 49.7171C128.86 50.4721 130.117 51.7921 132.488 52.6369L132.646 52.695V52.6528C130.46 51.4067 129.362 50.0128 129.035 49.3316C128.983 49.1312 128.982 48.9211 129.032 48.7202C129.082 48.5193 129.181 48.3339 129.32 48.1806C129.39 48.0869 129.47 48.0002 129.557 47.9219C129.318 47.9866 129.094 48.0997 128.9 48.254C128.705 48.4084 128.545 48.6008 128.427 48.8195V48.8195Z" fill="black"/>
<path d="M137.767 64.5481L125.285 63.6505L125.549 52.8477L139.061 54.2785L137.767 64.5481Z" fill="#37474F"/>
<path d="M142.143 64.8628L137.766 64.546L138.69 54.25L143.384 55.1159L142.143 64.8628Z" fill="#455A64"/>
<path d="M124.55 52.5469L124.539 56.924L138.425 57.9272L138.8 52.6789L124.55 52.5469Z" fill="#263238"/>
<path d="M143.415 58.1551L138.426 57.928L138.801 52.6797L144.165 54.1898L143.415 58.1551Z" fill="#37474F"/>
<path d="M142.33 53.672L140.614 64.7125L139.516 64.6333L140.947 53.2812L142.33 53.672Z" fill="#2A9D8F"/>
<path opacity="0.1" d="M142.33 53.672L140.614 64.7125L139.516 64.6333L140.947 53.2812L142.33 53.672Z" fill="black"/>
<path d="M133.338 52.6358L132.509 64.1726L129.621 63.9614L130.107 52.6094L133.338 52.6358Z" fill="#2A9D8F"/>
<path d="M137.393 77.9598L119.367 76.6609L120.946 63.9414L136.554 64.5064L137.393 77.9598Z" fill="#2A9D8F"/>
<path opacity="0.6" d="M137.393 77.9598L119.367 76.6609L120.946 63.9414L136.554 64.5064L137.393 77.9598Z" fill="white"/>
<path d="M141.079 78.2243L135.957 77.8547L136.131 64.4805L141.343 65.8427L141.079 78.2243Z" fill="#2A9D8F"/>
<path d="M120.075 63.369L119.758 67.82L135.846 68.4272L136.216 63.332L120.075 63.369Z" fill="#2A9D8F"/>
<path opacity="0.4" d="M120.075 63.369L119.758 67.82L135.846 68.4272L136.216 63.332L120.075 63.369Z" fill="white"/>
<path d="M141.842 69.4146L135.844 68.4272L136.213 63.332L142.507 64.9847L141.842 69.4146Z" fill="#2A9D8F"/>
<path opacity="0.1" d="M141.842 69.4146L135.844 68.4272L136.213 63.332L142.507 64.9847L141.842 69.4146Z" fill="black"/>
<path d="M125.277 63.3543L124.453 77.0242L128.709 77.3305L129.786 63.3438L125.277 63.3543Z" fill="#455A64"/>
<path d="M138.725 63.9883L140.304 64.4054L139.316 78.0965L137.98 78.0014L138.725 63.9883Z" fill="#455A64"/>
<path d="M115.305 103.729L139.302 105.461L139.271 78.2474L119.592 77.6719L115.305 103.729Z" fill="#455A64"/>
<path d="M109.766 103.333L117.216 103.867L120.146 77.7148L112.939 77.8204L109.766 103.333Z" fill="#263238"/>
<path d="M141.58 78.4138L141.2 83.6991L119.879 81.5079L120.312 75.457L141.58 78.4138Z" fill="#37474F"/>
<path d="M111.794 81.5818L119.878 81.5079L120.311 75.457L111.715 76.2649L111.794 81.5818Z" fill="#455A64"/>
<path d="M125.543 104.468L130.564 104.827L133.056 77.2286L127.159 76.4102L125.543 104.468Z" fill="#2A9D8F"/>
<path d="M114.139 103.648L112.434 103.526L114.567 75.9966L116.985 75.7695L114.139 103.648Z" fill="#2A9D8F"/>
<path d="M93.5218 78.911C89.0126 77.7653 88.3843 84.0643 89.5618 87.095C92.3496 94.2758 97.0066 101.319 104.684 105.86C106.595 106.99 109.673 91.8576 108.084 90.0941C106.658 88.4995 100.898 80.7854 93.5218 78.911Z" fill="#D3766A"/>
<path d="M114.489 96.0378C113.887 95.251 114.299 94.929 116.004 95.3672C117.709 95.8054 124.088 98.9946 125.012 96.6714C125.936 94.3482 116.87 89.9922 113.976 89.4747C111.083 88.9573 106.215 89.1474 106.215 89.1474C107.809 90.3512 111.41 93.6354 114.489 96.0378Z" fill="#D3766A"/>
<path d="M98.3672 100.976C103.119 105.59 108.853 109.302 115.184 109.799C115.885 109.869 116.589 109.703 117.185 109.329C120.02 109.603 121.003 108.347 121.003 108.347C123.716 107.819 124.54 106.367 124.54 106.367C124.54 106.367 127.872 106.652 128.379 104.666C128.949 102.443 124.155 102.48 121.515 100.891C115.453 97.248 107.855 90.3734 106.203 89.1484L98.3672 100.976Z" fill="#D3766A"/>
<path d="M112.467 101.535C114.228 102.622 116.061 103.589 117.953 104.429C120.081 105.213 122.264 105.84 124.484 106.303C124.498 106.303 124.511 106.309 124.521 106.319C124.531 106.329 124.537 106.342 124.537 106.356C124.537 106.37 124.531 106.383 124.521 106.393C124.511 106.403 124.498 106.409 124.484 106.409C120.105 105.946 115.937 104.29 112.435 101.62C112.356 101.556 112.393 101.488 112.467 101.535Z" fill="#263238"/>
<path d="M109.751 104.878C111.562 105.786 114.756 107.37 121.013 108.278V108.315C117.007 108.269 113.093 107.108 109.709 104.962C109.598 104.899 109.63 104.815 109.751 104.878Z" fill="#263238"/>
<path d="M108.314 106.698C111.482 108.129 113.594 108.636 117.174 109.312V109.349C113.045 109.006 111.593 108.414 108.251 106.799C108.134 106.746 108.192 106.656 108.314 106.698Z" fill="#263238"/>
<path d="M107.258 89.1279C108.388 89.0891 109.516 89.0891 110.642 89.1279C111.767 89.1754 112.886 89.3114 113.99 89.5344C115.075 89.8141 116.135 90.185 117.158 90.6432C118.193 91.0938 119.203 91.5883 120.189 92.1269C121.177 92.662 122.128 93.2636 123.034 93.9274C123.485 94.2479 123.894 94.622 124.254 95.0415C124.429 95.2467 124.58 95.4718 124.703 95.712C124.82 95.9384 124.876 96.1913 124.867 96.4459C124.824 96.937 124.302 97.2221 123.779 97.2802C123.234 97.3389 122.683 97.3103 122.147 97.1957C121.051 96.9621 119.974 96.6444 118.927 96.2453L117.343 95.6434C116.812 95.4336 116.269 95.2573 115.716 95.1154C115.571 95.0792 115.422 95.0545 115.273 95.0415C115.13 95.0415 114.988 95.0415 114.84 95.0415C114.686 95.0386 114.532 95.051 114.381 95.0784L114.249 95.1207C114.197 95.144 114.149 95.1742 114.106 95.2104L114.043 95.2949C114.03 95.3275 114.019 95.3611 114.011 95.3952C113.997 95.456 113.997 95.5192 114.011 95.58C114.079 95.7327 114.176 95.8708 114.296 95.9866C114.4 96.0908 114.509 96.1895 114.623 96.2823C114.845 96.4671 115.072 96.636 115.299 96.8103C117.11 98.1672 118.916 99.5242 120.843 100.728C121.324 101.044 121.837 101.306 122.374 101.509C122.902 101.7 123.43 101.874 123.958 102.037C125.014 102.381 126.134 102.687 127.163 103.093C127.411 103.179 127.636 103.322 127.819 103.51C128.003 103.698 128.14 103.926 128.219 104.176C128.248 104.439 128.209 104.706 128.105 104.95C128.002 105.194 127.837 105.407 127.628 105.57C127.19 105.904 126.677 106.125 126.134 106.214C125.586 106.321 125.028 106.36 124.471 106.33H124.428V106.362C124.226 106.635 123.99 106.882 123.726 107.096C123.464 107.313 123.181 107.504 122.881 107.666C122.58 107.83 122.266 107.968 121.942 108.078C121.617 108.185 121.285 108.268 120.949 108.326V108.326C120.533 108.752 120.009 109.057 119.434 109.208C120.016 109.066 120.551 108.771 120.981 108.352C121.322 108.299 121.659 108.221 121.989 108.12C122.32 108.019 122.642 107.888 122.95 107.729C123.259 107.569 123.553 107.38 123.826 107.164C124.104 106.949 124.352 106.699 124.566 106.42L124.502 106.452C125.074 106.497 125.648 106.47 126.213 106.372C126.788 106.285 127.332 106.056 127.797 105.707C128.037 105.524 128.226 105.282 128.345 105.004C128.464 104.727 128.51 104.423 128.478 104.123C128.413 103.823 128.254 103.551 128.024 103.347C127.805 103.148 127.555 102.986 127.285 102.866C126.229 102.439 125.141 102.127 124.069 101.768C123.541 101.594 123.013 101.414 122.485 101.24C121.969 101.04 121.475 100.785 121.012 100.48C119.111 99.2813 117.316 97.9138 115.51 96.5568C115.283 96.3879 115.056 96.2189 114.85 96.0288C114.639 95.8811 114.46 95.6926 114.322 95.4744C114.322 95.4427 114.322 95.4744 114.322 95.4744H114.354H114.428C114.555 95.4634 114.682 95.4634 114.808 95.4744C114.946 95.4744 115.083 95.4744 115.22 95.4744C115.352 95.487 115.483 95.51 115.611 95.5431C116.149 95.688 116.678 95.8643 117.195 96.0711L118.779 96.6677C119.844 97.0707 120.938 97.3902 122.052 97.6234C122.623 97.7423 123.21 97.7691 123.79 97.7026C124.095 97.6686 124.388 97.5637 124.645 97.3963C124.782 97.3065 124.897 97.1875 124.983 97.0479C125.069 96.9082 125.123 96.7514 125.141 96.5885C125.13 95.9768 124.884 95.3927 124.455 94.957C124.077 94.5231 123.648 94.1366 123.177 93.8059C122.253 93.1424 121.282 92.546 120.273 92.0213C119.273 91.4898 118.251 91.004 117.205 90.564C116.164 90.1161 115.084 89.7627 113.979 89.508C112.865 89.3076 111.737 89.1964 110.605 89.1754C109.504 89.0803 108.388 89.0645 107.258 89.1279Z" fill="#263238"/>
<path d="M151.142 78.0226C154.78 76.1482 156.565 81.4229 156.153 84.253C155.176 90.9586 152.578 97.9176 146.897 103.324C145.482 104.665 139.854 92.305 140.867 90.4781C141.781 88.8307 145.202 81.0903 151.142 78.0226Z" fill="#D3766A"/>
<path d="M136.547 96.8406C136.911 96.0486 136.494 95.8533 135.122 96.5661C133.749 97.2789 128.907 101.265 127.661 99.4595C126.415 97.6537 133.316 92.1256 135.697 91.1171C138.078 90.1086 142.286 89.3008 142.286 89.3008C141.157 90.6472 138.728 94.1689 136.547 96.8406Z" fill="#D3766A"/>
<path d="M151.342 97.89C148.174 102.774 143.997 107.093 138.67 108.767C138.083 108.972 137.445 108.972 136.858 108.767C134.488 109.559 133.4 108.677 133.4 108.677C130.961 108.74 129.973 107.684 129.973 107.684C129.973 107.684 127.175 108.582 126.351 106.982C125.417 105.187 129.519 104.273 131.483 102.389C135.961 98.0695 141.114 90.6775 142.286 89.3047L151.342 97.89Z" fill="#D3766A"/>
<path d="M139.356 101.154C138.06 102.434 136.679 103.625 135.222 104.718C133.554 105.811 131.807 106.778 129.995 107.611C129.983 107.616 129.974 107.626 129.969 107.637C129.964 107.649 129.964 107.663 129.968 107.675C129.973 107.687 129.983 107.696 129.995 107.701C130.007 107.706 130.02 107.706 130.032 107.701C133.686 106.436 136.924 104.194 139.393 101.217C139.472 101.149 139.425 101.096 139.356 101.154Z" fill="#263238"/>
<path d="M142.355 103.489C140.982 104.629 138.553 106.614 133.379 108.631C133.379 108.631 133.379 108.668 133.379 108.663C136.804 107.831 139.93 106.063 142.408 103.557C142.492 103.489 142.45 103.404 142.355 103.489Z" fill="#263238"/>
<path d="M143.946 104.761C141.539 106.604 139.786 107.464 136.871 108.747C136.871 108.747 136.871 108.784 136.871 108.779C140.335 107.67 141.47 106.878 144.015 104.835C144.11 104.761 144.041 104.687 143.946 104.761Z" fill="#263238"/>
</svg>
