<svg xmlns="http://www.w3.org/2000/svg" xmlns:xlink="http://www.w3.org/1999/xlink" xml:space="preserve" version="1.0" style="shape-rendering:geometricPrecision;text-rendering:geometricPrecision;image-rendering:optimizeQuality;" viewBox="0 0 9094 8747.5" x="0px" y="0px" fill-rule="evenodd" clip-rule="evenodd"><g><path class="fil0" d="M355 710c-196,0 -355,-159 -355,-355 0,-196 159,-355 355,-355l8384 0c196,0 355,159 355,355 0,196 -159,355 -355,355l-8384 0zm0 3144c-196,0 -355,-159 -355,-355 0,-196 159,-355 355,-355l4192 0c196,0 355,159 355,355 0,196 -159,355 -355,355l-4192 0zm0 3144c-196,0 -355,-159 -355,-355 0,-196 159,-355 355,-355l8384 0c196,0 355,159 355,355 0,196 -159,355 -355,355l-8384 0z"/></g><text x="0" y="7013" fill="#000000" font-size="5px" font-weight="bold" font-family="'Helvetica Neue', Helvetica, Arial-Unicode, Arial, Sans-serif">Created by Ioannis Malikoutsakis</text><text x="0" y="7018" fill="#000000" font-size="5px" font-weight="bold" font-family="'Helvetica Neue', Helvetica, Arial-Unicode, Arial, Sans-serif">from the Noun Project</text></svg>