<svg width="31" height="31" viewBox="0 0 31 31" fill="none" xmlns="http://www.w3.org/2000/svg">
<path d="M1.90344 16.8811C1.73717 16.9971 1.6199 17.1708 1.57437 17.3684C1.52884 17.566 1.55828 17.7734 1.65699 17.9506L3.66579 21.4288C3.87194 21.7852 4.34469 21.9325 4.71514 21.7512L10.85 18.7798V29.45H13.95V17.2763L20.2601 14.2182L16.1991 7.18115L1.90344 16.8811ZM28.6084 4.70735C27.7731 3.26283 26.3983 2.2091 24.7864 1.77778C23.1744 1.34645 21.4572 1.57283 20.0121 2.40715C18.6016 3.2209 17.6747 4.5136 17.2205 5.9551L21.8333 13.9469C23.3074 14.2755 24.8915 14.1174 26.3051 13.3037C27.7505 12.4691 28.8051 11.0946 29.2371 9.48252C29.669 7.87041 29.4429 6.15273 28.6084 4.70735Z" fill="white"/>
</svg>
