<svg width="30" height="29" viewBox="0 0 30 29" fill="none" xmlns="http://www.w3.org/2000/svg">
<path d="M4.28568 16.5714L16.0714 16.5724C16.6118 16.5725 17.1323 16.77 17.5284 17.1253C17.9246 17.4807 18.1673 17.9676 18.2078 18.4885L18.2143 18.6439V21.2321C18.2132 25.5821 13.621 26.9285 10.1785 26.9285C6.80461 26.9285 2.32604 25.636 2.14818 21.489L2.14282 21.2321V18.6428C2.14282 17.5512 3.01711 16.6563 4.12496 16.5776L4.28568 16.5714ZM18.45 16.5724L25.7143 16.5714C26.8435 16.5714 27.7692 17.4165 27.8507 18.4875L27.8571 18.6428V20.7143C27.856 24.6075 24.1821 25.8928 21.4285 25.8928C20.295 25.8928 19.0082 25.6701 17.8832 25.1419C18.6889 24.216 19.2118 23.0374 19.2782 21.5542L19.2857 21.2321V18.6439C19.2857 17.9168 19.0189 17.256 18.585 16.7278L18.45 16.5714H25.7143L18.45 16.5724ZM10.1785 3.10712C10.9525 3.10718 11.7188 3.25461 12.4338 3.54097C13.1488 3.82733 13.7984 4.24702 14.3456 4.77608C14.8928 5.30514 15.3269 5.9332 15.623 6.62441C15.9191 7.31563 16.0715 8.05645 16.0714 8.80458C16.0713 9.55271 15.9188 10.2935 15.6226 10.9847C15.3263 11.6758 14.8922 12.3038 14.3449 12.8328C13.7976 13.3617 13.1479 13.7813 12.4328 14.0676C11.7178 14.3538 10.9514 14.5011 10.1775 14.501C8.61444 14.5009 7.11549 13.9005 6.01036 12.832C4.90524 11.7636 4.28447 10.3145 4.28461 8.80354C4.28475 7.29262 4.9058 5.84363 6.01112 4.77535C7.11645 3.70706 8.61551 3.10698 10.1785 3.10712ZM21.9643 5.17854C22.5974 5.17854 23.2244 5.2991 23.8093 5.53332C24.3943 5.76754 24.9258 6.11085 25.3735 6.54364C25.8212 6.97642 26.1764 7.49022 26.4187 8.05568C26.661 8.62114 26.7857 9.22721 26.7857 9.83926C26.7857 10.4513 26.661 11.0574 26.4187 11.6228C26.1764 12.1883 25.8212 12.7021 25.3735 13.1349C24.9258 13.5677 24.3943 13.911 23.8093 14.1452C23.2244 14.3794 22.5974 14.5 21.9643 14.5C20.6855 14.5 19.4592 14.0089 18.555 13.1349C17.6508 12.2608 17.1428 11.0754 17.1428 9.83926C17.1428 8.60316 17.6508 7.41769 18.555 6.54364C19.4592 5.66958 20.6855 5.17854 21.9643 5.17854Z" fill="white"/>
</svg>
