<svg width="15" height="24" viewBox="0 0 15 24" fill="none" xmlns="http://www.w3.org/2000/svg">
<path d="M5.51178 15.1951C5.07715 15.1951 4.44935 15.1565 3.98574 14.7088C3.48672 14.2256 3.45452 13.5299 3.4352 13.1176L3.00057 3.56739C2.99413 3.44177 2.98447 3.31616 2.97481 3.19376C2.9233 2.52057 2.86857 1.76042 3.43198 0.951954C3.77325 0.462364 4.23686 0.169255 4.80671 0.0855096L4.84857 0.0790672L9.33333 0.00176377C9.70036 -0.00467819 10.3185 -0.0143411 10.7918 0.388282C11.3198 0.835999 11.3713 1.53817 11.397 1.91503C11.6514 5.39691 11.7061 8.93033 11.558 12.4219C11.5355 12.9823 11.4775 14.2965 10.4698 14.8795C9.99333 15.1565 9.45568 15.1597 9.06612 15.1662L5.64056 15.2016C5.60193 15.1919 5.55686 15.1951 5.51178 15.1951ZM4.95803 1.36424C4.71013 1.41255 4.58135 1.55106 4.48798 1.68634C4.20145 2.09862 4.2111 2.45293 4.2594 3.09713C4.26905 3.22919 4.27871 3.36447 4.28515 3.50619L4.71978 13.0564C4.72944 13.2787 4.74876 13.6555 4.87754 13.7811C5.01276 13.91 5.4152 13.9068 5.63091 13.9068L9.05324 13.8713C9.33011 13.8681 9.64241 13.8649 9.82592 13.7586C10.1768 13.5557 10.2477 12.9082 10.2702 12.3639C10.4183 8.92389 10.3636 5.43879 10.1125 2.00844C10.0996 1.84739 10.0738 1.46731 9.95792 1.37068C9.85489 1.28372 9.52972 1.28694 9.35587 1.29016L4.95803 1.36424Z" fill="#2A9D8F"/>
<path d="M7.57206 18.4257C6.90563 18.4257 6.23919 18.4161 5.57919 18.3967C4.46846 18.3645 3.29656 18.284 2.2953 17.6913C1.17813 17.031 0.38291 15.7684 0.115691 14.232C-0.109674 12.9275 0.0384236 11.6391 0.186521 10.3958L1.46466 10.5472C1.32944 11.7003 1.19101 12.8889 1.38418 14.013C1.587 15.179 2.15686 16.1163 2.94886 16.5833C3.68612 17.0182 4.62944 17.0794 5.61461 17.1083C6.92494 17.147 8.25782 17.1438 9.5746 17.1083C10.4535 17.0826 11.2938 17.031 11.9699 16.6735C12.836 16.2161 13.4605 15.2015 13.644 13.9582C13.8211 12.7568 13.6119 11.491 13.409 10.2702L14.6807 10.0576C14.89 11.317 15.1282 12.7439 14.919 14.1483C14.6743 15.7942 13.7986 17.1631 12.572 17.8137C11.6544 18.3001 10.6467 18.3678 9.61323 18.3967C8.93391 18.4161 8.25138 18.4257 7.57206 18.4257Z" fill="#2A9D8F"/>
<path d="M6.82322 17.8232L6.78271 22.2617L8.07051 22.2735L8.11102 17.835L6.82322 17.8232Z" fill="#2A9D8F"/>
<path d="M12.2718 21.6833L2.12598 21.8804L2.15097 23.1685L12.2968 22.9715L12.2718 21.6833Z" fill="#2A9D8F"/>
</svg>
