<svg width="53" height="31" viewBox="0 0 53 31" fill="none" xmlns="http://www.w3.org/2000/svg">
<rect x="0.5" y="0.5" width="52" height="30" rx="15" fill="white" stroke="#2A9D8F"/>
<path d="M25.0734 17.2307C24.7521 17.2307 24.2881 17.2022 23.9455 16.8713C23.5767 16.5142 23.5529 16 23.5386 15.6952L23.2173 8.63666C23.2126 8.54382 23.2054 8.45097 23.1983 8.36051C23.1602 7.86296 23.1198 7.30113 23.5362 6.70359C23.7884 6.34173 24.1311 6.1251 24.5523 6.0632L24.5832 6.05844L27.8979 6.0013C28.1692 5.99654 28.626 5.9894 28.9758 6.28698C29.3661 6.61789 29.4041 7.13686 29.4232 7.4154C29.6112 9.98886 29.6516 12.6004 29.5422 15.181C29.5255 15.5952 29.4827 16.5665 28.7379 16.9974C28.3857 17.2022 27.9883 17.2046 27.7004 17.2093L25.1686 17.2355C25.14 17.2284 25.1067 17.2307 25.0734 17.2307ZM24.6641 7.00831C24.4809 7.04402 24.3857 7.14639 24.3167 7.24637C24.1049 7.55109 24.112 7.81296 24.1477 8.28909C24.1549 8.3867 24.162 8.48668 24.1668 8.59143L24.488 15.65C24.4952 15.8143 24.5094 16.0928 24.6046 16.1856C24.7046 16.2809 25.002 16.2785 25.1614 16.2785L27.6909 16.2523C27.8955 16.2499 28.1263 16.2475 28.262 16.169C28.5213 16.019 28.5737 15.5405 28.5903 15.1382C28.6998 12.5957 28.6593 10.0198 28.4737 7.48444C28.4642 7.36541 28.4452 7.08449 28.3595 7.01307C28.2834 6.94879 28.043 6.95118 27.9145 6.95356L24.6641 7.00831Z" fill="#2A9D8F"/>
<path d="M26.5965 19.6185C26.104 19.6185 25.6114 19.6113 25.1236 19.597C24.3026 19.5732 23.4365 19.5137 22.6965 19.0757C21.8708 18.5877 21.283 17.6545 21.0855 16.5189C20.9189 15.5547 21.0284 14.6025 21.1379 13.6836L22.0825 13.7954C21.9826 14.6477 21.8803 15.5262 22.023 16.357C22.173 17.2188 22.5941 17.9116 23.1795 18.2568C23.7244 18.5781 24.4216 18.6234 25.1498 18.6448C26.1182 18.6734 27.1034 18.671 28.0766 18.6448C28.7262 18.6257 29.3473 18.5877 29.847 18.3234C30.4871 17.9854 30.9487 17.2355 31.0843 16.3165C31.2152 15.4286 31.0605 14.493 30.9106 13.5907L31.8505 13.4336C32.0052 14.3644 32.1813 15.419 32.0266 16.457C31.8458 17.6735 31.1985 18.6853 30.2919 19.1662C29.6138 19.5256 28.869 19.5756 28.1051 19.597C27.6031 19.6113 27.0986 19.6185 26.5965 19.6185Z" fill="#2A9D8F"/>
<path d="M26.0431 19.1731L26.0132 22.4536L26.965 22.4623L26.9949 19.1818L26.0431 19.1731Z" fill="#2A9D8F"/>
<path d="M30.0701 22.0262L22.5713 22.1719L22.5898 23.1239L30.0886 22.9783L30.0701 22.0262Z" fill="#2A9D8F"/>
</svg>
